%TF.GenerationSoftware,KiCad,Pcbnew,(5.1.10-1-10_14)*%
%TF.CreationDate,2021-08-10T22:16:19+10:00*%
%TF.ProjectId,pda6502v2,70646136-3530-4327-9632-2e6b69636164,rev?*%
%TF.SameCoordinates,Original*%
%TF.FileFunction,Soldermask,Bot*%
%TF.FilePolarity,Negative*%
%FSLAX46Y46*%
G04 Gerber Fmt 4.6, Leading zero omitted, Abs format (unit mm)*
G04 Created by KiCad (PCBNEW (5.1.10-1-10_14)) date 2021-08-10 22:16:19*
%MOMM*%
%LPD*%
G01*
G04 APERTURE LIST*
%ADD10C,0.100000*%
%ADD11C,0.150000*%
%ADD12C,0.010000*%
%ADD13C,1.100000*%
%ADD14C,2.200000*%
%ADD15R,2.200000X2.200000*%
%ADD16O,2.200000X2.200000*%
%ADD17C,1.600000*%
%ADD18R,1.600000X1.600000*%
%ADD19C,1.800000*%
%ADD20R,1.800000X1.800000*%
%ADD21O,1.700000X1.700000*%
%ADD22R,1.700000X1.700000*%
%ADD23C,2.000000*%
%ADD24O,1.600000X1.600000*%
%ADD25C,3.200000*%
G04 APERTURE END LIST*
D10*
G36*
X120396000Y-127254000D02*
G01*
X120396000Y-128524000D01*
X119126000Y-128524000D01*
X119126000Y-128016000D01*
X119888000Y-128016000D01*
X119888000Y-127508000D01*
X119634000Y-127254000D01*
X118872000Y-127254000D01*
X118872000Y-128524000D01*
X118364000Y-128524000D01*
X118364000Y-126746000D01*
X119888000Y-126746000D01*
X120396000Y-127254000D01*
G37*
X120396000Y-127254000D02*
X120396000Y-128524000D01*
X119126000Y-128524000D01*
X119126000Y-128016000D01*
X119888000Y-128016000D01*
X119888000Y-127508000D01*
X119634000Y-127254000D01*
X118872000Y-127254000D01*
X118872000Y-128524000D01*
X118364000Y-128524000D01*
X118364000Y-126746000D01*
X119888000Y-126746000D01*
X120396000Y-127254000D01*
G36*
X115824000Y-127762000D02*
G01*
X114300000Y-127762000D01*
X114554000Y-128016000D01*
X115824000Y-128016000D01*
X115824000Y-128524000D01*
X114300000Y-128524000D01*
X113792000Y-128016000D01*
X113792000Y-127254000D01*
X115316000Y-127254000D01*
X115316000Y-127000000D01*
X113792000Y-127000000D01*
X113792000Y-126492000D01*
X115824000Y-126492000D01*
X115824000Y-127762000D01*
G37*
X115824000Y-127762000D02*
X114300000Y-127762000D01*
X114554000Y-128016000D01*
X115824000Y-128016000D01*
X115824000Y-128524000D01*
X114300000Y-128524000D01*
X113792000Y-128016000D01*
X113792000Y-127254000D01*
X115316000Y-127254000D01*
X115316000Y-127000000D01*
X113792000Y-127000000D01*
X113792000Y-126492000D01*
X115824000Y-126492000D01*
X115824000Y-127762000D01*
G36*
X118110000Y-128524000D02*
G01*
X116586000Y-128524000D01*
X116078000Y-128016000D01*
X116078000Y-127762000D01*
X116586000Y-127762000D01*
X116840000Y-128016000D01*
X117602000Y-128016000D01*
X117602000Y-127762000D01*
X116586000Y-127762000D01*
X116078000Y-127762000D01*
X116078000Y-127254000D01*
X117602000Y-127254000D01*
X117602000Y-127000000D01*
X116078000Y-127000000D01*
X116078000Y-126492000D01*
X118110000Y-126492000D01*
X118110000Y-128524000D01*
G37*
X118110000Y-128524000D02*
X116586000Y-128524000D01*
X116078000Y-128016000D01*
X116078000Y-127762000D01*
X116586000Y-127762000D01*
X116840000Y-128016000D01*
X117602000Y-128016000D01*
X117602000Y-127762000D01*
X116586000Y-127762000D01*
X116078000Y-127762000D01*
X116078000Y-127254000D01*
X117602000Y-127254000D01*
X117602000Y-127000000D01*
X116078000Y-127000000D01*
X116078000Y-126492000D01*
X118110000Y-126492000D01*
X118110000Y-128524000D01*
G36*
X111252000Y-127000000D02*
G01*
X109982000Y-127000000D01*
X109728000Y-127254000D01*
X111252000Y-127254000D01*
X111252000Y-128524000D01*
X109220000Y-128524000D01*
X109220000Y-128016000D01*
X110490000Y-128016000D01*
X110490000Y-127762000D01*
X109220000Y-127762000D01*
X109220000Y-127000000D01*
X109728000Y-126492000D01*
X111252000Y-126492000D01*
X111252000Y-127000000D01*
G37*
X111252000Y-127000000D02*
X109982000Y-127000000D01*
X109728000Y-127254000D01*
X111252000Y-127254000D01*
X111252000Y-128524000D01*
X109220000Y-128524000D01*
X109220000Y-128016000D01*
X110490000Y-128016000D01*
X110490000Y-127762000D01*
X109220000Y-127762000D01*
X109220000Y-127000000D01*
X109728000Y-126492000D01*
X111252000Y-126492000D01*
X111252000Y-127000000D01*
G36*
X121158000Y-126492000D02*
G01*
X121158000Y-126746000D01*
X122174000Y-126746000D01*
X122682000Y-127254000D01*
X122682000Y-128524000D01*
X120650000Y-128524000D01*
X120650000Y-127254000D01*
X121158000Y-127254000D01*
X121158000Y-128016000D01*
X122174000Y-128016000D01*
X122174000Y-127508000D01*
X121920000Y-127254000D01*
X121158000Y-127254000D01*
X120650000Y-127254000D01*
X120650000Y-125984000D01*
X121158000Y-126492000D01*
G37*
X121158000Y-126492000D02*
X121158000Y-126746000D01*
X122174000Y-126746000D01*
X122682000Y-127254000D01*
X122682000Y-128524000D01*
X120650000Y-128524000D01*
X120650000Y-127254000D01*
X121158000Y-127254000D01*
X121158000Y-128016000D01*
X122174000Y-128016000D01*
X122174000Y-127508000D01*
X121920000Y-127254000D01*
X121158000Y-127254000D01*
X120650000Y-127254000D01*
X120650000Y-125984000D01*
X121158000Y-126492000D01*
G36*
X113538000Y-128016000D02*
G01*
X113030000Y-128524000D01*
X111506000Y-128524000D01*
X111506000Y-127000000D01*
X112014000Y-127000000D01*
X112014000Y-128016000D01*
X112776000Y-128016000D01*
X113030000Y-127762000D01*
X113030000Y-127000000D01*
X112014000Y-127000000D01*
X111506000Y-127000000D01*
X111506000Y-126492000D01*
X113538000Y-126492000D01*
X113538000Y-128016000D01*
G37*
X113538000Y-128016000D02*
X113030000Y-128524000D01*
X111506000Y-128524000D01*
X111506000Y-127000000D01*
X112014000Y-127000000D01*
X112014000Y-128016000D01*
X112776000Y-128016000D01*
X113030000Y-127762000D01*
X113030000Y-127000000D01*
X112014000Y-127000000D01*
X111506000Y-127000000D01*
X111506000Y-126492000D01*
X113538000Y-126492000D01*
X113538000Y-128016000D01*
G36*
X124968000Y-129286000D02*
G01*
X124460000Y-128778000D01*
X124460000Y-128524000D01*
X123444000Y-128524000D01*
X122936000Y-128016000D01*
X122936000Y-127254000D01*
X123444000Y-127254000D01*
X123444000Y-127762000D01*
X123698000Y-128016000D01*
X124460000Y-128016000D01*
X124460000Y-127254000D01*
X123444000Y-127254000D01*
X122936000Y-127254000D01*
X122936000Y-126746000D01*
X124968000Y-126746000D01*
X124968000Y-129286000D01*
G37*
X124968000Y-129286000D02*
X124460000Y-128778000D01*
X124460000Y-128524000D01*
X123444000Y-128524000D01*
X122936000Y-128016000D01*
X122936000Y-127254000D01*
X123444000Y-127254000D01*
X123444000Y-127762000D01*
X123698000Y-128016000D01*
X124460000Y-128016000D01*
X124460000Y-127254000D01*
X123444000Y-127254000D01*
X122936000Y-127254000D01*
X122936000Y-126746000D01*
X124968000Y-126746000D01*
X124968000Y-129286000D01*
D11*
X124173333Y-130246380D02*
X124173333Y-129246380D01*
X123792380Y-129246380D01*
X123697142Y-129294000D01*
X123649523Y-129341619D01*
X123601904Y-129436857D01*
X123601904Y-129579714D01*
X123649523Y-129674952D01*
X123697142Y-129722571D01*
X123792380Y-129770190D01*
X124173333Y-129770190D01*
X122744761Y-130246380D02*
X122744761Y-129722571D01*
X122792380Y-129627333D01*
X122887619Y-129579714D01*
X123078095Y-129579714D01*
X123173333Y-129627333D01*
X122744761Y-130198761D02*
X122840000Y-130246380D01*
X123078095Y-130246380D01*
X123173333Y-130198761D01*
X123220952Y-130103523D01*
X123220952Y-130008285D01*
X123173333Y-129913047D01*
X123078095Y-129865428D01*
X122840000Y-129865428D01*
X122744761Y-129817809D01*
X121840000Y-129579714D02*
X121840000Y-130246380D01*
X122268571Y-129579714D02*
X122268571Y-130103523D01*
X122220952Y-130198761D01*
X122125714Y-130246380D01*
X121982857Y-130246380D01*
X121887619Y-130198761D01*
X121840000Y-130151142D01*
X121220952Y-130246380D02*
X121316190Y-130198761D01*
X121363809Y-130103523D01*
X121363809Y-129246380D01*
X120125714Y-129960666D02*
X119649523Y-129960666D01*
X120220952Y-130246380D02*
X119887619Y-129246380D01*
X119554285Y-130246380D01*
X119220952Y-129579714D02*
X119220952Y-130246380D01*
X119220952Y-129674952D02*
X119173333Y-129627333D01*
X119078095Y-129579714D01*
X118935238Y-129579714D01*
X118840000Y-129627333D01*
X118792380Y-129722571D01*
X118792380Y-130246380D01*
X118316190Y-129579714D02*
X118316190Y-130246380D01*
X118316190Y-129674952D02*
X118268571Y-129627333D01*
X118173333Y-129579714D01*
X118030476Y-129579714D01*
X117935238Y-129627333D01*
X117887619Y-129722571D01*
X117887619Y-130246380D01*
X117030476Y-130198761D02*
X117125714Y-130246380D01*
X117316190Y-130246380D01*
X117411428Y-130198761D01*
X117459047Y-130103523D01*
X117459047Y-129722571D01*
X117411428Y-129627333D01*
X117316190Y-129579714D01*
X117125714Y-129579714D01*
X117030476Y-129627333D01*
X116982857Y-129722571D01*
X116982857Y-129817809D01*
X117459047Y-129913047D01*
X116601904Y-130198761D02*
X116506666Y-130246380D01*
X116316190Y-130246380D01*
X116220952Y-130198761D01*
X116173333Y-130103523D01*
X116173333Y-130055904D01*
X116220952Y-129960666D01*
X116316190Y-129913047D01*
X116459047Y-129913047D01*
X116554285Y-129865428D01*
X116601904Y-129770190D01*
X116601904Y-129722571D01*
X116554285Y-129627333D01*
X116459047Y-129579714D01*
X116316190Y-129579714D01*
X116220952Y-129627333D01*
X115601904Y-130246380D02*
X115697142Y-130198761D01*
X115744761Y-130103523D01*
X115744761Y-129246380D01*
X114840000Y-130198761D02*
X114935238Y-130246380D01*
X115125714Y-130246380D01*
X115220952Y-130198761D01*
X115268571Y-130103523D01*
X115268571Y-129722571D01*
X115220952Y-129627333D01*
X115125714Y-129579714D01*
X114935238Y-129579714D01*
X114840000Y-129627333D01*
X114792380Y-129722571D01*
X114792380Y-129817809D01*
X115268571Y-129913047D01*
X114459047Y-129579714D02*
X114220952Y-130246380D01*
X113982857Y-129579714D02*
X114220952Y-130246380D01*
X114316190Y-130484476D01*
X114363809Y-130532095D01*
X114459047Y-130579714D01*
X112887619Y-129341619D02*
X112840000Y-129294000D01*
X112744761Y-129246380D01*
X112506666Y-129246380D01*
X112411428Y-129294000D01*
X112363809Y-129341619D01*
X112316190Y-129436857D01*
X112316190Y-129532095D01*
X112363809Y-129674952D01*
X112935238Y-130246380D01*
X112316190Y-130246380D01*
X111697142Y-129246380D02*
X111601904Y-129246380D01*
X111506666Y-129294000D01*
X111459047Y-129341619D01*
X111411428Y-129436857D01*
X111363809Y-129627333D01*
X111363809Y-129865428D01*
X111411428Y-130055904D01*
X111459047Y-130151142D01*
X111506666Y-130198761D01*
X111601904Y-130246380D01*
X111697142Y-130246380D01*
X111792380Y-130198761D01*
X111840000Y-130151142D01*
X111887619Y-130055904D01*
X111935238Y-129865428D01*
X111935238Y-129627333D01*
X111887619Y-129436857D01*
X111840000Y-129341619D01*
X111792380Y-129294000D01*
X111697142Y-129246380D01*
X110982857Y-129341619D02*
X110935238Y-129294000D01*
X110840000Y-129246380D01*
X110601904Y-129246380D01*
X110506666Y-129294000D01*
X110459047Y-129341619D01*
X110411428Y-129436857D01*
X110411428Y-129532095D01*
X110459047Y-129674952D01*
X111030476Y-130246380D01*
X110411428Y-130246380D01*
X109459047Y-130246380D02*
X110030476Y-130246380D01*
X109744761Y-130246380D02*
X109744761Y-129246380D01*
X109840000Y-129389238D01*
X109935238Y-129484476D01*
X110030476Y-129532095D01*
D12*
%TO.C,G\u002A\u002A\u002A*%
G36*
X107990251Y-42216029D02*
G01*
X107909947Y-42234803D01*
X107724581Y-42312034D01*
X107560534Y-42422777D01*
X107419464Y-42563055D01*
X107303029Y-42728890D01*
X107212886Y-42916302D01*
X107150692Y-43121316D01*
X107118106Y-43339951D01*
X107116785Y-43568232D01*
X107148387Y-43802179D01*
X107189742Y-43963167D01*
X107253426Y-44133255D01*
X107343472Y-44321501D01*
X107454254Y-44518334D01*
X107580145Y-44714185D01*
X107715518Y-44899482D01*
X107802945Y-45006265D01*
X107889951Y-45107446D01*
X107827545Y-45302598D01*
X107796052Y-45397446D01*
X107754495Y-45517457D01*
X107707935Y-45648256D01*
X107661434Y-45775466D01*
X107654503Y-45794083D01*
X107596050Y-45960332D01*
X107549236Y-46113410D01*
X107515889Y-46246364D01*
X107497838Y-46352243D01*
X107495112Y-46400000D01*
X107513022Y-46465903D01*
X107556281Y-46528442D01*
X107604071Y-46564328D01*
X107666222Y-46582229D01*
X107742354Y-46581405D01*
X107799521Y-46572505D01*
X107851123Y-46546670D01*
X107918598Y-46488555D01*
X107997921Y-46403247D01*
X108085070Y-46295832D01*
X108176023Y-46171396D01*
X108266754Y-46035027D01*
X108353243Y-45891812D01*
X108390061Y-45825833D01*
X108438341Y-45732733D01*
X108498703Y-45609911D01*
X108567281Y-45465855D01*
X108640205Y-45309050D01*
X108713607Y-45147983D01*
X108783619Y-44991139D01*
X108846372Y-44847005D01*
X108897999Y-44724067D01*
X108933901Y-44632789D01*
X109036563Y-44332662D01*
X109112744Y-44056471D01*
X109164035Y-43796463D01*
X109192027Y-43544889D01*
X109198715Y-43342967D01*
X109198274Y-43307695D01*
X108884199Y-43307695D01*
X108880463Y-43434728D01*
X108870865Y-43564387D01*
X108856938Y-43678405D01*
X108849527Y-43720445D01*
X108822914Y-43831759D01*
X108783637Y-43970062D01*
X108735653Y-44123408D01*
X108682922Y-44279855D01*
X108629403Y-44427457D01*
X108579054Y-44554270D01*
X108555109Y-44608750D01*
X108477845Y-44775646D01*
X108416933Y-44905840D01*
X108371438Y-45001274D01*
X108340424Y-45063889D01*
X108322958Y-45095627D01*
X108318317Y-45100540D01*
X108320518Y-45079105D01*
X108330874Y-45026554D01*
X108347363Y-44952864D01*
X108353673Y-44926158D01*
X108382621Y-44783308D01*
X108391508Y-44673462D01*
X108378986Y-44591650D01*
X108343701Y-44532901D01*
X108284304Y-44492245D01*
X108230401Y-44472668D01*
X108154639Y-44470637D01*
X108087016Y-44505299D01*
X108034282Y-44571037D01*
X108003289Y-44661667D01*
X107988779Y-44736840D01*
X107974575Y-44776048D01*
X107954773Y-44779580D01*
X107923470Y-44747724D01*
X107874761Y-44680771D01*
X107866058Y-44668387D01*
X107748033Y-44488904D01*
X107639693Y-44302213D01*
X107547920Y-44120922D01*
X107482646Y-43965986D01*
X107448378Y-43864934D01*
X107426210Y-43774672D01*
X107412783Y-43677520D01*
X107404742Y-43555793D01*
X107404731Y-43555561D01*
X107405151Y-43342315D01*
X107429049Y-43158845D01*
X107478470Y-42998422D01*
X107555458Y-42854318D01*
X107656838Y-42725476D01*
X107785405Y-42609669D01*
X107925893Y-42528080D01*
X108072200Y-42483684D01*
X108168518Y-42476192D01*
X108339979Y-42497067D01*
X108492687Y-42555278D01*
X108630523Y-42652490D01*
X108672013Y-42691993D01*
X108755173Y-42786122D01*
X108814596Y-42879782D01*
X108853627Y-42982679D01*
X108875610Y-43104516D01*
X108883889Y-43254998D01*
X108884199Y-43307695D01*
X109198274Y-43307695D01*
X109196951Y-43202086D01*
X109190442Y-43092026D01*
X109177155Y-43001362D01*
X109155062Y-42918669D01*
X109122131Y-42832522D01*
X109098521Y-42779220D01*
X109048200Y-42694509D01*
X108972645Y-42597581D01*
X108882109Y-42499144D01*
X108786847Y-42409903D01*
X108697111Y-42340567D01*
X108653761Y-42314762D01*
X108499236Y-42253741D01*
X108328128Y-42215976D01*
X108153959Y-42202921D01*
X107990251Y-42216029D01*
G37*
X107990251Y-42216029D02*
X107909947Y-42234803D01*
X107724581Y-42312034D01*
X107560534Y-42422777D01*
X107419464Y-42563055D01*
X107303029Y-42728890D01*
X107212886Y-42916302D01*
X107150692Y-43121316D01*
X107118106Y-43339951D01*
X107116785Y-43568232D01*
X107148387Y-43802179D01*
X107189742Y-43963167D01*
X107253426Y-44133255D01*
X107343472Y-44321501D01*
X107454254Y-44518334D01*
X107580145Y-44714185D01*
X107715518Y-44899482D01*
X107802945Y-45006265D01*
X107889951Y-45107446D01*
X107827545Y-45302598D01*
X107796052Y-45397446D01*
X107754495Y-45517457D01*
X107707935Y-45648256D01*
X107661434Y-45775466D01*
X107654503Y-45794083D01*
X107596050Y-45960332D01*
X107549236Y-46113410D01*
X107515889Y-46246364D01*
X107497838Y-46352243D01*
X107495112Y-46400000D01*
X107513022Y-46465903D01*
X107556281Y-46528442D01*
X107604071Y-46564328D01*
X107666222Y-46582229D01*
X107742354Y-46581405D01*
X107799521Y-46572505D01*
X107851123Y-46546670D01*
X107918598Y-46488555D01*
X107997921Y-46403247D01*
X108085070Y-46295832D01*
X108176023Y-46171396D01*
X108266754Y-46035027D01*
X108353243Y-45891812D01*
X108390061Y-45825833D01*
X108438341Y-45732733D01*
X108498703Y-45609911D01*
X108567281Y-45465855D01*
X108640205Y-45309050D01*
X108713607Y-45147983D01*
X108783619Y-44991139D01*
X108846372Y-44847005D01*
X108897999Y-44724067D01*
X108933901Y-44632789D01*
X109036563Y-44332662D01*
X109112744Y-44056471D01*
X109164035Y-43796463D01*
X109192027Y-43544889D01*
X109198715Y-43342967D01*
X109198274Y-43307695D01*
X108884199Y-43307695D01*
X108880463Y-43434728D01*
X108870865Y-43564387D01*
X108856938Y-43678405D01*
X108849527Y-43720445D01*
X108822914Y-43831759D01*
X108783637Y-43970062D01*
X108735653Y-44123408D01*
X108682922Y-44279855D01*
X108629403Y-44427457D01*
X108579054Y-44554270D01*
X108555109Y-44608750D01*
X108477845Y-44775646D01*
X108416933Y-44905840D01*
X108371438Y-45001274D01*
X108340424Y-45063889D01*
X108322958Y-45095627D01*
X108318317Y-45100540D01*
X108320518Y-45079105D01*
X108330874Y-45026554D01*
X108347363Y-44952864D01*
X108353673Y-44926158D01*
X108382621Y-44783308D01*
X108391508Y-44673462D01*
X108378986Y-44591650D01*
X108343701Y-44532901D01*
X108284304Y-44492245D01*
X108230401Y-44472668D01*
X108154639Y-44470637D01*
X108087016Y-44505299D01*
X108034282Y-44571037D01*
X108003289Y-44661667D01*
X107988779Y-44736840D01*
X107974575Y-44776048D01*
X107954773Y-44779580D01*
X107923470Y-44747724D01*
X107874761Y-44680771D01*
X107866058Y-44668387D01*
X107748033Y-44488904D01*
X107639693Y-44302213D01*
X107547920Y-44120922D01*
X107482646Y-43965986D01*
X107448378Y-43864934D01*
X107426210Y-43774672D01*
X107412783Y-43677520D01*
X107404742Y-43555793D01*
X107404731Y-43555561D01*
X107405151Y-43342315D01*
X107429049Y-43158845D01*
X107478470Y-42998422D01*
X107555458Y-42854318D01*
X107656838Y-42725476D01*
X107785405Y-42609669D01*
X107925893Y-42528080D01*
X108072200Y-42483684D01*
X108168518Y-42476192D01*
X108339979Y-42497067D01*
X108492687Y-42555278D01*
X108630523Y-42652490D01*
X108672013Y-42691993D01*
X108755173Y-42786122D01*
X108814596Y-42879782D01*
X108853627Y-42982679D01*
X108875610Y-43104516D01*
X108883889Y-43254998D01*
X108884199Y-43307695D01*
X109198274Y-43307695D01*
X109196951Y-43202086D01*
X109190442Y-43092026D01*
X109177155Y-43001362D01*
X109155062Y-42918669D01*
X109122131Y-42832522D01*
X109098521Y-42779220D01*
X109048200Y-42694509D01*
X108972645Y-42597581D01*
X108882109Y-42499144D01*
X108786847Y-42409903D01*
X108697111Y-42340567D01*
X108653761Y-42314762D01*
X108499236Y-42253741D01*
X108328128Y-42215976D01*
X108153959Y-42202921D01*
X107990251Y-42216029D01*
G36*
X106383780Y-42204468D02*
G01*
X106327920Y-42254960D01*
X106289007Y-42325518D01*
X106276093Y-42393166D01*
X106272908Y-42461832D01*
X106267581Y-42521583D01*
X106267288Y-42523833D01*
X106262329Y-42570295D01*
X106255757Y-42644127D01*
X106248883Y-42730468D01*
X106247983Y-42742549D01*
X106227053Y-42951770D01*
X106194812Y-43180572D01*
X106154409Y-43408749D01*
X106117172Y-43582167D01*
X106089079Y-43696620D01*
X106060418Y-43805441D01*
X106033521Y-43900514D01*
X106010719Y-43973724D01*
X105994344Y-44016954D01*
X105990250Y-44023882D01*
X105972601Y-44014356D01*
X105930913Y-43982309D01*
X105872578Y-43933581D01*
X105839645Y-43904933D01*
X105751514Y-43829357D01*
X105685289Y-43778836D01*
X105632791Y-43748643D01*
X105585840Y-43734052D01*
X105537506Y-43730333D01*
X105461880Y-43749789D01*
X105400351Y-43802593D01*
X105359682Y-43880402D01*
X105346500Y-43966059D01*
X105350004Y-43996353D01*
X105363456Y-44028557D01*
X105391266Y-44068312D01*
X105437845Y-44121261D01*
X105507602Y-44193047D01*
X105580110Y-44264928D01*
X105813720Y-44494622D01*
X105747205Y-44625769D01*
X105648321Y-44797623D01*
X105543036Y-44937548D01*
X105434265Y-45042314D01*
X105324923Y-45108690D01*
X105304388Y-45116672D01*
X105185718Y-45177335D01*
X105098120Y-45262546D01*
X105044864Y-45368035D01*
X105029000Y-45476212D01*
X105047543Y-45604443D01*
X105101086Y-45711608D01*
X105186494Y-45793522D01*
X105300635Y-45845998D01*
X105307068Y-45847781D01*
X105420035Y-45858340D01*
X105546308Y-45836844D01*
X105676264Y-45786824D01*
X105800278Y-45711809D01*
X105891572Y-45633331D01*
X105952327Y-45558957D01*
X106019429Y-45455847D01*
X106086494Y-45335641D01*
X106147141Y-45209975D01*
X106194984Y-45090489D01*
X106203914Y-45063833D01*
X106225768Y-44997657D01*
X106243363Y-44948237D01*
X106250852Y-44930407D01*
X106268664Y-44937693D01*
X106310138Y-44969980D01*
X106369196Y-45022145D01*
X106439759Y-45089064D01*
X106443825Y-45093044D01*
X106519908Y-45167163D01*
X106589187Y-45233811D01*
X106643719Y-45285401D01*
X106674341Y-45313302D01*
X106708135Y-45365827D01*
X106735856Y-45459915D01*
X106757440Y-45595222D01*
X106772822Y-45771404D01*
X106777421Y-45857583D01*
X106782440Y-45949468D01*
X106789586Y-46009914D01*
X106802023Y-46049805D01*
X106822916Y-46080024D01*
X106849752Y-46106292D01*
X106917397Y-46151268D01*
X106995507Y-46164498D01*
X106996757Y-46164500D01*
X107054409Y-46158985D01*
X107096263Y-46135827D01*
X107139298Y-46086669D01*
X107166949Y-46047632D01*
X107184142Y-46011319D01*
X107193136Y-45966471D01*
X107196192Y-45901826D01*
X107195568Y-45806211D01*
X107190021Y-45706837D01*
X107176472Y-45573465D01*
X107155991Y-45413450D01*
X107129650Y-45234143D01*
X107098519Y-45042897D01*
X107063668Y-44847066D01*
X107031988Y-44682833D01*
X107017543Y-44608332D01*
X106587853Y-44608332D01*
X106582554Y-44618821D01*
X106551400Y-44598609D01*
X106496287Y-44548965D01*
X106489532Y-44542433D01*
X106377767Y-44433783D01*
X106416774Y-44199254D01*
X106432831Y-44106706D01*
X106446952Y-44032639D01*
X106457518Y-43985086D01*
X106462664Y-43971608D01*
X106468657Y-43993793D01*
X106480405Y-44050007D01*
X106496393Y-44132576D01*
X106515104Y-44233824D01*
X106521976Y-44272035D01*
X106541990Y-44381842D01*
X106560513Y-44479391D01*
X106575790Y-44555727D01*
X106586067Y-44601895D01*
X106587853Y-44608332D01*
X107017543Y-44608332D01*
X106975466Y-44391328D01*
X106924543Y-44109697D01*
X106880862Y-43847479D01*
X106846063Y-43614210D01*
X106838873Y-43561000D01*
X106827594Y-43481711D01*
X106813374Y-43389744D01*
X106806750Y-43349333D01*
X106792492Y-43258384D01*
X106779090Y-43163167D01*
X106774526Y-43127083D01*
X106765498Y-43058982D01*
X106756853Y-43005483D01*
X106753445Y-42989500D01*
X106743898Y-42945925D01*
X106734464Y-42894250D01*
X106707163Y-42730415D01*
X106683311Y-42588117D01*
X106663910Y-42473300D01*
X106649963Y-42391910D01*
X106646102Y-42369855D01*
X106615019Y-42292089D01*
X106558366Y-42228927D01*
X106487771Y-42191179D01*
X106447424Y-42185167D01*
X106383780Y-42204468D01*
G37*
X106383780Y-42204468D02*
X106327920Y-42254960D01*
X106289007Y-42325518D01*
X106276093Y-42393166D01*
X106272908Y-42461832D01*
X106267581Y-42521583D01*
X106267288Y-42523833D01*
X106262329Y-42570295D01*
X106255757Y-42644127D01*
X106248883Y-42730468D01*
X106247983Y-42742549D01*
X106227053Y-42951770D01*
X106194812Y-43180572D01*
X106154409Y-43408749D01*
X106117172Y-43582167D01*
X106089079Y-43696620D01*
X106060418Y-43805441D01*
X106033521Y-43900514D01*
X106010719Y-43973724D01*
X105994344Y-44016954D01*
X105990250Y-44023882D01*
X105972601Y-44014356D01*
X105930913Y-43982309D01*
X105872578Y-43933581D01*
X105839645Y-43904933D01*
X105751514Y-43829357D01*
X105685289Y-43778836D01*
X105632791Y-43748643D01*
X105585840Y-43734052D01*
X105537506Y-43730333D01*
X105461880Y-43749789D01*
X105400351Y-43802593D01*
X105359682Y-43880402D01*
X105346500Y-43966059D01*
X105350004Y-43996353D01*
X105363456Y-44028557D01*
X105391266Y-44068312D01*
X105437845Y-44121261D01*
X105507602Y-44193047D01*
X105580110Y-44264928D01*
X105813720Y-44494622D01*
X105747205Y-44625769D01*
X105648321Y-44797623D01*
X105543036Y-44937548D01*
X105434265Y-45042314D01*
X105324923Y-45108690D01*
X105304388Y-45116672D01*
X105185718Y-45177335D01*
X105098120Y-45262546D01*
X105044864Y-45368035D01*
X105029000Y-45476212D01*
X105047543Y-45604443D01*
X105101086Y-45711608D01*
X105186494Y-45793522D01*
X105300635Y-45845998D01*
X105307068Y-45847781D01*
X105420035Y-45858340D01*
X105546308Y-45836844D01*
X105676264Y-45786824D01*
X105800278Y-45711809D01*
X105891572Y-45633331D01*
X105952327Y-45558957D01*
X106019429Y-45455847D01*
X106086494Y-45335641D01*
X106147141Y-45209975D01*
X106194984Y-45090489D01*
X106203914Y-45063833D01*
X106225768Y-44997657D01*
X106243363Y-44948237D01*
X106250852Y-44930407D01*
X106268664Y-44937693D01*
X106310138Y-44969980D01*
X106369196Y-45022145D01*
X106439759Y-45089064D01*
X106443825Y-45093044D01*
X106519908Y-45167163D01*
X106589187Y-45233811D01*
X106643719Y-45285401D01*
X106674341Y-45313302D01*
X106708135Y-45365827D01*
X106735856Y-45459915D01*
X106757440Y-45595222D01*
X106772822Y-45771404D01*
X106777421Y-45857583D01*
X106782440Y-45949468D01*
X106789586Y-46009914D01*
X106802023Y-46049805D01*
X106822916Y-46080024D01*
X106849752Y-46106292D01*
X106917397Y-46151268D01*
X106995507Y-46164498D01*
X106996757Y-46164500D01*
X107054409Y-46158985D01*
X107096263Y-46135827D01*
X107139298Y-46086669D01*
X107166949Y-46047632D01*
X107184142Y-46011319D01*
X107193136Y-45966471D01*
X107196192Y-45901826D01*
X107195568Y-45806211D01*
X107190021Y-45706837D01*
X107176472Y-45573465D01*
X107155991Y-45413450D01*
X107129650Y-45234143D01*
X107098519Y-45042897D01*
X107063668Y-44847066D01*
X107031988Y-44682833D01*
X107017543Y-44608332D01*
X106587853Y-44608332D01*
X106582554Y-44618821D01*
X106551400Y-44598609D01*
X106496287Y-44548965D01*
X106489532Y-44542433D01*
X106377767Y-44433783D01*
X106416774Y-44199254D01*
X106432831Y-44106706D01*
X106446952Y-44032639D01*
X106457518Y-43985086D01*
X106462664Y-43971608D01*
X106468657Y-43993793D01*
X106480405Y-44050007D01*
X106496393Y-44132576D01*
X106515104Y-44233824D01*
X106521976Y-44272035D01*
X106541990Y-44381842D01*
X106560513Y-44479391D01*
X106575790Y-44555727D01*
X106586067Y-44601895D01*
X106587853Y-44608332D01*
X107017543Y-44608332D01*
X106975466Y-44391328D01*
X106924543Y-44109697D01*
X106880862Y-43847479D01*
X106846063Y-43614210D01*
X106838873Y-43561000D01*
X106827594Y-43481711D01*
X106813374Y-43389744D01*
X106806750Y-43349333D01*
X106792492Y-43258384D01*
X106779090Y-43163167D01*
X106774526Y-43127083D01*
X106765498Y-43058982D01*
X106756853Y-43005483D01*
X106753445Y-42989500D01*
X106743898Y-42945925D01*
X106734464Y-42894250D01*
X106707163Y-42730415D01*
X106683311Y-42588117D01*
X106663910Y-42473300D01*
X106649963Y-42391910D01*
X106646102Y-42369855D01*
X106615019Y-42292089D01*
X106558366Y-42228927D01*
X106487771Y-42191179D01*
X106447424Y-42185167D01*
X106383780Y-42204468D01*
G36*
X107060955Y-125800709D02*
G01*
X107017429Y-125803058D01*
X106982212Y-125808058D01*
X106948883Y-125816588D01*
X106914792Y-125828157D01*
X106826640Y-125868485D01*
X106751680Y-125921809D01*
X106687016Y-125990677D01*
X106629750Y-126077635D01*
X106628480Y-126079897D01*
X106582510Y-126176990D01*
X106549898Y-126281310D01*
X106529892Y-126396219D01*
X106521742Y-126525077D01*
X106521468Y-126559076D01*
X106528677Y-126759682D01*
X106550080Y-126958607D01*
X106586290Y-127158711D01*
X106637917Y-127362857D01*
X106705574Y-127573905D01*
X106780921Y-127772720D01*
X106825572Y-127879051D01*
X106874776Y-127989036D01*
X106926571Y-128098727D01*
X106978998Y-128204178D01*
X107030094Y-128301441D01*
X107077900Y-128386570D01*
X107119368Y-128453965D01*
X107130099Y-128472945D01*
X107131635Y-128481612D01*
X107131280Y-128481666D01*
X107120918Y-128475427D01*
X107098008Y-128458614D01*
X107066360Y-128434087D01*
X107042750Y-128415236D01*
X106899946Y-128305207D01*
X106758645Y-128206582D01*
X106621047Y-128120679D01*
X106489350Y-128048813D01*
X106365755Y-127992299D01*
X106286971Y-127963149D01*
X106159795Y-127924259D01*
X106048053Y-127896834D01*
X105949576Y-127880583D01*
X105862199Y-127875215D01*
X105783751Y-127880438D01*
X105737008Y-127889257D01*
X105671153Y-127913546D01*
X105604480Y-127953201D01*
X105540261Y-128004725D01*
X105481768Y-128064619D01*
X105432272Y-128129386D01*
X105395044Y-128195527D01*
X105373355Y-128259544D01*
X105369944Y-128281779D01*
X105373606Y-128346864D01*
X105395479Y-128406881D01*
X105432700Y-128458732D01*
X105482407Y-128499322D01*
X105541735Y-128525553D01*
X105603486Y-128534350D01*
X105665912Y-128527189D01*
X105721081Y-128504018D01*
X105771487Y-128463231D01*
X105819622Y-128403218D01*
X105829186Y-128388782D01*
X105852749Y-128357243D01*
X105876915Y-128332756D01*
X105892543Y-128322536D01*
X105925531Y-128317219D01*
X105974769Y-128318796D01*
X106036764Y-128326531D01*
X106108023Y-128339686D01*
X106185054Y-128357523D01*
X106264363Y-128379304D01*
X106342459Y-128404293D01*
X106415848Y-128431752D01*
X106422253Y-128434381D01*
X106464757Y-128453016D01*
X106523335Y-128480240D01*
X106595353Y-128514740D01*
X106678177Y-128555206D01*
X106769172Y-128600325D01*
X106865704Y-128648787D01*
X106965139Y-128699280D01*
X107064842Y-128750492D01*
X107162179Y-128801113D01*
X107219750Y-128831396D01*
X107296150Y-128871533D01*
X107356376Y-128902441D01*
X107402806Y-128925084D01*
X107437819Y-128940429D01*
X107463789Y-128949438D01*
X107483096Y-128953078D01*
X107498117Y-128952313D01*
X107509293Y-128948918D01*
X107534343Y-128928590D01*
X107548526Y-128897106D01*
X107547873Y-128863445D01*
X107539412Y-128846388D01*
X107520702Y-128815368D01*
X107493827Y-128773626D01*
X107460873Y-128724399D01*
X107424104Y-128671185D01*
X107303201Y-128492216D01*
X107197864Y-128321521D01*
X107106190Y-128155423D01*
X107026275Y-127990244D01*
X106956216Y-127822306D01*
X106894109Y-127647933D01*
X106893338Y-127645583D01*
X106852587Y-127503850D01*
X106820509Y-127355474D01*
X106797116Y-127203266D01*
X106782423Y-127050038D01*
X106776442Y-126898601D01*
X106779187Y-126751765D01*
X106790670Y-126612343D01*
X106810905Y-126483145D01*
X106839904Y-126366982D01*
X106877682Y-126266666D01*
X106886814Y-126247711D01*
X106922835Y-126185972D01*
X106961271Y-126142760D01*
X107006250Y-126115507D01*
X107061901Y-126101644D01*
X107126519Y-126098512D01*
X107199056Y-126109506D01*
X107271012Y-126140994D01*
X107342934Y-126193252D01*
X107372680Y-126220881D01*
X107446792Y-126303009D01*
X107509179Y-126390418D01*
X107558179Y-126479864D01*
X107592127Y-126568102D01*
X107609361Y-126651888D01*
X107611219Y-126686236D01*
X107610243Y-126721079D01*
X107604916Y-126745616D01*
X107591876Y-126768063D01*
X107567763Y-126796635D01*
X107564616Y-126800142D01*
X107526943Y-126851781D01*
X107509646Y-126900949D01*
X107512316Y-126949174D01*
X107519308Y-126969552D01*
X107548889Y-127017519D01*
X107589746Y-127047754D01*
X107640986Y-127060906D01*
X107681044Y-127061203D01*
X107716734Y-127051991D01*
X107753921Y-127030856D01*
X107796879Y-126996760D01*
X107848532Y-126938646D01*
X107885567Y-126867489D01*
X107907993Y-126785546D01*
X107915817Y-126695077D01*
X107909045Y-126598340D01*
X107887686Y-126497594D01*
X107851746Y-126395098D01*
X107801233Y-126293110D01*
X107794554Y-126281624D01*
X107709511Y-126151523D01*
X107619876Y-126041665D01*
X107525081Y-125951509D01*
X107424560Y-125880516D01*
X107317745Y-125828148D01*
X107317080Y-125827888D01*
X107283312Y-125815632D01*
X107252778Y-125807583D01*
X107219392Y-125802884D01*
X107177072Y-125800684D01*
X107119731Y-125800129D01*
X107119209Y-125800129D01*
X107060955Y-125800709D01*
G37*
X107060955Y-125800709D02*
X107017429Y-125803058D01*
X106982212Y-125808058D01*
X106948883Y-125816588D01*
X106914792Y-125828157D01*
X106826640Y-125868485D01*
X106751680Y-125921809D01*
X106687016Y-125990677D01*
X106629750Y-126077635D01*
X106628480Y-126079897D01*
X106582510Y-126176990D01*
X106549898Y-126281310D01*
X106529892Y-126396219D01*
X106521742Y-126525077D01*
X106521468Y-126559076D01*
X106528677Y-126759682D01*
X106550080Y-126958607D01*
X106586290Y-127158711D01*
X106637917Y-127362857D01*
X106705574Y-127573905D01*
X106780921Y-127772720D01*
X106825572Y-127879051D01*
X106874776Y-127989036D01*
X106926571Y-128098727D01*
X106978998Y-128204178D01*
X107030094Y-128301441D01*
X107077900Y-128386570D01*
X107119368Y-128453965D01*
X107130099Y-128472945D01*
X107131635Y-128481612D01*
X107131280Y-128481666D01*
X107120918Y-128475427D01*
X107098008Y-128458614D01*
X107066360Y-128434087D01*
X107042750Y-128415236D01*
X106899946Y-128305207D01*
X106758645Y-128206582D01*
X106621047Y-128120679D01*
X106489350Y-128048813D01*
X106365755Y-127992299D01*
X106286971Y-127963149D01*
X106159795Y-127924259D01*
X106048053Y-127896834D01*
X105949576Y-127880583D01*
X105862199Y-127875215D01*
X105783751Y-127880438D01*
X105737008Y-127889257D01*
X105671153Y-127913546D01*
X105604480Y-127953201D01*
X105540261Y-128004725D01*
X105481768Y-128064619D01*
X105432272Y-128129386D01*
X105395044Y-128195527D01*
X105373355Y-128259544D01*
X105369944Y-128281779D01*
X105373606Y-128346864D01*
X105395479Y-128406881D01*
X105432700Y-128458732D01*
X105482407Y-128499322D01*
X105541735Y-128525553D01*
X105603486Y-128534350D01*
X105665912Y-128527189D01*
X105721081Y-128504018D01*
X105771487Y-128463231D01*
X105819622Y-128403218D01*
X105829186Y-128388782D01*
X105852749Y-128357243D01*
X105876915Y-128332756D01*
X105892543Y-128322536D01*
X105925531Y-128317219D01*
X105974769Y-128318796D01*
X106036764Y-128326531D01*
X106108023Y-128339686D01*
X106185054Y-128357523D01*
X106264363Y-128379304D01*
X106342459Y-128404293D01*
X106415848Y-128431752D01*
X106422253Y-128434381D01*
X106464757Y-128453016D01*
X106523335Y-128480240D01*
X106595353Y-128514740D01*
X106678177Y-128555206D01*
X106769172Y-128600325D01*
X106865704Y-128648787D01*
X106965139Y-128699280D01*
X107064842Y-128750492D01*
X107162179Y-128801113D01*
X107219750Y-128831396D01*
X107296150Y-128871533D01*
X107356376Y-128902441D01*
X107402806Y-128925084D01*
X107437819Y-128940429D01*
X107463789Y-128949438D01*
X107483096Y-128953078D01*
X107498117Y-128952313D01*
X107509293Y-128948918D01*
X107534343Y-128928590D01*
X107548526Y-128897106D01*
X107547873Y-128863445D01*
X107539412Y-128846388D01*
X107520702Y-128815368D01*
X107493827Y-128773626D01*
X107460873Y-128724399D01*
X107424104Y-128671185D01*
X107303201Y-128492216D01*
X107197864Y-128321521D01*
X107106190Y-128155423D01*
X107026275Y-127990244D01*
X106956216Y-127822306D01*
X106894109Y-127647933D01*
X106893338Y-127645583D01*
X106852587Y-127503850D01*
X106820509Y-127355474D01*
X106797116Y-127203266D01*
X106782423Y-127050038D01*
X106776442Y-126898601D01*
X106779187Y-126751765D01*
X106790670Y-126612343D01*
X106810905Y-126483145D01*
X106839904Y-126366982D01*
X106877682Y-126266666D01*
X106886814Y-126247711D01*
X106922835Y-126185972D01*
X106961271Y-126142760D01*
X107006250Y-126115507D01*
X107061901Y-126101644D01*
X107126519Y-126098512D01*
X107199056Y-126109506D01*
X107271012Y-126140994D01*
X107342934Y-126193252D01*
X107372680Y-126220881D01*
X107446792Y-126303009D01*
X107509179Y-126390418D01*
X107558179Y-126479864D01*
X107592127Y-126568102D01*
X107609361Y-126651888D01*
X107611219Y-126686236D01*
X107610243Y-126721079D01*
X107604916Y-126745616D01*
X107591876Y-126768063D01*
X107567763Y-126796635D01*
X107564616Y-126800142D01*
X107526943Y-126851781D01*
X107509646Y-126900949D01*
X107512316Y-126949174D01*
X107519308Y-126969552D01*
X107548889Y-127017519D01*
X107589746Y-127047754D01*
X107640986Y-127060906D01*
X107681044Y-127061203D01*
X107716734Y-127051991D01*
X107753921Y-127030856D01*
X107796879Y-126996760D01*
X107848532Y-126938646D01*
X107885567Y-126867489D01*
X107907993Y-126785546D01*
X107915817Y-126695077D01*
X107909045Y-126598340D01*
X107887686Y-126497594D01*
X107851746Y-126395098D01*
X107801233Y-126293110D01*
X107794554Y-126281624D01*
X107709511Y-126151523D01*
X107619876Y-126041665D01*
X107525081Y-125951509D01*
X107424560Y-125880516D01*
X107317745Y-125828148D01*
X107317080Y-125827888D01*
X107283312Y-125815632D01*
X107252778Y-125807583D01*
X107219392Y-125802884D01*
X107177072Y-125800684D01*
X107119731Y-125800129D01*
X107119209Y-125800129D01*
X107060955Y-125800709D01*
G36*
X108090870Y-127360615D02*
G01*
X108043282Y-127376730D01*
X108005401Y-127406417D01*
X107996772Y-127417858D01*
X107986148Y-127437979D01*
X107979081Y-127462338D01*
X107975571Y-127493726D01*
X107975615Y-127534934D01*
X107979211Y-127588752D01*
X107986358Y-127657971D01*
X107996546Y-127741409D01*
X108020739Y-127936481D01*
X108041138Y-128113140D01*
X108057974Y-128273751D01*
X108071477Y-128420684D01*
X108081879Y-128556303D01*
X108089409Y-128682978D01*
X108090544Y-128706448D01*
X108097164Y-128761551D01*
X108113212Y-128802996D01*
X108141929Y-128837367D01*
X108163758Y-128855238D01*
X108201246Y-128872633D01*
X108247890Y-128880012D01*
X108293727Y-128876442D01*
X108315125Y-128869409D01*
X108331084Y-128860950D01*
X108346880Y-128849629D01*
X108364215Y-128833386D01*
X108384791Y-128810160D01*
X108410309Y-128777891D01*
X108442472Y-128734519D01*
X108482980Y-128677984D01*
X108533536Y-128606226D01*
X108539246Y-128598083D01*
X108605643Y-128503077D01*
X108662040Y-128421674D01*
X108710816Y-128350306D01*
X108754349Y-128285405D01*
X108795017Y-128223404D01*
X108835199Y-128160736D01*
X108877274Y-128093832D01*
X108902639Y-128053041D01*
X108946639Y-127981566D01*
X108980298Y-127925252D01*
X109004751Y-127881475D01*
X109021132Y-127847610D01*
X109030576Y-127821031D01*
X109034216Y-127799114D01*
X109033188Y-127779234D01*
X109029083Y-127760450D01*
X109006994Y-127711868D01*
X108972046Y-127674379D01*
X108928703Y-127652485D01*
X108920037Y-127650488D01*
X108885455Y-127646968D01*
X108854057Y-127651396D01*
X108823845Y-127665523D01*
X108792820Y-127691098D01*
X108758986Y-127729870D01*
X108720345Y-127783590D01*
X108674899Y-127854006D01*
X108659782Y-127878416D01*
X108627525Y-127930020D01*
X108592265Y-127985004D01*
X108555875Y-128040608D01*
X108520224Y-128094072D01*
X108487186Y-128142635D01*
X108458631Y-128183537D01*
X108436432Y-128214017D01*
X108422461Y-128231316D01*
X108418599Y-128234125D01*
X108415005Y-128222448D01*
X108409210Y-128195407D01*
X108402265Y-128158554D01*
X108395218Y-128117441D01*
X108389384Y-128079500D01*
X108385034Y-128053601D01*
X108377112Y-128010800D01*
X108366385Y-127954910D01*
X108353616Y-127889745D01*
X108339571Y-127819121D01*
X108325017Y-127746850D01*
X108310718Y-127676749D01*
X108297439Y-127612631D01*
X108285947Y-127558310D01*
X108277005Y-127517601D01*
X108274262Y-127505761D01*
X108257152Y-127449745D01*
X108235230Y-127410324D01*
X108205658Y-127383018D01*
X108191052Y-127374485D01*
X108142137Y-127359418D01*
X108090870Y-127360615D01*
G37*
X108090870Y-127360615D02*
X108043282Y-127376730D01*
X108005401Y-127406417D01*
X107996772Y-127417858D01*
X107986148Y-127437979D01*
X107979081Y-127462338D01*
X107975571Y-127493726D01*
X107975615Y-127534934D01*
X107979211Y-127588752D01*
X107986358Y-127657971D01*
X107996546Y-127741409D01*
X108020739Y-127936481D01*
X108041138Y-128113140D01*
X108057974Y-128273751D01*
X108071477Y-128420684D01*
X108081879Y-128556303D01*
X108089409Y-128682978D01*
X108090544Y-128706448D01*
X108097164Y-128761551D01*
X108113212Y-128802996D01*
X108141929Y-128837367D01*
X108163758Y-128855238D01*
X108201246Y-128872633D01*
X108247890Y-128880012D01*
X108293727Y-128876442D01*
X108315125Y-128869409D01*
X108331084Y-128860950D01*
X108346880Y-128849629D01*
X108364215Y-128833386D01*
X108384791Y-128810160D01*
X108410309Y-128777891D01*
X108442472Y-128734519D01*
X108482980Y-128677984D01*
X108533536Y-128606226D01*
X108539246Y-128598083D01*
X108605643Y-128503077D01*
X108662040Y-128421674D01*
X108710816Y-128350306D01*
X108754349Y-128285405D01*
X108795017Y-128223404D01*
X108835199Y-128160736D01*
X108877274Y-128093832D01*
X108902639Y-128053041D01*
X108946639Y-127981566D01*
X108980298Y-127925252D01*
X109004751Y-127881475D01*
X109021132Y-127847610D01*
X109030576Y-127821031D01*
X109034216Y-127799114D01*
X109033188Y-127779234D01*
X109029083Y-127760450D01*
X109006994Y-127711868D01*
X108972046Y-127674379D01*
X108928703Y-127652485D01*
X108920037Y-127650488D01*
X108885455Y-127646968D01*
X108854057Y-127651396D01*
X108823845Y-127665523D01*
X108792820Y-127691098D01*
X108758986Y-127729870D01*
X108720345Y-127783590D01*
X108674899Y-127854006D01*
X108659782Y-127878416D01*
X108627525Y-127930020D01*
X108592265Y-127985004D01*
X108555875Y-128040608D01*
X108520224Y-128094072D01*
X108487186Y-128142635D01*
X108458631Y-128183537D01*
X108436432Y-128214017D01*
X108422461Y-128231316D01*
X108418599Y-128234125D01*
X108415005Y-128222448D01*
X108409210Y-128195407D01*
X108402265Y-128158554D01*
X108395218Y-128117441D01*
X108389384Y-128079500D01*
X108385034Y-128053601D01*
X108377112Y-128010800D01*
X108366385Y-127954910D01*
X108353616Y-127889745D01*
X108339571Y-127819121D01*
X108325017Y-127746850D01*
X108310718Y-127676749D01*
X108297439Y-127612631D01*
X108285947Y-127558310D01*
X108277005Y-127517601D01*
X108274262Y-127505761D01*
X108257152Y-127449745D01*
X108235230Y-127410324D01*
X108205658Y-127383018D01*
X108191052Y-127374485D01*
X108142137Y-127359418D01*
X108090870Y-127360615D01*
%TD*%
%TO.C,C30*%
G36*
G01*
X131663000Y-126911000D02*
X133513000Y-126911000D01*
G75*
G02*
X133763000Y-127161000I0J-250000D01*
G01*
X133763000Y-128161000D01*
G75*
G02*
X133513000Y-128411000I-250000J0D01*
G01*
X131663000Y-128411000D01*
G75*
G02*
X131413000Y-128161000I0J250000D01*
G01*
X131413000Y-127161000D01*
G75*
G02*
X131663000Y-126911000I250000J0D01*
G01*
G37*
G36*
G01*
X131663000Y-130161000D02*
X133513000Y-130161000D01*
G75*
G02*
X133763000Y-130411000I0J-250000D01*
G01*
X133763000Y-131411000D01*
G75*
G02*
X133513000Y-131661000I-250000J0D01*
G01*
X131663000Y-131661000D01*
G75*
G02*
X131413000Y-131411000I0J250000D01*
G01*
X131413000Y-130411000D01*
G75*
G02*
X131663000Y-130161000I250000J0D01*
G01*
G37*
%TD*%
%TO.C,C29*%
G36*
G01*
X135092000Y-126911000D02*
X136942000Y-126911000D01*
G75*
G02*
X137192000Y-127161000I0J-250000D01*
G01*
X137192000Y-128161000D01*
G75*
G02*
X136942000Y-128411000I-250000J0D01*
G01*
X135092000Y-128411000D01*
G75*
G02*
X134842000Y-128161000I0J250000D01*
G01*
X134842000Y-127161000D01*
G75*
G02*
X135092000Y-126911000I250000J0D01*
G01*
G37*
G36*
G01*
X135092000Y-130161000D02*
X136942000Y-130161000D01*
G75*
G02*
X137192000Y-130411000I0J-250000D01*
G01*
X137192000Y-131411000D01*
G75*
G02*
X136942000Y-131661000I-250000J0D01*
G01*
X135092000Y-131661000D01*
G75*
G02*
X134842000Y-131411000I0J250000D01*
G01*
X134842000Y-130411000D01*
G75*
G02*
X135092000Y-130161000I250000J0D01*
G01*
G37*
%TD*%
%TO.C,C31*%
G36*
G01*
X127475000Y-131165000D02*
X126525000Y-131165000D01*
G75*
G02*
X126275000Y-130915000I0J250000D01*
G01*
X126275000Y-130240000D01*
G75*
G02*
X126525000Y-129990000I250000J0D01*
G01*
X127475000Y-129990000D01*
G75*
G02*
X127725000Y-130240000I0J-250000D01*
G01*
X127725000Y-130915000D01*
G75*
G02*
X127475000Y-131165000I-250000J0D01*
G01*
G37*
G36*
G01*
X127475000Y-129090000D02*
X126525000Y-129090000D01*
G75*
G02*
X126275000Y-128840000I0J250000D01*
G01*
X126275000Y-128165000D01*
G75*
G02*
X126525000Y-127915000I250000J0D01*
G01*
X127475000Y-127915000D01*
G75*
G02*
X127725000Y-128165000I0J-250000D01*
G01*
X127725000Y-128840000D01*
G75*
G02*
X127475000Y-129090000I-250000J0D01*
G01*
G37*
%TD*%
%TO.C,C28*%
G36*
G01*
X130269000Y-131165000D02*
X129319000Y-131165000D01*
G75*
G02*
X129069000Y-130915000I0J250000D01*
G01*
X129069000Y-130240000D01*
G75*
G02*
X129319000Y-129990000I250000J0D01*
G01*
X130269000Y-129990000D01*
G75*
G02*
X130519000Y-130240000I0J-250000D01*
G01*
X130519000Y-130915000D01*
G75*
G02*
X130269000Y-131165000I-250000J0D01*
G01*
G37*
G36*
G01*
X130269000Y-129090000D02*
X129319000Y-129090000D01*
G75*
G02*
X129069000Y-128840000I0J250000D01*
G01*
X129069000Y-128165000D01*
G75*
G02*
X129319000Y-127915000I250000J0D01*
G01*
X130269000Y-127915000D01*
G75*
G02*
X130519000Y-128165000I0J-250000D01*
G01*
X130519000Y-128840000D01*
G75*
G02*
X130269000Y-129090000I-250000J0D01*
G01*
G37*
%TD*%
%TO.C,C21*%
G36*
G01*
X104293000Y-83279000D02*
X104293000Y-82329000D01*
G75*
G02*
X104543000Y-82079000I250000J0D01*
G01*
X105218000Y-82079000D01*
G75*
G02*
X105468000Y-82329000I0J-250000D01*
G01*
X105468000Y-83279000D01*
G75*
G02*
X105218000Y-83529000I-250000J0D01*
G01*
X104543000Y-83529000D01*
G75*
G02*
X104293000Y-83279000I0J250000D01*
G01*
G37*
G36*
G01*
X106368000Y-83279000D02*
X106368000Y-82329000D01*
G75*
G02*
X106618000Y-82079000I250000J0D01*
G01*
X107293000Y-82079000D01*
G75*
G02*
X107543000Y-82329000I0J-250000D01*
G01*
X107543000Y-83279000D01*
G75*
G02*
X107293000Y-83529000I-250000J0D01*
G01*
X106618000Y-83529000D01*
G75*
G02*
X106368000Y-83279000I0J250000D01*
G01*
G37*
%TD*%
%TO.C,C20*%
G36*
G01*
X104293000Y-81247000D02*
X104293000Y-80297000D01*
G75*
G02*
X104543000Y-80047000I250000J0D01*
G01*
X105218000Y-80047000D01*
G75*
G02*
X105468000Y-80297000I0J-250000D01*
G01*
X105468000Y-81247000D01*
G75*
G02*
X105218000Y-81497000I-250000J0D01*
G01*
X104543000Y-81497000D01*
G75*
G02*
X104293000Y-81247000I0J250000D01*
G01*
G37*
G36*
G01*
X106368000Y-81247000D02*
X106368000Y-80297000D01*
G75*
G02*
X106618000Y-80047000I250000J0D01*
G01*
X107293000Y-80047000D01*
G75*
G02*
X107543000Y-80297000I0J-250000D01*
G01*
X107543000Y-81247000D01*
G75*
G02*
X107293000Y-81497000I-250000J0D01*
G01*
X106618000Y-81497000D01*
G75*
G02*
X106368000Y-81247000I0J250000D01*
G01*
G37*
%TD*%
%TO.C,C19*%
G36*
G01*
X102395000Y-82195000D02*
X103345000Y-82195000D01*
G75*
G02*
X103595000Y-82445000I0J-250000D01*
G01*
X103595000Y-83120000D01*
G75*
G02*
X103345000Y-83370000I-250000J0D01*
G01*
X102395000Y-83370000D01*
G75*
G02*
X102145000Y-83120000I0J250000D01*
G01*
X102145000Y-82445000D01*
G75*
G02*
X102395000Y-82195000I250000J0D01*
G01*
G37*
G36*
G01*
X102395000Y-84270000D02*
X103345000Y-84270000D01*
G75*
G02*
X103595000Y-84520000I0J-250000D01*
G01*
X103595000Y-85195000D01*
G75*
G02*
X103345000Y-85445000I-250000J0D01*
G01*
X102395000Y-85445000D01*
G75*
G02*
X102145000Y-85195000I0J250000D01*
G01*
X102145000Y-84520000D01*
G75*
G02*
X102395000Y-84270000I250000J0D01*
G01*
G37*
%TD*%
%TO.C,C18*%
G36*
G01*
X103345000Y-81635000D02*
X102395000Y-81635000D01*
G75*
G02*
X102145000Y-81385000I0J250000D01*
G01*
X102145000Y-80710000D01*
G75*
G02*
X102395000Y-80460000I250000J0D01*
G01*
X103345000Y-80460000D01*
G75*
G02*
X103595000Y-80710000I0J-250000D01*
G01*
X103595000Y-81385000D01*
G75*
G02*
X103345000Y-81635000I-250000J0D01*
G01*
G37*
G36*
G01*
X103345000Y-79560000D02*
X102395000Y-79560000D01*
G75*
G02*
X102145000Y-79310000I0J250000D01*
G01*
X102145000Y-78635000D01*
G75*
G02*
X102395000Y-78385000I250000J0D01*
G01*
X103345000Y-78385000D01*
G75*
G02*
X103595000Y-78635000I0J-250000D01*
G01*
X103595000Y-79310000D01*
G75*
G02*
X103345000Y-79560000I-250000J0D01*
G01*
G37*
%TD*%
%TO.C,C14*%
G36*
G01*
X159613000Y-114587000D02*
X159613000Y-115537000D01*
G75*
G02*
X159363000Y-115787000I-250000J0D01*
G01*
X158688000Y-115787000D01*
G75*
G02*
X158438000Y-115537000I0J250000D01*
G01*
X158438000Y-114587000D01*
G75*
G02*
X158688000Y-114337000I250000J0D01*
G01*
X159363000Y-114337000D01*
G75*
G02*
X159613000Y-114587000I0J-250000D01*
G01*
G37*
G36*
G01*
X157538000Y-114587000D02*
X157538000Y-115537000D01*
G75*
G02*
X157288000Y-115787000I-250000J0D01*
G01*
X156613000Y-115787000D01*
G75*
G02*
X156363000Y-115537000I0J250000D01*
G01*
X156363000Y-114587000D01*
G75*
G02*
X156613000Y-114337000I250000J0D01*
G01*
X157288000Y-114337000D01*
G75*
G02*
X157538000Y-114587000I0J-250000D01*
G01*
G37*
%TD*%
%TO.C,C32*%
G36*
G01*
X151485000Y-126017000D02*
X151485000Y-126967000D01*
G75*
G02*
X151235000Y-127217000I-250000J0D01*
G01*
X150560000Y-127217000D01*
G75*
G02*
X150310000Y-126967000I0J250000D01*
G01*
X150310000Y-126017000D01*
G75*
G02*
X150560000Y-125767000I250000J0D01*
G01*
X151235000Y-125767000D01*
G75*
G02*
X151485000Y-126017000I0J-250000D01*
G01*
G37*
G36*
G01*
X149410000Y-126017000D02*
X149410000Y-126967000D01*
G75*
G02*
X149160000Y-127217000I-250000J0D01*
G01*
X148485000Y-127217000D01*
G75*
G02*
X148235000Y-126967000I0J250000D01*
G01*
X148235000Y-126017000D01*
G75*
G02*
X148485000Y-125767000I250000J0D01*
G01*
X149160000Y-125767000D01*
G75*
G02*
X149410000Y-126017000I0J-250000D01*
G01*
G37*
%TD*%
%TO.C,C9*%
G36*
G01*
X124173000Y-90779000D02*
X123223000Y-90779000D01*
G75*
G02*
X122973000Y-90529000I0J250000D01*
G01*
X122973000Y-89854000D01*
G75*
G02*
X123223000Y-89604000I250000J0D01*
G01*
X124173000Y-89604000D01*
G75*
G02*
X124423000Y-89854000I0J-250000D01*
G01*
X124423000Y-90529000D01*
G75*
G02*
X124173000Y-90779000I-250000J0D01*
G01*
G37*
G36*
G01*
X124173000Y-88704000D02*
X123223000Y-88704000D01*
G75*
G02*
X122973000Y-88454000I0J250000D01*
G01*
X122973000Y-87779000D01*
G75*
G02*
X123223000Y-87529000I250000J0D01*
G01*
X124173000Y-87529000D01*
G75*
G02*
X124423000Y-87779000I0J-250000D01*
G01*
X124423000Y-88454000D01*
G75*
G02*
X124173000Y-88704000I-250000J0D01*
G01*
G37*
%TD*%
%TO.C,C27*%
G36*
G01*
X188501000Y-133503000D02*
X189451000Y-133503000D01*
G75*
G02*
X189701000Y-133753000I0J-250000D01*
G01*
X189701000Y-134428000D01*
G75*
G02*
X189451000Y-134678000I-250000J0D01*
G01*
X188501000Y-134678000D01*
G75*
G02*
X188251000Y-134428000I0J250000D01*
G01*
X188251000Y-133753000D01*
G75*
G02*
X188501000Y-133503000I250000J0D01*
G01*
G37*
G36*
G01*
X188501000Y-135578000D02*
X189451000Y-135578000D01*
G75*
G02*
X189701000Y-135828000I0J-250000D01*
G01*
X189701000Y-136503000D01*
G75*
G02*
X189451000Y-136753000I-250000J0D01*
G01*
X188501000Y-136753000D01*
G75*
G02*
X188251000Y-136503000I0J250000D01*
G01*
X188251000Y-135828000D01*
G75*
G02*
X188501000Y-135578000I250000J0D01*
G01*
G37*
%TD*%
%TO.C,C26*%
G36*
G01*
X161069000Y-133503000D02*
X162019000Y-133503000D01*
G75*
G02*
X162269000Y-133753000I0J-250000D01*
G01*
X162269000Y-134428000D01*
G75*
G02*
X162019000Y-134678000I-250000J0D01*
G01*
X161069000Y-134678000D01*
G75*
G02*
X160819000Y-134428000I0J250000D01*
G01*
X160819000Y-133753000D01*
G75*
G02*
X161069000Y-133503000I250000J0D01*
G01*
G37*
G36*
G01*
X161069000Y-135578000D02*
X162019000Y-135578000D01*
G75*
G02*
X162269000Y-135828000I0J-250000D01*
G01*
X162269000Y-136503000D01*
G75*
G02*
X162019000Y-136753000I-250000J0D01*
G01*
X161069000Y-136753000D01*
G75*
G02*
X160819000Y-136503000I0J250000D01*
G01*
X160819000Y-135828000D01*
G75*
G02*
X161069000Y-135578000I250000J0D01*
G01*
G37*
%TD*%
%TO.C,C25*%
G36*
G01*
X193395000Y-113825000D02*
X193395000Y-114775000D01*
G75*
G02*
X193145000Y-115025000I-250000J0D01*
G01*
X192470000Y-115025000D01*
G75*
G02*
X192220000Y-114775000I0J250000D01*
G01*
X192220000Y-113825000D01*
G75*
G02*
X192470000Y-113575000I250000J0D01*
G01*
X193145000Y-113575000D01*
G75*
G02*
X193395000Y-113825000I0J-250000D01*
G01*
G37*
G36*
G01*
X191320000Y-113825000D02*
X191320000Y-114775000D01*
G75*
G02*
X191070000Y-115025000I-250000J0D01*
G01*
X190395000Y-115025000D01*
G75*
G02*
X190145000Y-114775000I0J250000D01*
G01*
X190145000Y-113825000D01*
G75*
G02*
X190395000Y-113575000I250000J0D01*
G01*
X191070000Y-113575000D01*
G75*
G02*
X191320000Y-113825000I0J-250000D01*
G01*
G37*
%TD*%
%TO.C,C7*%
G36*
G01*
X188113000Y-81755000D02*
X188113000Y-80805000D01*
G75*
G02*
X188363000Y-80555000I250000J0D01*
G01*
X189038000Y-80555000D01*
G75*
G02*
X189288000Y-80805000I0J-250000D01*
G01*
X189288000Y-81755000D01*
G75*
G02*
X189038000Y-82005000I-250000J0D01*
G01*
X188363000Y-82005000D01*
G75*
G02*
X188113000Y-81755000I0J250000D01*
G01*
G37*
G36*
G01*
X190188000Y-81755000D02*
X190188000Y-80805000D01*
G75*
G02*
X190438000Y-80555000I250000J0D01*
G01*
X191113000Y-80555000D01*
G75*
G02*
X191363000Y-80805000I0J-250000D01*
G01*
X191363000Y-81755000D01*
G75*
G02*
X191113000Y-82005000I-250000J0D01*
G01*
X190438000Y-82005000D01*
G75*
G02*
X190188000Y-81755000I0J250000D01*
G01*
G37*
%TD*%
%TO.C,C6*%
G36*
G01*
X171603000Y-93185000D02*
X171603000Y-92235000D01*
G75*
G02*
X171853000Y-91985000I250000J0D01*
G01*
X172528000Y-91985000D01*
G75*
G02*
X172778000Y-92235000I0J-250000D01*
G01*
X172778000Y-93185000D01*
G75*
G02*
X172528000Y-93435000I-250000J0D01*
G01*
X171853000Y-93435000D01*
G75*
G02*
X171603000Y-93185000I0J250000D01*
G01*
G37*
G36*
G01*
X173678000Y-93185000D02*
X173678000Y-92235000D01*
G75*
G02*
X173928000Y-91985000I250000J0D01*
G01*
X174603000Y-91985000D01*
G75*
G02*
X174853000Y-92235000I0J-250000D01*
G01*
X174853000Y-93185000D01*
G75*
G02*
X174603000Y-93435000I-250000J0D01*
G01*
X173928000Y-93435000D01*
G75*
G02*
X173678000Y-93185000I0J250000D01*
G01*
G37*
%TD*%
%TO.C,C24*%
G36*
G01*
X158529000Y-106325000D02*
X159479000Y-106325000D01*
G75*
G02*
X159729000Y-106575000I0J-250000D01*
G01*
X159729000Y-107250000D01*
G75*
G02*
X159479000Y-107500000I-250000J0D01*
G01*
X158529000Y-107500000D01*
G75*
G02*
X158279000Y-107250000I0J250000D01*
G01*
X158279000Y-106575000D01*
G75*
G02*
X158529000Y-106325000I250000J0D01*
G01*
G37*
G36*
G01*
X158529000Y-108400000D02*
X159479000Y-108400000D01*
G75*
G02*
X159729000Y-108650000I0J-250000D01*
G01*
X159729000Y-109325000D01*
G75*
G02*
X159479000Y-109575000I-250000J0D01*
G01*
X158529000Y-109575000D01*
G75*
G02*
X158279000Y-109325000I0J250000D01*
G01*
X158279000Y-108650000D01*
G75*
G02*
X158529000Y-108400000I250000J0D01*
G01*
G37*
%TD*%
%TO.C,C23*%
G36*
G01*
X150909000Y-107341000D02*
X151859000Y-107341000D01*
G75*
G02*
X152109000Y-107591000I0J-250000D01*
G01*
X152109000Y-108266000D01*
G75*
G02*
X151859000Y-108516000I-250000J0D01*
G01*
X150909000Y-108516000D01*
G75*
G02*
X150659000Y-108266000I0J250000D01*
G01*
X150659000Y-107591000D01*
G75*
G02*
X150909000Y-107341000I250000J0D01*
G01*
G37*
G36*
G01*
X150909000Y-109416000D02*
X151859000Y-109416000D01*
G75*
G02*
X152109000Y-109666000I0J-250000D01*
G01*
X152109000Y-110341000D01*
G75*
G02*
X151859000Y-110591000I-250000J0D01*
G01*
X150909000Y-110591000D01*
G75*
G02*
X150659000Y-110341000I0J250000D01*
G01*
X150659000Y-109666000D01*
G75*
G02*
X150909000Y-109416000I250000J0D01*
G01*
G37*
%TD*%
%TO.C,C22*%
G36*
G01*
X140241000Y-109627000D02*
X141191000Y-109627000D01*
G75*
G02*
X141441000Y-109877000I0J-250000D01*
G01*
X141441000Y-110552000D01*
G75*
G02*
X141191000Y-110802000I-250000J0D01*
G01*
X140241000Y-110802000D01*
G75*
G02*
X139991000Y-110552000I0J250000D01*
G01*
X139991000Y-109877000D01*
G75*
G02*
X140241000Y-109627000I250000J0D01*
G01*
G37*
G36*
G01*
X140241000Y-111702000D02*
X141191000Y-111702000D01*
G75*
G02*
X141441000Y-111952000I0J-250000D01*
G01*
X141441000Y-112627000D01*
G75*
G02*
X141191000Y-112877000I-250000J0D01*
G01*
X140241000Y-112877000D01*
G75*
G02*
X139991000Y-112627000I0J250000D01*
G01*
X139991000Y-111952000D01*
G75*
G02*
X140241000Y-111702000I250000J0D01*
G01*
G37*
%TD*%
%TO.C,C17*%
G36*
G01*
X160427000Y-126967000D02*
X160427000Y-126017000D01*
G75*
G02*
X160677000Y-125767000I250000J0D01*
G01*
X161352000Y-125767000D01*
G75*
G02*
X161602000Y-126017000I0J-250000D01*
G01*
X161602000Y-126967000D01*
G75*
G02*
X161352000Y-127217000I-250000J0D01*
G01*
X160677000Y-127217000D01*
G75*
G02*
X160427000Y-126967000I0J250000D01*
G01*
G37*
G36*
G01*
X162502000Y-126967000D02*
X162502000Y-126017000D01*
G75*
G02*
X162752000Y-125767000I250000J0D01*
G01*
X163427000Y-125767000D01*
G75*
G02*
X163677000Y-126017000I0J-250000D01*
G01*
X163677000Y-126967000D01*
G75*
G02*
X163427000Y-127217000I-250000J0D01*
G01*
X162752000Y-127217000D01*
G75*
G02*
X162502000Y-126967000I0J250000D01*
G01*
G37*
%TD*%
%TO.C,C16*%
G36*
G01*
X143162000Y-119025000D02*
X144112000Y-119025000D01*
G75*
G02*
X144362000Y-119275000I0J-250000D01*
G01*
X144362000Y-119950000D01*
G75*
G02*
X144112000Y-120200000I-250000J0D01*
G01*
X143162000Y-120200000D01*
G75*
G02*
X142912000Y-119950000I0J250000D01*
G01*
X142912000Y-119275000D01*
G75*
G02*
X143162000Y-119025000I250000J0D01*
G01*
G37*
G36*
G01*
X143162000Y-121100000D02*
X144112000Y-121100000D01*
G75*
G02*
X144362000Y-121350000I0J-250000D01*
G01*
X144362000Y-122025000D01*
G75*
G02*
X144112000Y-122275000I-250000J0D01*
G01*
X143162000Y-122275000D01*
G75*
G02*
X142912000Y-122025000I0J250000D01*
G01*
X142912000Y-121350000D01*
G75*
G02*
X143162000Y-121100000I250000J0D01*
G01*
G37*
%TD*%
%TO.C,C15*%
G36*
G01*
X147421000Y-126017000D02*
X147421000Y-126967000D01*
G75*
G02*
X147171000Y-127217000I-250000J0D01*
G01*
X146496000Y-127217000D01*
G75*
G02*
X146246000Y-126967000I0J250000D01*
G01*
X146246000Y-126017000D01*
G75*
G02*
X146496000Y-125767000I250000J0D01*
G01*
X147171000Y-125767000D01*
G75*
G02*
X147421000Y-126017000I0J-250000D01*
G01*
G37*
G36*
G01*
X145346000Y-126017000D02*
X145346000Y-126967000D01*
G75*
G02*
X145096000Y-127217000I-250000J0D01*
G01*
X144421000Y-127217000D01*
G75*
G02*
X144171000Y-126967000I0J250000D01*
G01*
X144171000Y-126017000D01*
G75*
G02*
X144421000Y-125767000I250000J0D01*
G01*
X145096000Y-125767000D01*
G75*
G02*
X145346000Y-126017000I0J-250000D01*
G01*
G37*
%TD*%
%TO.C,C11*%
G36*
G01*
X152941000Y-107341000D02*
X153891000Y-107341000D01*
G75*
G02*
X154141000Y-107591000I0J-250000D01*
G01*
X154141000Y-108266000D01*
G75*
G02*
X153891000Y-108516000I-250000J0D01*
G01*
X152941000Y-108516000D01*
G75*
G02*
X152691000Y-108266000I0J250000D01*
G01*
X152691000Y-107591000D01*
G75*
G02*
X152941000Y-107341000I250000J0D01*
G01*
G37*
G36*
G01*
X152941000Y-109416000D02*
X153891000Y-109416000D01*
G75*
G02*
X154141000Y-109666000I0J-250000D01*
G01*
X154141000Y-110341000D01*
G75*
G02*
X153891000Y-110591000I-250000J0D01*
G01*
X152941000Y-110591000D01*
G75*
G02*
X152691000Y-110341000I0J250000D01*
G01*
X152691000Y-109666000D01*
G75*
G02*
X152941000Y-109416000I250000J0D01*
G01*
G37*
%TD*%
%TO.C,C8*%
G36*
G01*
X192177000Y-81755000D02*
X192177000Y-80805000D01*
G75*
G02*
X192427000Y-80555000I250000J0D01*
G01*
X193102000Y-80555000D01*
G75*
G02*
X193352000Y-80805000I0J-250000D01*
G01*
X193352000Y-81755000D01*
G75*
G02*
X193102000Y-82005000I-250000J0D01*
G01*
X192427000Y-82005000D01*
G75*
G02*
X192177000Y-81755000I0J250000D01*
G01*
G37*
G36*
G01*
X194252000Y-81755000D02*
X194252000Y-80805000D01*
G75*
G02*
X194502000Y-80555000I250000J0D01*
G01*
X195177000Y-80555000D01*
G75*
G02*
X195427000Y-80805000I0J-250000D01*
G01*
X195427000Y-81755000D01*
G75*
G02*
X195177000Y-82005000I-250000J0D01*
G01*
X194502000Y-82005000D01*
G75*
G02*
X194252000Y-81755000I0J250000D01*
G01*
G37*
%TD*%
%TO.C,C5*%
G36*
G01*
X193141000Y-48039000D02*
X193141000Y-48989000D01*
G75*
G02*
X192891000Y-49239000I-250000J0D01*
G01*
X192216000Y-49239000D01*
G75*
G02*
X191966000Y-48989000I0J250000D01*
G01*
X191966000Y-48039000D01*
G75*
G02*
X192216000Y-47789000I250000J0D01*
G01*
X192891000Y-47789000D01*
G75*
G02*
X193141000Y-48039000I0J-250000D01*
G01*
G37*
G36*
G01*
X191066000Y-48039000D02*
X191066000Y-48989000D01*
G75*
G02*
X190816000Y-49239000I-250000J0D01*
G01*
X190141000Y-49239000D01*
G75*
G02*
X189891000Y-48989000I0J250000D01*
G01*
X189891000Y-48039000D01*
G75*
G02*
X190141000Y-47789000I250000J0D01*
G01*
X190816000Y-47789000D01*
G75*
G02*
X191066000Y-48039000I0J-250000D01*
G01*
G37*
%TD*%
%TO.C,C4*%
G36*
G01*
X126847000Y-43975000D02*
X126847000Y-44925000D01*
G75*
G02*
X126597000Y-45175000I-250000J0D01*
G01*
X125922000Y-45175000D01*
G75*
G02*
X125672000Y-44925000I0J250000D01*
G01*
X125672000Y-43975000D01*
G75*
G02*
X125922000Y-43725000I250000J0D01*
G01*
X126597000Y-43725000D01*
G75*
G02*
X126847000Y-43975000I0J-250000D01*
G01*
G37*
G36*
G01*
X124772000Y-43975000D02*
X124772000Y-44925000D01*
G75*
G02*
X124522000Y-45175000I-250000J0D01*
G01*
X123847000Y-45175000D01*
G75*
G02*
X123597000Y-44925000I0J250000D01*
G01*
X123597000Y-43975000D01*
G75*
G02*
X123847000Y-43725000I250000J0D01*
G01*
X124522000Y-43725000D01*
G75*
G02*
X124772000Y-43975000I0J-250000D01*
G01*
G37*
%TD*%
%TO.C,C2*%
G36*
G01*
X150655000Y-94133000D02*
X151605000Y-94133000D01*
G75*
G02*
X151855000Y-94383000I0J-250000D01*
G01*
X151855000Y-95058000D01*
G75*
G02*
X151605000Y-95308000I-250000J0D01*
G01*
X150655000Y-95308000D01*
G75*
G02*
X150405000Y-95058000I0J250000D01*
G01*
X150405000Y-94383000D01*
G75*
G02*
X150655000Y-94133000I250000J0D01*
G01*
G37*
G36*
G01*
X150655000Y-96208000D02*
X151605000Y-96208000D01*
G75*
G02*
X151855000Y-96458000I0J-250000D01*
G01*
X151855000Y-97133000D01*
G75*
G02*
X151605000Y-97383000I-250000J0D01*
G01*
X150655000Y-97383000D01*
G75*
G02*
X150405000Y-97133000I0J250000D01*
G01*
X150405000Y-96458000D01*
G75*
G02*
X150655000Y-96208000I250000J0D01*
G01*
G37*
%TD*%
%TO.C,C1*%
G36*
G01*
X130650000Y-58775000D02*
X129700000Y-58775000D01*
G75*
G02*
X129450000Y-58525000I0J250000D01*
G01*
X129450000Y-57850000D01*
G75*
G02*
X129700000Y-57600000I250000J0D01*
G01*
X130650000Y-57600000D01*
G75*
G02*
X130900000Y-57850000I0J-250000D01*
G01*
X130900000Y-58525000D01*
G75*
G02*
X130650000Y-58775000I-250000J0D01*
G01*
G37*
G36*
G01*
X130650000Y-56700000D02*
X129700000Y-56700000D01*
G75*
G02*
X129450000Y-56450000I0J250000D01*
G01*
X129450000Y-55775000D01*
G75*
G02*
X129700000Y-55525000I250000J0D01*
G01*
X130650000Y-55525000D01*
G75*
G02*
X130900000Y-55775000I0J-250000D01*
G01*
X130900000Y-56450000D01*
G75*
G02*
X130650000Y-56700000I-250000J0D01*
G01*
G37*
%TD*%
D13*
%TO.C,J4*%
X101092000Y-52324000D03*
D14*
X103632000Y-52324000D03*
D13*
X101092000Y-49784000D03*
D15*
X103632000Y-49784000D03*
%TD*%
%TO.C,D1*%
X108966000Y-61976000D03*
D16*
X108966000Y-51816000D03*
%TD*%
D17*
%TO.C,C13*%
X101918000Y-66294000D03*
D18*
X103918000Y-66294000D03*
%TD*%
D17*
%TO.C,C12*%
X107474000Y-66294000D03*
D18*
X109474000Y-66294000D03*
%TD*%
D19*
%TO.C,D2*%
X104140000Y-71628000D03*
D20*
X101600000Y-71628000D03*
%TD*%
D21*
%TO.C,SW2*%
X104140000Y-105410000D03*
D22*
X101600000Y-105410000D03*
%TD*%
%TO.C,R36*%
G36*
G01*
X123894001Y-134728000D02*
X122993999Y-134728000D01*
G75*
G02*
X122744000Y-134478001I0J249999D01*
G01*
X122744000Y-133777999D01*
G75*
G02*
X122993999Y-133528000I249999J0D01*
G01*
X123894001Y-133528000D01*
G75*
G02*
X124144000Y-133777999I0J-249999D01*
G01*
X124144000Y-134478001D01*
G75*
G02*
X123894001Y-134728000I-249999J0D01*
G01*
G37*
G36*
G01*
X123894001Y-136728000D02*
X122993999Y-136728000D01*
G75*
G02*
X122744000Y-136478001I0J249999D01*
G01*
X122744000Y-135777999D01*
G75*
G02*
X122993999Y-135528000I249999J0D01*
G01*
X123894001Y-135528000D01*
G75*
G02*
X124144000Y-135777999I0J-249999D01*
G01*
X124144000Y-136478001D01*
G75*
G02*
X123894001Y-136728000I-249999J0D01*
G01*
G37*
%TD*%
%TO.C,R35*%
G36*
G01*
X121608001Y-134728000D02*
X120707999Y-134728000D01*
G75*
G02*
X120458000Y-134478001I0J249999D01*
G01*
X120458000Y-133777999D01*
G75*
G02*
X120707999Y-133528000I249999J0D01*
G01*
X121608001Y-133528000D01*
G75*
G02*
X121858000Y-133777999I0J-249999D01*
G01*
X121858000Y-134478001D01*
G75*
G02*
X121608001Y-134728000I-249999J0D01*
G01*
G37*
G36*
G01*
X121608001Y-136728000D02*
X120707999Y-136728000D01*
G75*
G02*
X120458000Y-136478001I0J249999D01*
G01*
X120458000Y-135777999D01*
G75*
G02*
X120707999Y-135528000I249999J0D01*
G01*
X121608001Y-135528000D01*
G75*
G02*
X121858000Y-135777999I0J-249999D01*
G01*
X121858000Y-136478001D01*
G75*
G02*
X121608001Y-136728000I-249999J0D01*
G01*
G37*
%TD*%
%TO.C,R34*%
G36*
G01*
X119322001Y-134728000D02*
X118421999Y-134728000D01*
G75*
G02*
X118172000Y-134478001I0J249999D01*
G01*
X118172000Y-133777999D01*
G75*
G02*
X118421999Y-133528000I249999J0D01*
G01*
X119322001Y-133528000D01*
G75*
G02*
X119572000Y-133777999I0J-249999D01*
G01*
X119572000Y-134478001D01*
G75*
G02*
X119322001Y-134728000I-249999J0D01*
G01*
G37*
G36*
G01*
X119322001Y-136728000D02*
X118421999Y-136728000D01*
G75*
G02*
X118172000Y-136478001I0J249999D01*
G01*
X118172000Y-135777999D01*
G75*
G02*
X118421999Y-135528000I249999J0D01*
G01*
X119322001Y-135528000D01*
G75*
G02*
X119572000Y-135777999I0J-249999D01*
G01*
X119572000Y-136478001D01*
G75*
G02*
X119322001Y-136728000I-249999J0D01*
G01*
G37*
%TD*%
%TO.C,R33*%
G36*
G01*
X117036001Y-134728000D02*
X116135999Y-134728000D01*
G75*
G02*
X115886000Y-134478001I0J249999D01*
G01*
X115886000Y-133777999D01*
G75*
G02*
X116135999Y-133528000I249999J0D01*
G01*
X117036001Y-133528000D01*
G75*
G02*
X117286000Y-133777999I0J-249999D01*
G01*
X117286000Y-134478001D01*
G75*
G02*
X117036001Y-134728000I-249999J0D01*
G01*
G37*
G36*
G01*
X117036001Y-136728000D02*
X116135999Y-136728000D01*
G75*
G02*
X115886000Y-136478001I0J249999D01*
G01*
X115886000Y-135777999D01*
G75*
G02*
X116135999Y-135528000I249999J0D01*
G01*
X117036001Y-135528000D01*
G75*
G02*
X117286000Y-135777999I0J-249999D01*
G01*
X117286000Y-136478001D01*
G75*
G02*
X117036001Y-136728000I-249999J0D01*
G01*
G37*
%TD*%
%TO.C,R32*%
G36*
G01*
X114750001Y-134728000D02*
X113849999Y-134728000D01*
G75*
G02*
X113600000Y-134478001I0J249999D01*
G01*
X113600000Y-133777999D01*
G75*
G02*
X113849999Y-133528000I249999J0D01*
G01*
X114750001Y-133528000D01*
G75*
G02*
X115000000Y-133777999I0J-249999D01*
G01*
X115000000Y-134478001D01*
G75*
G02*
X114750001Y-134728000I-249999J0D01*
G01*
G37*
G36*
G01*
X114750001Y-136728000D02*
X113849999Y-136728000D01*
G75*
G02*
X113600000Y-136478001I0J249999D01*
G01*
X113600000Y-135777999D01*
G75*
G02*
X113849999Y-135528000I249999J0D01*
G01*
X114750001Y-135528000D01*
G75*
G02*
X115000000Y-135777999I0J-249999D01*
G01*
X115000000Y-136478001D01*
G75*
G02*
X114750001Y-136728000I-249999J0D01*
G01*
G37*
%TD*%
%TO.C,R31*%
G36*
G01*
X112464001Y-134728000D02*
X111563999Y-134728000D01*
G75*
G02*
X111314000Y-134478001I0J249999D01*
G01*
X111314000Y-133777999D01*
G75*
G02*
X111563999Y-133528000I249999J0D01*
G01*
X112464001Y-133528000D01*
G75*
G02*
X112714000Y-133777999I0J-249999D01*
G01*
X112714000Y-134478001D01*
G75*
G02*
X112464001Y-134728000I-249999J0D01*
G01*
G37*
G36*
G01*
X112464001Y-136728000D02*
X111563999Y-136728000D01*
G75*
G02*
X111314000Y-136478001I0J249999D01*
G01*
X111314000Y-135777999D01*
G75*
G02*
X111563999Y-135528000I249999J0D01*
G01*
X112464001Y-135528000D01*
G75*
G02*
X112714000Y-135777999I0J-249999D01*
G01*
X112714000Y-136478001D01*
G75*
G02*
X112464001Y-136728000I-249999J0D01*
G01*
G37*
%TD*%
%TO.C,R30*%
G36*
G01*
X110178001Y-134728000D02*
X109277999Y-134728000D01*
G75*
G02*
X109028000Y-134478001I0J249999D01*
G01*
X109028000Y-133777999D01*
G75*
G02*
X109277999Y-133528000I249999J0D01*
G01*
X110178001Y-133528000D01*
G75*
G02*
X110428000Y-133777999I0J-249999D01*
G01*
X110428000Y-134478001D01*
G75*
G02*
X110178001Y-134728000I-249999J0D01*
G01*
G37*
G36*
G01*
X110178001Y-136728000D02*
X109277999Y-136728000D01*
G75*
G02*
X109028000Y-136478001I0J249999D01*
G01*
X109028000Y-135777999D01*
G75*
G02*
X109277999Y-135528000I249999J0D01*
G01*
X110178001Y-135528000D01*
G75*
G02*
X110428000Y-135777999I0J-249999D01*
G01*
X110428000Y-136478001D01*
G75*
G02*
X110178001Y-136728000I-249999J0D01*
G01*
G37*
%TD*%
%TO.C,R29*%
G36*
G01*
X107892001Y-134728000D02*
X106991999Y-134728000D01*
G75*
G02*
X106742000Y-134478001I0J249999D01*
G01*
X106742000Y-133777999D01*
G75*
G02*
X106991999Y-133528000I249999J0D01*
G01*
X107892001Y-133528000D01*
G75*
G02*
X108142000Y-133777999I0J-249999D01*
G01*
X108142000Y-134478001D01*
G75*
G02*
X107892001Y-134728000I-249999J0D01*
G01*
G37*
G36*
G01*
X107892001Y-136728000D02*
X106991999Y-136728000D01*
G75*
G02*
X106742000Y-136478001I0J249999D01*
G01*
X106742000Y-135777999D01*
G75*
G02*
X106991999Y-135528000I249999J0D01*
G01*
X107892001Y-135528000D01*
G75*
G02*
X108142000Y-135777999I0J-249999D01*
G01*
X108142000Y-136478001D01*
G75*
G02*
X107892001Y-136728000I-249999J0D01*
G01*
G37*
%TD*%
%TO.C,R23*%
G36*
G01*
X158642000Y-126942001D02*
X158642000Y-126041999D01*
G75*
G02*
X158891999Y-125792000I249999J0D01*
G01*
X159592001Y-125792000D01*
G75*
G02*
X159842000Y-126041999I0J-249999D01*
G01*
X159842000Y-126942001D01*
G75*
G02*
X159592001Y-127192000I-249999J0D01*
G01*
X158891999Y-127192000D01*
G75*
G02*
X158642000Y-126942001I0J249999D01*
G01*
G37*
G36*
G01*
X156642000Y-126942001D02*
X156642000Y-126041999D01*
G75*
G02*
X156891999Y-125792000I249999J0D01*
G01*
X157592001Y-125792000D01*
G75*
G02*
X157842000Y-126041999I0J-249999D01*
G01*
X157842000Y-126942001D01*
G75*
G02*
X157592001Y-127192000I-249999J0D01*
G01*
X156891999Y-127192000D01*
G75*
G02*
X156642000Y-126942001I0J249999D01*
G01*
G37*
%TD*%
D23*
%TO.C,SW1*%
X106172000Y-98448000D03*
X101672000Y-98448000D03*
X106172000Y-91948000D03*
X101672000Y-91948000D03*
%TD*%
D18*
%TO.C,U5*%
X113030000Y-44450000D03*
D24*
X128270000Y-82550000D03*
X113030000Y-46990000D03*
X128270000Y-80010000D03*
X113030000Y-49530000D03*
X128270000Y-77470000D03*
X113030000Y-52070000D03*
X128270000Y-74930000D03*
X113030000Y-54610000D03*
X128270000Y-72390000D03*
X113030000Y-57150000D03*
X128270000Y-69850000D03*
X113030000Y-59690000D03*
X128270000Y-67310000D03*
X113030000Y-62230000D03*
X128270000Y-64770000D03*
X113030000Y-64770000D03*
X128270000Y-62230000D03*
X113030000Y-67310000D03*
X128270000Y-59690000D03*
X113030000Y-69850000D03*
X128270000Y-57150000D03*
X113030000Y-72390000D03*
X128270000Y-54610000D03*
X113030000Y-74930000D03*
X128270000Y-52070000D03*
X113030000Y-77470000D03*
X128270000Y-49530000D03*
X113030000Y-80010000D03*
X128270000Y-46990000D03*
X113030000Y-82550000D03*
X128270000Y-44450000D03*
%TD*%
D18*
%TO.C,U3*%
X170180000Y-44450000D03*
D24*
X185420000Y-92710000D03*
X170180000Y-46990000D03*
X185420000Y-90170000D03*
X170180000Y-49530000D03*
X185420000Y-87630000D03*
X170180000Y-52070000D03*
X185420000Y-85090000D03*
X170180000Y-54610000D03*
X185420000Y-82550000D03*
X170180000Y-57150000D03*
X185420000Y-80010000D03*
X170180000Y-59690000D03*
X185420000Y-77470000D03*
X170180000Y-62230000D03*
X185420000Y-74930000D03*
X170180000Y-64770000D03*
X185420000Y-72390000D03*
X170180000Y-67310000D03*
X185420000Y-69850000D03*
X170180000Y-69850000D03*
X185420000Y-67310000D03*
X170180000Y-72390000D03*
X185420000Y-64770000D03*
X170180000Y-74930000D03*
X185420000Y-62230000D03*
X170180000Y-77470000D03*
X185420000Y-59690000D03*
X170180000Y-80010000D03*
X185420000Y-57150000D03*
X170180000Y-82550000D03*
X185420000Y-54610000D03*
X170180000Y-85090000D03*
X185420000Y-52070000D03*
X170180000Y-87630000D03*
X185420000Y-49530000D03*
X170180000Y-90170000D03*
X185420000Y-46990000D03*
X170180000Y-92710000D03*
X185420000Y-44450000D03*
%TD*%
D18*
%TO.C,U1*%
X132080000Y-44450000D03*
D24*
X147320000Y-92710000D03*
X132080000Y-46990000D03*
X147320000Y-90170000D03*
X132080000Y-49530000D03*
X147320000Y-87630000D03*
X132080000Y-52070000D03*
X147320000Y-85090000D03*
X132080000Y-54610000D03*
X147320000Y-82550000D03*
X132080000Y-57150000D03*
X147320000Y-80010000D03*
X132080000Y-59690000D03*
X147320000Y-77470000D03*
X132080000Y-62230000D03*
X147320000Y-74930000D03*
X132080000Y-64770000D03*
X147320000Y-72390000D03*
X132080000Y-67310000D03*
X147320000Y-69850000D03*
X132080000Y-69850000D03*
X147320000Y-67310000D03*
X132080000Y-72390000D03*
X147320000Y-64770000D03*
X132080000Y-74930000D03*
X147320000Y-62230000D03*
X132080000Y-77470000D03*
X147320000Y-59690000D03*
X132080000Y-80010000D03*
X147320000Y-57150000D03*
X132080000Y-82550000D03*
X147320000Y-54610000D03*
X132080000Y-85090000D03*
X147320000Y-52070000D03*
X132080000Y-87630000D03*
X147320000Y-49530000D03*
X132080000Y-90170000D03*
X147320000Y-46990000D03*
X132080000Y-92710000D03*
X147320000Y-44450000D03*
%TD*%
D18*
%TO.C,U2*%
X151130000Y-44450000D03*
D24*
X166370000Y-92710000D03*
X151130000Y-46990000D03*
X166370000Y-90170000D03*
X151130000Y-49530000D03*
X166370000Y-87630000D03*
X151130000Y-52070000D03*
X166370000Y-85090000D03*
X151130000Y-54610000D03*
X166370000Y-82550000D03*
X151130000Y-57150000D03*
X166370000Y-80010000D03*
X151130000Y-59690000D03*
X166370000Y-77470000D03*
X151130000Y-62230000D03*
X166370000Y-74930000D03*
X151130000Y-64770000D03*
X166370000Y-72390000D03*
X151130000Y-67310000D03*
X166370000Y-69850000D03*
X151130000Y-69850000D03*
X166370000Y-67310000D03*
X151130000Y-72390000D03*
X166370000Y-64770000D03*
X151130000Y-74930000D03*
X166370000Y-62230000D03*
X151130000Y-77470000D03*
X166370000Y-59690000D03*
X151130000Y-80010000D03*
X166370000Y-57150000D03*
X151130000Y-82550000D03*
X166370000Y-54610000D03*
X151130000Y-85090000D03*
X166370000Y-52070000D03*
X151130000Y-87630000D03*
X166370000Y-49530000D03*
X151130000Y-90170000D03*
X166370000Y-46990000D03*
X151130000Y-92710000D03*
X166370000Y-44450000D03*
%TD*%
D21*
%TO.C,J1*%
X193040000Y-78740000D03*
X190500000Y-78740000D03*
X193040000Y-76200000D03*
X190500000Y-76200000D03*
X193040000Y-73660000D03*
X190500000Y-73660000D03*
X193040000Y-71120000D03*
X190500000Y-71120000D03*
X193040000Y-68580000D03*
X190500000Y-68580000D03*
X193040000Y-66040000D03*
X190500000Y-66040000D03*
X193040000Y-63500000D03*
X190500000Y-63500000D03*
X193040000Y-60960000D03*
X190500000Y-60960000D03*
X193040000Y-58420000D03*
X190500000Y-58420000D03*
X193040000Y-55880000D03*
X190500000Y-55880000D03*
X193040000Y-53340000D03*
X190500000Y-53340000D03*
X193040000Y-50800000D03*
D22*
X190500000Y-50800000D03*
%TD*%
D21*
%TO.C,J2*%
X193040000Y-111760000D03*
X190500000Y-111760000D03*
X193040000Y-109220000D03*
X190500000Y-109220000D03*
X193040000Y-106680000D03*
X190500000Y-106680000D03*
X193040000Y-104140000D03*
X190500000Y-104140000D03*
X193040000Y-101600000D03*
X190500000Y-101600000D03*
X193040000Y-99060000D03*
X190500000Y-99060000D03*
X193040000Y-96520000D03*
X190500000Y-96520000D03*
X193040000Y-93980000D03*
X190500000Y-93980000D03*
X193040000Y-91440000D03*
X190500000Y-91440000D03*
X193040000Y-88900000D03*
X190500000Y-88900000D03*
X193040000Y-86360000D03*
X190500000Y-86360000D03*
X193040000Y-83820000D03*
D22*
X190500000Y-83820000D03*
%TD*%
D21*
%TO.C,J3*%
X193040000Y-129540000D03*
X190500000Y-129540000D03*
X193040000Y-127000000D03*
X190500000Y-127000000D03*
X193040000Y-124460000D03*
X190500000Y-124460000D03*
X193040000Y-121920000D03*
X190500000Y-121920000D03*
X193040000Y-119380000D03*
X190500000Y-119380000D03*
X193040000Y-116840000D03*
D22*
X190500000Y-116840000D03*
%TD*%
D21*
%TO.C,J7*%
X186690000Y-133350000D03*
X186690000Y-135890000D03*
X184150000Y-133350000D03*
X184150000Y-135890000D03*
X181610000Y-133350000D03*
X181610000Y-135890000D03*
X179070000Y-133350000D03*
X179070000Y-135890000D03*
X176530000Y-133350000D03*
X176530000Y-135890000D03*
X173990000Y-133350000D03*
X173990000Y-135890000D03*
X171450000Y-133350000D03*
X171450000Y-135890000D03*
X168910000Y-133350000D03*
X168910000Y-135890000D03*
X166370000Y-133350000D03*
X166370000Y-135890000D03*
X163830000Y-133350000D03*
D22*
X163830000Y-135890000D03*
%TD*%
%TO.C,J8*%
X140970000Y-135890000D03*
D21*
X140970000Y-133350000D03*
X143510000Y-135890000D03*
X143510000Y-133350000D03*
X146050000Y-135890000D03*
X146050000Y-133350000D03*
X148590000Y-135890000D03*
X148590000Y-133350000D03*
X151130000Y-135890000D03*
X151130000Y-133350000D03*
X153670000Y-135890000D03*
X153670000Y-133350000D03*
X156210000Y-135890000D03*
X156210000Y-133350000D03*
X158750000Y-135890000D03*
X158750000Y-133350000D03*
%TD*%
%TO.C,J9*%
X135890000Y-133350000D03*
X135890000Y-135890000D03*
X133350000Y-133350000D03*
X133350000Y-135890000D03*
X130810000Y-133350000D03*
X130810000Y-135890000D03*
X128270000Y-133350000D03*
D22*
X128270000Y-135890000D03*
%TD*%
D21*
%TO.C,J6*%
X104140000Y-129540000D03*
X101600000Y-129540000D03*
X104140000Y-127000000D03*
X101600000Y-127000000D03*
X104140000Y-124460000D03*
D22*
X101600000Y-124460000D03*
%TD*%
%TO.C,J5*%
X101600000Y-110490000D03*
D21*
X104140000Y-110490000D03*
X101600000Y-113030000D03*
X104140000Y-113030000D03*
X101600000Y-115570000D03*
X104140000Y-115570000D03*
X101600000Y-118110000D03*
X104140000Y-118110000D03*
%TD*%
D24*
%TO.C,U6*%
X125730000Y-90170000D03*
X110490000Y-123190000D03*
X125730000Y-92710000D03*
X110490000Y-120650000D03*
X125730000Y-95250000D03*
X110490000Y-118110000D03*
X125730000Y-97790000D03*
X110490000Y-115570000D03*
X125730000Y-100330000D03*
X110490000Y-113030000D03*
X125730000Y-102870000D03*
X110490000Y-110490000D03*
X125730000Y-105410000D03*
X110490000Y-107950000D03*
X125730000Y-107950000D03*
X110490000Y-105410000D03*
X125730000Y-110490000D03*
X110490000Y-102870000D03*
X125730000Y-113030000D03*
X110490000Y-100330000D03*
X125730000Y-115570000D03*
X110490000Y-97790000D03*
X125730000Y-118110000D03*
X110490000Y-95250000D03*
X125730000Y-120650000D03*
X110490000Y-92710000D03*
X125730000Y-123190000D03*
D18*
X110490000Y-90170000D03*
%TD*%
D25*
%TO.C,REF\u002A\u002A*%
X102000000Y-136000000D03*
%TD*%
%TO.C,REF\u002A\u002A*%
X102000000Y-44000000D03*
%TD*%
%TO.C,REF\u002A\u002A*%
X194000000Y-136000000D03*
%TD*%
%TO.C,REF\u002A\u002A*%
X194000000Y-44000000D03*
%TD*%
M02*
