%TF.GenerationSoftware,KiCad,Pcbnew,(5.1.10-1-10_14)*%
%TF.CreationDate,2021-08-10T22:16:19+10:00*%
%TF.ProjectId,pda6502v2,70646136-3530-4327-9632-2e6b69636164,rev?*%
%TF.SameCoordinates,Original*%
%TF.FileFunction,Legend,Bot*%
%TF.FilePolarity,Positive*%
%FSLAX46Y46*%
G04 Gerber Fmt 4.6, Leading zero omitted, Abs format (unit mm)*
G04 Created by KiCad (PCBNEW (5.1.10-1-10_14)) date 2021-08-10 22:16:19*
%MOMM*%
%LPD*%
G01*
G04 APERTURE LIST*
%ADD10C,0.480000*%
%ADD11C,0.150000*%
G04 APERTURE END LIST*
D10*
%TO.C,C30*%
X131688000Y-128886000D02*
X133488000Y-128886000D01*
%TO.C,C29*%
X135117000Y-128886000D02*
X136917000Y-128886000D01*
%TO.C,C30*%
D11*
X133102285Y-126396714D02*
X133140380Y-126434809D01*
X133254666Y-126472904D01*
X133330857Y-126472904D01*
X133445142Y-126434809D01*
X133521333Y-126358619D01*
X133559428Y-126282428D01*
X133597523Y-126130047D01*
X133597523Y-126015761D01*
X133559428Y-125863380D01*
X133521333Y-125787190D01*
X133445142Y-125711000D01*
X133330857Y-125672904D01*
X133254666Y-125672904D01*
X133140380Y-125711000D01*
X133102285Y-125749095D01*
X132835619Y-125672904D02*
X132340380Y-125672904D01*
X132607047Y-125977666D01*
X132492761Y-125977666D01*
X132416571Y-126015761D01*
X132378476Y-126053857D01*
X132340380Y-126130047D01*
X132340380Y-126320523D01*
X132378476Y-126396714D01*
X132416571Y-126434809D01*
X132492761Y-126472904D01*
X132721333Y-126472904D01*
X132797523Y-126434809D01*
X132835619Y-126396714D01*
X131845142Y-125672904D02*
X131768952Y-125672904D01*
X131692761Y-125711000D01*
X131654666Y-125749095D01*
X131616571Y-125825285D01*
X131578476Y-125977666D01*
X131578476Y-126168142D01*
X131616571Y-126320523D01*
X131654666Y-126396714D01*
X131692761Y-126434809D01*
X131768952Y-126472904D01*
X131845142Y-126472904D01*
X131921333Y-126434809D01*
X131959428Y-126396714D01*
X131997523Y-126320523D01*
X132035619Y-126168142D01*
X132035619Y-125977666D01*
X131997523Y-125825285D01*
X131959428Y-125749095D01*
X131921333Y-125711000D01*
X131845142Y-125672904D01*
%TO.C,C29*%
X136531285Y-126396714D02*
X136569380Y-126434809D01*
X136683666Y-126472904D01*
X136759857Y-126472904D01*
X136874142Y-126434809D01*
X136950333Y-126358619D01*
X136988428Y-126282428D01*
X137026523Y-126130047D01*
X137026523Y-126015761D01*
X136988428Y-125863380D01*
X136950333Y-125787190D01*
X136874142Y-125711000D01*
X136759857Y-125672904D01*
X136683666Y-125672904D01*
X136569380Y-125711000D01*
X136531285Y-125749095D01*
X136226523Y-125749095D02*
X136188428Y-125711000D01*
X136112238Y-125672904D01*
X135921761Y-125672904D01*
X135845571Y-125711000D01*
X135807476Y-125749095D01*
X135769380Y-125825285D01*
X135769380Y-125901476D01*
X135807476Y-126015761D01*
X136264619Y-126472904D01*
X135769380Y-126472904D01*
X135388428Y-126472904D02*
X135236047Y-126472904D01*
X135159857Y-126434809D01*
X135121761Y-126396714D01*
X135045571Y-126282428D01*
X135007476Y-126130047D01*
X135007476Y-125825285D01*
X135045571Y-125749095D01*
X135083666Y-125711000D01*
X135159857Y-125672904D01*
X135312238Y-125672904D01*
X135388428Y-125711000D01*
X135426523Y-125749095D01*
X135464619Y-125825285D01*
X135464619Y-126015761D01*
X135426523Y-126091952D01*
X135388428Y-126130047D01*
X135312238Y-126168142D01*
X135159857Y-126168142D01*
X135083666Y-126130047D01*
X135045571Y-126091952D01*
X135007476Y-126015761D01*
%TO.C,C31*%
X127514285Y-127412714D02*
X127552380Y-127450809D01*
X127666666Y-127488904D01*
X127742857Y-127488904D01*
X127857142Y-127450809D01*
X127933333Y-127374619D01*
X127971428Y-127298428D01*
X128009523Y-127146047D01*
X128009523Y-127031761D01*
X127971428Y-126879380D01*
X127933333Y-126803190D01*
X127857142Y-126727000D01*
X127742857Y-126688904D01*
X127666666Y-126688904D01*
X127552380Y-126727000D01*
X127514285Y-126765095D01*
X127247619Y-126688904D02*
X126752380Y-126688904D01*
X127019047Y-126993666D01*
X126904761Y-126993666D01*
X126828571Y-127031761D01*
X126790476Y-127069857D01*
X126752380Y-127146047D01*
X126752380Y-127336523D01*
X126790476Y-127412714D01*
X126828571Y-127450809D01*
X126904761Y-127488904D01*
X127133333Y-127488904D01*
X127209523Y-127450809D01*
X127247619Y-127412714D01*
X125990476Y-127488904D02*
X126447619Y-127488904D01*
X126219047Y-127488904D02*
X126219047Y-126688904D01*
X126295238Y-126803190D01*
X126371428Y-126879380D01*
X126447619Y-126917476D01*
%TO.C,C28*%
X130308285Y-127412714D02*
X130346380Y-127450809D01*
X130460666Y-127488904D01*
X130536857Y-127488904D01*
X130651142Y-127450809D01*
X130727333Y-127374619D01*
X130765428Y-127298428D01*
X130803523Y-127146047D01*
X130803523Y-127031761D01*
X130765428Y-126879380D01*
X130727333Y-126803190D01*
X130651142Y-126727000D01*
X130536857Y-126688904D01*
X130460666Y-126688904D01*
X130346380Y-126727000D01*
X130308285Y-126765095D01*
X130003523Y-126765095D02*
X129965428Y-126727000D01*
X129889238Y-126688904D01*
X129698761Y-126688904D01*
X129622571Y-126727000D01*
X129584476Y-126765095D01*
X129546380Y-126841285D01*
X129546380Y-126917476D01*
X129584476Y-127031761D01*
X130041619Y-127488904D01*
X129546380Y-127488904D01*
X129089238Y-127031761D02*
X129165428Y-126993666D01*
X129203523Y-126955571D01*
X129241619Y-126879380D01*
X129241619Y-126841285D01*
X129203523Y-126765095D01*
X129165428Y-126727000D01*
X129089238Y-126688904D01*
X128936857Y-126688904D01*
X128860666Y-126727000D01*
X128822571Y-126765095D01*
X128784476Y-126841285D01*
X128784476Y-126879380D01*
X128822571Y-126955571D01*
X128860666Y-126993666D01*
X128936857Y-127031761D01*
X129089238Y-127031761D01*
X129165428Y-127069857D01*
X129203523Y-127107952D01*
X129241619Y-127184142D01*
X129241619Y-127336523D01*
X129203523Y-127412714D01*
X129165428Y-127450809D01*
X129089238Y-127488904D01*
X128936857Y-127488904D01*
X128860666Y-127450809D01*
X128822571Y-127412714D01*
X128784476Y-127336523D01*
X128784476Y-127184142D01*
X128822571Y-127107952D01*
X128860666Y-127069857D01*
X128936857Y-127031761D01*
%TO.C,C21*%
X109480285Y-83089714D02*
X109518380Y-83127809D01*
X109632666Y-83165904D01*
X109708857Y-83165904D01*
X109823142Y-83127809D01*
X109899333Y-83051619D01*
X109937428Y-82975428D01*
X109975523Y-82823047D01*
X109975523Y-82708761D01*
X109937428Y-82556380D01*
X109899333Y-82480190D01*
X109823142Y-82404000D01*
X109708857Y-82365904D01*
X109632666Y-82365904D01*
X109518380Y-82404000D01*
X109480285Y-82442095D01*
X109175523Y-82442095D02*
X109137428Y-82404000D01*
X109061238Y-82365904D01*
X108870761Y-82365904D01*
X108794571Y-82404000D01*
X108756476Y-82442095D01*
X108718380Y-82518285D01*
X108718380Y-82594476D01*
X108756476Y-82708761D01*
X109213619Y-83165904D01*
X108718380Y-83165904D01*
X107956476Y-83165904D02*
X108413619Y-83165904D01*
X108185047Y-83165904D02*
X108185047Y-82365904D01*
X108261238Y-82480190D01*
X108337428Y-82556380D01*
X108413619Y-82594476D01*
%TO.C,C20*%
X109480285Y-81057714D02*
X109518380Y-81095809D01*
X109632666Y-81133904D01*
X109708857Y-81133904D01*
X109823142Y-81095809D01*
X109899333Y-81019619D01*
X109937428Y-80943428D01*
X109975523Y-80791047D01*
X109975523Y-80676761D01*
X109937428Y-80524380D01*
X109899333Y-80448190D01*
X109823142Y-80372000D01*
X109708857Y-80333904D01*
X109632666Y-80333904D01*
X109518380Y-80372000D01*
X109480285Y-80410095D01*
X109175523Y-80410095D02*
X109137428Y-80372000D01*
X109061238Y-80333904D01*
X108870761Y-80333904D01*
X108794571Y-80372000D01*
X108756476Y-80410095D01*
X108718380Y-80486285D01*
X108718380Y-80562476D01*
X108756476Y-80676761D01*
X109213619Y-81133904D01*
X108718380Y-81133904D01*
X108223142Y-80333904D02*
X108146952Y-80333904D01*
X108070761Y-80372000D01*
X108032666Y-80410095D01*
X107994571Y-80486285D01*
X107956476Y-80638666D01*
X107956476Y-80829142D01*
X107994571Y-80981523D01*
X108032666Y-81057714D01*
X108070761Y-81095809D01*
X108146952Y-81133904D01*
X108223142Y-81133904D01*
X108299333Y-81095809D01*
X108337428Y-81057714D01*
X108375523Y-80981523D01*
X108413619Y-80829142D01*
X108413619Y-80638666D01*
X108375523Y-80486285D01*
X108337428Y-80410095D01*
X108299333Y-80372000D01*
X108223142Y-80333904D01*
%TO.C,C19*%
X103155714Y-86353714D02*
X103193809Y-86315619D01*
X103231904Y-86201333D01*
X103231904Y-86125142D01*
X103193809Y-86010857D01*
X103117619Y-85934666D01*
X103041428Y-85896571D01*
X102889047Y-85858476D01*
X102774761Y-85858476D01*
X102622380Y-85896571D01*
X102546190Y-85934666D01*
X102470000Y-86010857D01*
X102431904Y-86125142D01*
X102431904Y-86201333D01*
X102470000Y-86315619D01*
X102508095Y-86353714D01*
X103231904Y-87115619D02*
X103231904Y-86658476D01*
X103231904Y-86887047D02*
X102431904Y-86887047D01*
X102546190Y-86810857D01*
X102622380Y-86734666D01*
X102660476Y-86658476D01*
X103231904Y-87496571D02*
X103231904Y-87648952D01*
X103193809Y-87725142D01*
X103155714Y-87763238D01*
X103041428Y-87839428D01*
X102889047Y-87877523D01*
X102584285Y-87877523D01*
X102508095Y-87839428D01*
X102470000Y-87801333D01*
X102431904Y-87725142D01*
X102431904Y-87572761D01*
X102470000Y-87496571D01*
X102508095Y-87458476D01*
X102584285Y-87420380D01*
X102774761Y-87420380D01*
X102850952Y-87458476D01*
X102889047Y-87496571D01*
X102927142Y-87572761D01*
X102927142Y-87725142D01*
X102889047Y-87801333D01*
X102850952Y-87839428D01*
X102774761Y-87877523D01*
%TO.C,C18*%
X103155714Y-76447714D02*
X103193809Y-76409619D01*
X103231904Y-76295333D01*
X103231904Y-76219142D01*
X103193809Y-76104857D01*
X103117619Y-76028666D01*
X103041428Y-75990571D01*
X102889047Y-75952476D01*
X102774761Y-75952476D01*
X102622380Y-75990571D01*
X102546190Y-76028666D01*
X102470000Y-76104857D01*
X102431904Y-76219142D01*
X102431904Y-76295333D01*
X102470000Y-76409619D01*
X102508095Y-76447714D01*
X103231904Y-77209619D02*
X103231904Y-76752476D01*
X103231904Y-76981047D02*
X102431904Y-76981047D01*
X102546190Y-76904857D01*
X102622380Y-76828666D01*
X102660476Y-76752476D01*
X102774761Y-77666761D02*
X102736666Y-77590571D01*
X102698571Y-77552476D01*
X102622380Y-77514380D01*
X102584285Y-77514380D01*
X102508095Y-77552476D01*
X102470000Y-77590571D01*
X102431904Y-77666761D01*
X102431904Y-77819142D01*
X102470000Y-77895333D01*
X102508095Y-77933428D01*
X102584285Y-77971523D01*
X102622380Y-77971523D01*
X102698571Y-77933428D01*
X102736666Y-77895333D01*
X102774761Y-77819142D01*
X102774761Y-77666761D01*
X102812857Y-77590571D01*
X102850952Y-77552476D01*
X102927142Y-77514380D01*
X103079523Y-77514380D01*
X103155714Y-77552476D01*
X103193809Y-77590571D01*
X103231904Y-77666761D01*
X103231904Y-77819142D01*
X103193809Y-77895333D01*
X103155714Y-77933428D01*
X103079523Y-77971523D01*
X102927142Y-77971523D01*
X102850952Y-77933428D01*
X102812857Y-77895333D01*
X102774761Y-77819142D01*
%TO.C,C14*%
X158502285Y-113823714D02*
X158540380Y-113861809D01*
X158654666Y-113899904D01*
X158730857Y-113899904D01*
X158845142Y-113861809D01*
X158921333Y-113785619D01*
X158959428Y-113709428D01*
X158997523Y-113557047D01*
X158997523Y-113442761D01*
X158959428Y-113290380D01*
X158921333Y-113214190D01*
X158845142Y-113138000D01*
X158730857Y-113099904D01*
X158654666Y-113099904D01*
X158540380Y-113138000D01*
X158502285Y-113176095D01*
X157740380Y-113899904D02*
X158197523Y-113899904D01*
X157968952Y-113899904D02*
X157968952Y-113099904D01*
X158045142Y-113214190D01*
X158121333Y-113290380D01*
X158197523Y-113328476D01*
X157054666Y-113366571D02*
X157054666Y-113899904D01*
X157245142Y-113061809D02*
X157435619Y-113633238D01*
X156940380Y-113633238D01*
%TO.C,C32*%
X150374285Y-128301714D02*
X150412380Y-128339809D01*
X150526666Y-128377904D01*
X150602857Y-128377904D01*
X150717142Y-128339809D01*
X150793333Y-128263619D01*
X150831428Y-128187428D01*
X150869523Y-128035047D01*
X150869523Y-127920761D01*
X150831428Y-127768380D01*
X150793333Y-127692190D01*
X150717142Y-127616000D01*
X150602857Y-127577904D01*
X150526666Y-127577904D01*
X150412380Y-127616000D01*
X150374285Y-127654095D01*
X150107619Y-127577904D02*
X149612380Y-127577904D01*
X149879047Y-127882666D01*
X149764761Y-127882666D01*
X149688571Y-127920761D01*
X149650476Y-127958857D01*
X149612380Y-128035047D01*
X149612380Y-128225523D01*
X149650476Y-128301714D01*
X149688571Y-128339809D01*
X149764761Y-128377904D01*
X149993333Y-128377904D01*
X150069523Y-128339809D01*
X150107619Y-128301714D01*
X149307619Y-127654095D02*
X149269523Y-127616000D01*
X149193333Y-127577904D01*
X149002857Y-127577904D01*
X148926666Y-127616000D01*
X148888571Y-127654095D01*
X148850476Y-127730285D01*
X148850476Y-127806476D01*
X148888571Y-127920761D01*
X149345714Y-128377904D01*
X148850476Y-128377904D01*
%TO.C,C9*%
X122459714Y-89020666D02*
X122497809Y-88982571D01*
X122535904Y-88868285D01*
X122535904Y-88792095D01*
X122497809Y-88677809D01*
X122421619Y-88601619D01*
X122345428Y-88563523D01*
X122193047Y-88525428D01*
X122078761Y-88525428D01*
X121926380Y-88563523D01*
X121850190Y-88601619D01*
X121774000Y-88677809D01*
X121735904Y-88792095D01*
X121735904Y-88868285D01*
X121774000Y-88982571D01*
X121812095Y-89020666D01*
X122535904Y-89401619D02*
X122535904Y-89554000D01*
X122497809Y-89630190D01*
X122459714Y-89668285D01*
X122345428Y-89744476D01*
X122193047Y-89782571D01*
X121888285Y-89782571D01*
X121812095Y-89744476D01*
X121774000Y-89706380D01*
X121735904Y-89630190D01*
X121735904Y-89477809D01*
X121774000Y-89401619D01*
X121812095Y-89363523D01*
X121888285Y-89325428D01*
X122078761Y-89325428D01*
X122154952Y-89363523D01*
X122193047Y-89401619D01*
X122231142Y-89477809D01*
X122231142Y-89630190D01*
X122193047Y-89706380D01*
X122154952Y-89744476D01*
X122078761Y-89782571D01*
%TO.C,C27*%
X189261714Y-131565714D02*
X189299809Y-131527619D01*
X189337904Y-131413333D01*
X189337904Y-131337142D01*
X189299809Y-131222857D01*
X189223619Y-131146666D01*
X189147428Y-131108571D01*
X188995047Y-131070476D01*
X188880761Y-131070476D01*
X188728380Y-131108571D01*
X188652190Y-131146666D01*
X188576000Y-131222857D01*
X188537904Y-131337142D01*
X188537904Y-131413333D01*
X188576000Y-131527619D01*
X188614095Y-131565714D01*
X188614095Y-131870476D02*
X188576000Y-131908571D01*
X188537904Y-131984761D01*
X188537904Y-132175238D01*
X188576000Y-132251428D01*
X188614095Y-132289523D01*
X188690285Y-132327619D01*
X188766476Y-132327619D01*
X188880761Y-132289523D01*
X189337904Y-131832380D01*
X189337904Y-132327619D01*
X188537904Y-132594285D02*
X188537904Y-133127619D01*
X189337904Y-132784761D01*
%TO.C,C26*%
X161829714Y-131565714D02*
X161867809Y-131527619D01*
X161905904Y-131413333D01*
X161905904Y-131337142D01*
X161867809Y-131222857D01*
X161791619Y-131146666D01*
X161715428Y-131108571D01*
X161563047Y-131070476D01*
X161448761Y-131070476D01*
X161296380Y-131108571D01*
X161220190Y-131146666D01*
X161144000Y-131222857D01*
X161105904Y-131337142D01*
X161105904Y-131413333D01*
X161144000Y-131527619D01*
X161182095Y-131565714D01*
X161182095Y-131870476D02*
X161144000Y-131908571D01*
X161105904Y-131984761D01*
X161105904Y-132175238D01*
X161144000Y-132251428D01*
X161182095Y-132289523D01*
X161258285Y-132327619D01*
X161334476Y-132327619D01*
X161448761Y-132289523D01*
X161905904Y-131832380D01*
X161905904Y-132327619D01*
X161105904Y-133013333D02*
X161105904Y-132860952D01*
X161144000Y-132784761D01*
X161182095Y-132746666D01*
X161296380Y-132670476D01*
X161448761Y-132632380D01*
X161753523Y-132632380D01*
X161829714Y-132670476D01*
X161867809Y-132708571D01*
X161905904Y-132784761D01*
X161905904Y-132937142D01*
X161867809Y-133013333D01*
X161829714Y-133051428D01*
X161753523Y-133089523D01*
X161563047Y-133089523D01*
X161486857Y-133051428D01*
X161448761Y-133013333D01*
X161410666Y-132937142D01*
X161410666Y-132784761D01*
X161448761Y-132708571D01*
X161486857Y-132670476D01*
X161563047Y-132632380D01*
%TO.C,C25*%
X189236285Y-114585714D02*
X189274380Y-114623809D01*
X189388666Y-114661904D01*
X189464857Y-114661904D01*
X189579142Y-114623809D01*
X189655333Y-114547619D01*
X189693428Y-114471428D01*
X189731523Y-114319047D01*
X189731523Y-114204761D01*
X189693428Y-114052380D01*
X189655333Y-113976190D01*
X189579142Y-113900000D01*
X189464857Y-113861904D01*
X189388666Y-113861904D01*
X189274380Y-113900000D01*
X189236285Y-113938095D01*
X188931523Y-113938095D02*
X188893428Y-113900000D01*
X188817238Y-113861904D01*
X188626761Y-113861904D01*
X188550571Y-113900000D01*
X188512476Y-113938095D01*
X188474380Y-114014285D01*
X188474380Y-114090476D01*
X188512476Y-114204761D01*
X188969619Y-114661904D01*
X188474380Y-114661904D01*
X187750571Y-113861904D02*
X188131523Y-113861904D01*
X188169619Y-114242857D01*
X188131523Y-114204761D01*
X188055333Y-114166666D01*
X187864857Y-114166666D01*
X187788666Y-114204761D01*
X187750571Y-114242857D01*
X187712476Y-114319047D01*
X187712476Y-114509523D01*
X187750571Y-114585714D01*
X187788666Y-114623809D01*
X187864857Y-114661904D01*
X188055333Y-114661904D01*
X188131523Y-114623809D01*
X188169619Y-114585714D01*
%TO.C,C7*%
X188855333Y-83089714D02*
X188893428Y-83127809D01*
X189007714Y-83165904D01*
X189083904Y-83165904D01*
X189198190Y-83127809D01*
X189274380Y-83051619D01*
X189312476Y-82975428D01*
X189350571Y-82823047D01*
X189350571Y-82708761D01*
X189312476Y-82556380D01*
X189274380Y-82480190D01*
X189198190Y-82404000D01*
X189083904Y-82365904D01*
X189007714Y-82365904D01*
X188893428Y-82404000D01*
X188855333Y-82442095D01*
X188588666Y-82365904D02*
X188055333Y-82365904D01*
X188398190Y-83165904D01*
%TO.C,C6*%
X173361333Y-94675714D02*
X173399428Y-94713809D01*
X173513714Y-94751904D01*
X173589904Y-94751904D01*
X173704190Y-94713809D01*
X173780380Y-94637619D01*
X173818476Y-94561428D01*
X173856571Y-94409047D01*
X173856571Y-94294761D01*
X173818476Y-94142380D01*
X173780380Y-94066190D01*
X173704190Y-93990000D01*
X173589904Y-93951904D01*
X173513714Y-93951904D01*
X173399428Y-93990000D01*
X173361333Y-94028095D01*
X172675619Y-93951904D02*
X172828000Y-93951904D01*
X172904190Y-93990000D01*
X172942285Y-94028095D01*
X173018476Y-94142380D01*
X173056571Y-94294761D01*
X173056571Y-94599523D01*
X173018476Y-94675714D01*
X172980380Y-94713809D01*
X172904190Y-94751904D01*
X172751809Y-94751904D01*
X172675619Y-94713809D01*
X172637523Y-94675714D01*
X172599428Y-94599523D01*
X172599428Y-94409047D01*
X172637523Y-94332857D01*
X172675619Y-94294761D01*
X172751809Y-94256666D01*
X172904190Y-94256666D01*
X172980380Y-94294761D01*
X173018476Y-94332857D01*
X173056571Y-94409047D01*
%TO.C,C24*%
X157765714Y-107435714D02*
X157803809Y-107397619D01*
X157841904Y-107283333D01*
X157841904Y-107207142D01*
X157803809Y-107092857D01*
X157727619Y-107016666D01*
X157651428Y-106978571D01*
X157499047Y-106940476D01*
X157384761Y-106940476D01*
X157232380Y-106978571D01*
X157156190Y-107016666D01*
X157080000Y-107092857D01*
X157041904Y-107207142D01*
X157041904Y-107283333D01*
X157080000Y-107397619D01*
X157118095Y-107435714D01*
X157118095Y-107740476D02*
X157080000Y-107778571D01*
X157041904Y-107854761D01*
X157041904Y-108045238D01*
X157080000Y-108121428D01*
X157118095Y-108159523D01*
X157194285Y-108197619D01*
X157270476Y-108197619D01*
X157384761Y-108159523D01*
X157841904Y-107702380D01*
X157841904Y-108197619D01*
X157308571Y-108883333D02*
X157841904Y-108883333D01*
X157003809Y-108692857D02*
X157575238Y-108502380D01*
X157575238Y-108997619D01*
%TO.C,C23*%
X150145714Y-108451714D02*
X150183809Y-108413619D01*
X150221904Y-108299333D01*
X150221904Y-108223142D01*
X150183809Y-108108857D01*
X150107619Y-108032666D01*
X150031428Y-107994571D01*
X149879047Y-107956476D01*
X149764761Y-107956476D01*
X149612380Y-107994571D01*
X149536190Y-108032666D01*
X149460000Y-108108857D01*
X149421904Y-108223142D01*
X149421904Y-108299333D01*
X149460000Y-108413619D01*
X149498095Y-108451714D01*
X149498095Y-108756476D02*
X149460000Y-108794571D01*
X149421904Y-108870761D01*
X149421904Y-109061238D01*
X149460000Y-109137428D01*
X149498095Y-109175523D01*
X149574285Y-109213619D01*
X149650476Y-109213619D01*
X149764761Y-109175523D01*
X150221904Y-108718380D01*
X150221904Y-109213619D01*
X149421904Y-109480285D02*
X149421904Y-109975523D01*
X149726666Y-109708857D01*
X149726666Y-109823142D01*
X149764761Y-109899333D01*
X149802857Y-109937428D01*
X149879047Y-109975523D01*
X150069523Y-109975523D01*
X150145714Y-109937428D01*
X150183809Y-109899333D01*
X150221904Y-109823142D01*
X150221904Y-109594571D01*
X150183809Y-109518380D01*
X150145714Y-109480285D01*
%TO.C,C22*%
X139477714Y-110737714D02*
X139515809Y-110699619D01*
X139553904Y-110585333D01*
X139553904Y-110509142D01*
X139515809Y-110394857D01*
X139439619Y-110318666D01*
X139363428Y-110280571D01*
X139211047Y-110242476D01*
X139096761Y-110242476D01*
X138944380Y-110280571D01*
X138868190Y-110318666D01*
X138792000Y-110394857D01*
X138753904Y-110509142D01*
X138753904Y-110585333D01*
X138792000Y-110699619D01*
X138830095Y-110737714D01*
X138830095Y-111042476D02*
X138792000Y-111080571D01*
X138753904Y-111156761D01*
X138753904Y-111347238D01*
X138792000Y-111423428D01*
X138830095Y-111461523D01*
X138906285Y-111499619D01*
X138982476Y-111499619D01*
X139096761Y-111461523D01*
X139553904Y-111004380D01*
X139553904Y-111499619D01*
X138830095Y-111804380D02*
X138792000Y-111842476D01*
X138753904Y-111918666D01*
X138753904Y-112109142D01*
X138792000Y-112185333D01*
X138830095Y-112223428D01*
X138906285Y-112261523D01*
X138982476Y-112261523D01*
X139096761Y-112223428D01*
X139553904Y-111766285D01*
X139553904Y-112261523D01*
%TO.C,C17*%
X162566285Y-128301714D02*
X162604380Y-128339809D01*
X162718666Y-128377904D01*
X162794857Y-128377904D01*
X162909142Y-128339809D01*
X162985333Y-128263619D01*
X163023428Y-128187428D01*
X163061523Y-128035047D01*
X163061523Y-127920761D01*
X163023428Y-127768380D01*
X162985333Y-127692190D01*
X162909142Y-127616000D01*
X162794857Y-127577904D01*
X162718666Y-127577904D01*
X162604380Y-127616000D01*
X162566285Y-127654095D01*
X161804380Y-128377904D02*
X162261523Y-128377904D01*
X162032952Y-128377904D02*
X162032952Y-127577904D01*
X162109142Y-127692190D01*
X162185333Y-127768380D01*
X162261523Y-127806476D01*
X161537714Y-127577904D02*
X161004380Y-127577904D01*
X161347238Y-128377904D01*
%TO.C,C16*%
X142242714Y-120135714D02*
X142280809Y-120097619D01*
X142318904Y-119983333D01*
X142318904Y-119907142D01*
X142280809Y-119792857D01*
X142204619Y-119716666D01*
X142128428Y-119678571D01*
X141976047Y-119640476D01*
X141861761Y-119640476D01*
X141709380Y-119678571D01*
X141633190Y-119716666D01*
X141557000Y-119792857D01*
X141518904Y-119907142D01*
X141518904Y-119983333D01*
X141557000Y-120097619D01*
X141595095Y-120135714D01*
X142318904Y-120897619D02*
X142318904Y-120440476D01*
X142318904Y-120669047D02*
X141518904Y-120669047D01*
X141633190Y-120592857D01*
X141709380Y-120516666D01*
X141747476Y-120440476D01*
X141518904Y-121583333D02*
X141518904Y-121430952D01*
X141557000Y-121354761D01*
X141595095Y-121316666D01*
X141709380Y-121240476D01*
X141861761Y-121202380D01*
X142166523Y-121202380D01*
X142242714Y-121240476D01*
X142280809Y-121278571D01*
X142318904Y-121354761D01*
X142318904Y-121507142D01*
X142280809Y-121583333D01*
X142242714Y-121621428D01*
X142166523Y-121659523D01*
X141976047Y-121659523D01*
X141899857Y-121621428D01*
X141861761Y-121583333D01*
X141823666Y-121507142D01*
X141823666Y-121354761D01*
X141861761Y-121278571D01*
X141899857Y-121240476D01*
X141976047Y-121202380D01*
%TO.C,C15*%
X146310285Y-128301714D02*
X146348380Y-128339809D01*
X146462666Y-128377904D01*
X146538857Y-128377904D01*
X146653142Y-128339809D01*
X146729333Y-128263619D01*
X146767428Y-128187428D01*
X146805523Y-128035047D01*
X146805523Y-127920761D01*
X146767428Y-127768380D01*
X146729333Y-127692190D01*
X146653142Y-127616000D01*
X146538857Y-127577904D01*
X146462666Y-127577904D01*
X146348380Y-127616000D01*
X146310285Y-127654095D01*
X145548380Y-128377904D02*
X146005523Y-128377904D01*
X145776952Y-128377904D02*
X145776952Y-127577904D01*
X145853142Y-127692190D01*
X145929333Y-127768380D01*
X146005523Y-127806476D01*
X144824571Y-127577904D02*
X145205523Y-127577904D01*
X145243619Y-127958857D01*
X145205523Y-127920761D01*
X145129333Y-127882666D01*
X144938857Y-127882666D01*
X144862666Y-127920761D01*
X144824571Y-127958857D01*
X144786476Y-128035047D01*
X144786476Y-128225523D01*
X144824571Y-128301714D01*
X144862666Y-128339809D01*
X144938857Y-128377904D01*
X145129333Y-128377904D01*
X145205523Y-128339809D01*
X145243619Y-128301714D01*
%TO.C,C11*%
X155225714Y-108451714D02*
X155263809Y-108413619D01*
X155301904Y-108299333D01*
X155301904Y-108223142D01*
X155263809Y-108108857D01*
X155187619Y-108032666D01*
X155111428Y-107994571D01*
X154959047Y-107956476D01*
X154844761Y-107956476D01*
X154692380Y-107994571D01*
X154616190Y-108032666D01*
X154540000Y-108108857D01*
X154501904Y-108223142D01*
X154501904Y-108299333D01*
X154540000Y-108413619D01*
X154578095Y-108451714D01*
X155301904Y-109213619D02*
X155301904Y-108756476D01*
X155301904Y-108985047D02*
X154501904Y-108985047D01*
X154616190Y-108908857D01*
X154692380Y-108832666D01*
X154730476Y-108756476D01*
X155301904Y-109975523D02*
X155301904Y-109518380D01*
X155301904Y-109746952D02*
X154501904Y-109746952D01*
X154616190Y-109670761D01*
X154692380Y-109594571D01*
X154730476Y-109518380D01*
%TO.C,C8*%
X194951333Y-83089714D02*
X194989428Y-83127809D01*
X195103714Y-83165904D01*
X195179904Y-83165904D01*
X195294190Y-83127809D01*
X195370380Y-83051619D01*
X195408476Y-82975428D01*
X195446571Y-82823047D01*
X195446571Y-82708761D01*
X195408476Y-82556380D01*
X195370380Y-82480190D01*
X195294190Y-82404000D01*
X195179904Y-82365904D01*
X195103714Y-82365904D01*
X194989428Y-82404000D01*
X194951333Y-82442095D01*
X194494190Y-82708761D02*
X194570380Y-82670666D01*
X194608476Y-82632571D01*
X194646571Y-82556380D01*
X194646571Y-82518285D01*
X194608476Y-82442095D01*
X194570380Y-82404000D01*
X194494190Y-82365904D01*
X194341809Y-82365904D01*
X194265619Y-82404000D01*
X194227523Y-82442095D01*
X194189428Y-82518285D01*
X194189428Y-82556380D01*
X194227523Y-82632571D01*
X194265619Y-82670666D01*
X194341809Y-82708761D01*
X194494190Y-82708761D01*
X194570380Y-82746857D01*
X194608476Y-82784952D01*
X194646571Y-82861142D01*
X194646571Y-83013523D01*
X194608476Y-83089714D01*
X194570380Y-83127809D01*
X194494190Y-83165904D01*
X194341809Y-83165904D01*
X194265619Y-83127809D01*
X194227523Y-83089714D01*
X194189428Y-83013523D01*
X194189428Y-82861142D01*
X194227523Y-82784952D01*
X194265619Y-82746857D01*
X194341809Y-82708761D01*
%TO.C,C5*%
X188982333Y-48799714D02*
X189020428Y-48837809D01*
X189134714Y-48875904D01*
X189210904Y-48875904D01*
X189325190Y-48837809D01*
X189401380Y-48761619D01*
X189439476Y-48685428D01*
X189477571Y-48533047D01*
X189477571Y-48418761D01*
X189439476Y-48266380D01*
X189401380Y-48190190D01*
X189325190Y-48114000D01*
X189210904Y-48075904D01*
X189134714Y-48075904D01*
X189020428Y-48114000D01*
X188982333Y-48152095D01*
X188258523Y-48075904D02*
X188639476Y-48075904D01*
X188677571Y-48456857D01*
X188639476Y-48418761D01*
X188563285Y-48380666D01*
X188372809Y-48380666D01*
X188296619Y-48418761D01*
X188258523Y-48456857D01*
X188220428Y-48533047D01*
X188220428Y-48723523D01*
X188258523Y-48799714D01*
X188296619Y-48837809D01*
X188372809Y-48875904D01*
X188563285Y-48875904D01*
X188639476Y-48837809D01*
X188677571Y-48799714D01*
%TO.C,C4*%
X125355333Y-46259714D02*
X125393428Y-46297809D01*
X125507714Y-46335904D01*
X125583904Y-46335904D01*
X125698190Y-46297809D01*
X125774380Y-46221619D01*
X125812476Y-46145428D01*
X125850571Y-45993047D01*
X125850571Y-45878761D01*
X125812476Y-45726380D01*
X125774380Y-45650190D01*
X125698190Y-45574000D01*
X125583904Y-45535904D01*
X125507714Y-45535904D01*
X125393428Y-45574000D01*
X125355333Y-45612095D01*
X124669619Y-45802571D02*
X124669619Y-46335904D01*
X124860095Y-45497809D02*
X125050571Y-46069238D01*
X124555333Y-46069238D01*
%TO.C,C2*%
X149891714Y-95624666D02*
X149929809Y-95586571D01*
X149967904Y-95472285D01*
X149967904Y-95396095D01*
X149929809Y-95281809D01*
X149853619Y-95205619D01*
X149777428Y-95167523D01*
X149625047Y-95129428D01*
X149510761Y-95129428D01*
X149358380Y-95167523D01*
X149282190Y-95205619D01*
X149206000Y-95281809D01*
X149167904Y-95396095D01*
X149167904Y-95472285D01*
X149206000Y-95586571D01*
X149244095Y-95624666D01*
X149244095Y-95929428D02*
X149206000Y-95967523D01*
X149167904Y-96043714D01*
X149167904Y-96234190D01*
X149206000Y-96310380D01*
X149244095Y-96348476D01*
X149320285Y-96386571D01*
X149396476Y-96386571D01*
X149510761Y-96348476D01*
X149967904Y-95891333D01*
X149967904Y-96386571D01*
%TO.C,C1*%
X130460714Y-59683666D02*
X130498809Y-59645571D01*
X130536904Y-59531285D01*
X130536904Y-59455095D01*
X130498809Y-59340809D01*
X130422619Y-59264619D01*
X130346428Y-59226523D01*
X130194047Y-59188428D01*
X130079761Y-59188428D01*
X129927380Y-59226523D01*
X129851190Y-59264619D01*
X129775000Y-59340809D01*
X129736904Y-59455095D01*
X129736904Y-59531285D01*
X129775000Y-59645571D01*
X129813095Y-59683666D01*
X130536904Y-60445571D02*
X130536904Y-59988428D01*
X130536904Y-60217000D02*
X129736904Y-60217000D01*
X129851190Y-60140809D01*
X129927380Y-60064619D01*
X129965476Y-59988428D01*
%TO.C,R36*%
X125329904Y-134613714D02*
X124948952Y-134347047D01*
X125329904Y-134156571D02*
X124529904Y-134156571D01*
X124529904Y-134461333D01*
X124568000Y-134537523D01*
X124606095Y-134575619D01*
X124682285Y-134613714D01*
X124796571Y-134613714D01*
X124872761Y-134575619D01*
X124910857Y-134537523D01*
X124948952Y-134461333D01*
X124948952Y-134156571D01*
X124529904Y-134880380D02*
X124529904Y-135375619D01*
X124834666Y-135108952D01*
X124834666Y-135223238D01*
X124872761Y-135299428D01*
X124910857Y-135337523D01*
X124987047Y-135375619D01*
X125177523Y-135375619D01*
X125253714Y-135337523D01*
X125291809Y-135299428D01*
X125329904Y-135223238D01*
X125329904Y-134994666D01*
X125291809Y-134918476D01*
X125253714Y-134880380D01*
X124529904Y-136061333D02*
X124529904Y-135908952D01*
X124568000Y-135832761D01*
X124606095Y-135794666D01*
X124720380Y-135718476D01*
X124872761Y-135680380D01*
X125177523Y-135680380D01*
X125253714Y-135718476D01*
X125291809Y-135756571D01*
X125329904Y-135832761D01*
X125329904Y-135985142D01*
X125291809Y-136061333D01*
X125253714Y-136099428D01*
X125177523Y-136137523D01*
X124987047Y-136137523D01*
X124910857Y-136099428D01*
X124872761Y-136061333D01*
X124834666Y-135985142D01*
X124834666Y-135832761D01*
X124872761Y-135756571D01*
X124910857Y-135718476D01*
X124987047Y-135680380D01*
%TO.C,R29*%
X106279904Y-134613714D02*
X105898952Y-134347047D01*
X106279904Y-134156571D02*
X105479904Y-134156571D01*
X105479904Y-134461333D01*
X105518000Y-134537523D01*
X105556095Y-134575619D01*
X105632285Y-134613714D01*
X105746571Y-134613714D01*
X105822761Y-134575619D01*
X105860857Y-134537523D01*
X105898952Y-134461333D01*
X105898952Y-134156571D01*
X105556095Y-134918476D02*
X105518000Y-134956571D01*
X105479904Y-135032761D01*
X105479904Y-135223238D01*
X105518000Y-135299428D01*
X105556095Y-135337523D01*
X105632285Y-135375619D01*
X105708476Y-135375619D01*
X105822761Y-135337523D01*
X106279904Y-134880380D01*
X106279904Y-135375619D01*
X106279904Y-135756571D02*
X106279904Y-135908952D01*
X106241809Y-135985142D01*
X106203714Y-136023238D01*
X106089428Y-136099428D01*
X105937047Y-136137523D01*
X105632285Y-136137523D01*
X105556095Y-136099428D01*
X105518000Y-136061333D01*
X105479904Y-135985142D01*
X105479904Y-135832761D01*
X105518000Y-135756571D01*
X105556095Y-135718476D01*
X105632285Y-135680380D01*
X105822761Y-135680380D01*
X105898952Y-135718476D01*
X105937047Y-135756571D01*
X105975142Y-135832761D01*
X105975142Y-135985142D01*
X105937047Y-136061333D01*
X105898952Y-136099428D01*
X105822761Y-136137523D01*
%TO.C,R23*%
X158883285Y-128377904D02*
X159149952Y-127996952D01*
X159340428Y-128377904D02*
X159340428Y-127577904D01*
X159035666Y-127577904D01*
X158959476Y-127616000D01*
X158921380Y-127654095D01*
X158883285Y-127730285D01*
X158883285Y-127844571D01*
X158921380Y-127920761D01*
X158959476Y-127958857D01*
X159035666Y-127996952D01*
X159340428Y-127996952D01*
X158578523Y-127654095D02*
X158540428Y-127616000D01*
X158464238Y-127577904D01*
X158273761Y-127577904D01*
X158197571Y-127616000D01*
X158159476Y-127654095D01*
X158121380Y-127730285D01*
X158121380Y-127806476D01*
X158159476Y-127920761D01*
X158616619Y-128377904D01*
X158121380Y-128377904D01*
X157854714Y-127577904D02*
X157359476Y-127577904D01*
X157626142Y-127882666D01*
X157511857Y-127882666D01*
X157435666Y-127920761D01*
X157397571Y-127958857D01*
X157359476Y-128035047D01*
X157359476Y-128225523D01*
X157397571Y-128301714D01*
X157435666Y-128339809D01*
X157511857Y-128377904D01*
X157740428Y-128377904D01*
X157816619Y-128339809D01*
X157854714Y-128301714D01*
%TD*%
M02*
