%TF.GenerationSoftware,KiCad,Pcbnew,(5.1.10-1-10_14)*%
%TF.CreationDate,2021-08-10T22:16:19+10:00*%
%TF.ProjectId,pda6502v2,70646136-3530-4327-9632-2e6b69636164,rev?*%
%TF.SameCoordinates,Original*%
%TF.FileFunction,Legend,Top*%
%TF.FilePolarity,Positive*%
%FSLAX46Y46*%
G04 Gerber Fmt 4.6, Leading zero omitted, Abs format (unit mm)*
G04 Created by KiCad (PCBNEW (5.1.10-1-10_14)) date 2021-08-10 22:16:19*
%MOMM*%
%LPD*%
G01*
G04 APERTURE LIST*
%ADD10C,0.150000*%
%ADD11C,0.120000*%
%ADD12C,0.100000*%
%ADD13C,0.010000*%
%ADD14C,0.480000*%
%ADD15C,0.240000*%
G04 APERTURE END LIST*
D10*
X193097142Y-131641857D02*
X193211428Y-131679952D01*
X193249523Y-131718047D01*
X193287619Y-131794238D01*
X193287619Y-131908523D01*
X193249523Y-131984714D01*
X193211428Y-132022809D01*
X193135238Y-132060904D01*
X192830476Y-132060904D01*
X192830476Y-131260904D01*
X193097142Y-131260904D01*
X193173333Y-131299000D01*
X193211428Y-131337095D01*
X193249523Y-131413285D01*
X193249523Y-131489476D01*
X193211428Y-131565666D01*
X193173333Y-131603761D01*
X193097142Y-131641857D01*
X192830476Y-131641857D01*
X190309523Y-131832333D02*
X190690476Y-131832333D01*
X190233333Y-132060904D02*
X190500000Y-131260904D01*
X190766666Y-132060904D01*
D11*
X176276000Y-137795000D02*
X175641000Y-137795000D01*
X175641000Y-137795000D02*
X175641000Y-137414000D01*
X179324000Y-137795000D02*
X179959000Y-137795000D01*
X179959000Y-137795000D02*
X179959000Y-137414000D01*
D10*
X177323809Y-138207714D02*
X177285714Y-138245809D01*
X177171428Y-138283904D01*
X177095238Y-138283904D01*
X176980952Y-138245809D01*
X176904761Y-138169619D01*
X176866666Y-138093428D01*
X176828571Y-137941047D01*
X176828571Y-137826761D01*
X176866666Y-137674380D01*
X176904761Y-137598190D01*
X176980952Y-137522000D01*
X177095238Y-137483904D01*
X177171428Y-137483904D01*
X177285714Y-137522000D01*
X177323809Y-137560095D01*
X178047619Y-138283904D02*
X177666666Y-138283904D01*
X177666666Y-137483904D01*
X178314285Y-138283904D02*
X178314285Y-137483904D01*
X178771428Y-138283904D02*
X178428571Y-137826761D01*
X178771428Y-137483904D02*
X178314285Y-137941047D01*
X169519761Y-118939904D02*
X169519761Y-118139904D01*
X169710238Y-118139904D01*
X169824523Y-118178000D01*
X169900714Y-118254190D01*
X169938809Y-118330380D01*
X169976904Y-118482761D01*
X169976904Y-118597047D01*
X169938809Y-118749428D01*
X169900714Y-118825619D01*
X169824523Y-118901809D01*
X169710238Y-118939904D01*
X169519761Y-118939904D01*
X170319761Y-118139904D02*
X170319761Y-118787523D01*
X170357857Y-118863714D01*
X170395952Y-118901809D01*
X170472142Y-118939904D01*
X170624523Y-118939904D01*
X170700714Y-118901809D01*
X170738809Y-118863714D01*
X170776904Y-118787523D01*
X170776904Y-118139904D01*
X171119761Y-118711333D02*
X171500714Y-118711333D01*
X171043571Y-118939904D02*
X171310238Y-118139904D01*
X171576904Y-118939904D01*
X172224523Y-118939904D02*
X171843571Y-118939904D01*
X171843571Y-118139904D01*
X169538809Y-119489904D02*
X169538809Y-120137523D01*
X169576904Y-120213714D01*
X169615000Y-120251809D01*
X169691190Y-120289904D01*
X169843571Y-120289904D01*
X169919761Y-120251809D01*
X169957857Y-120213714D01*
X169995952Y-120137523D01*
X169995952Y-119489904D01*
X170338809Y-120061333D02*
X170719761Y-120061333D01*
X170262619Y-120289904D02*
X170529285Y-119489904D01*
X170795952Y-120289904D01*
X171519761Y-120289904D02*
X171253095Y-119908952D01*
X171062619Y-120289904D02*
X171062619Y-119489904D01*
X171367380Y-119489904D01*
X171443571Y-119528000D01*
X171481666Y-119566095D01*
X171519761Y-119642285D01*
X171519761Y-119756571D01*
X171481666Y-119832761D01*
X171443571Y-119870857D01*
X171367380Y-119908952D01*
X171062619Y-119908952D01*
X171748333Y-119489904D02*
X172205476Y-119489904D01*
X171976904Y-120289904D02*
X171976904Y-119489904D01*
X180079809Y-101081904D02*
X180079809Y-101729523D01*
X180117904Y-101805714D01*
X180156000Y-101843809D01*
X180232190Y-101881904D01*
X180384571Y-101881904D01*
X180460761Y-101843809D01*
X180498857Y-101805714D01*
X180536952Y-101729523D01*
X180536952Y-101081904D01*
X180879809Y-101653333D02*
X181260761Y-101653333D01*
X180803619Y-101881904D02*
X181070285Y-101081904D01*
X181336952Y-101881904D01*
X182060761Y-101881904D02*
X181794095Y-101500952D01*
X181603619Y-101881904D02*
X181603619Y-101081904D01*
X181908380Y-101081904D01*
X181984571Y-101120000D01*
X182022666Y-101158095D01*
X182060761Y-101234285D01*
X182060761Y-101348571D01*
X182022666Y-101424761D01*
X181984571Y-101462857D01*
X181908380Y-101500952D01*
X181603619Y-101500952D01*
X182289333Y-101081904D02*
X182746476Y-101081904D01*
X182517904Y-101881904D02*
X182517904Y-101081904D01*
X179508380Y-103155714D02*
X179470285Y-103193809D01*
X179356000Y-103231904D01*
X179279809Y-103231904D01*
X179165523Y-103193809D01*
X179089333Y-103117619D01*
X179051238Y-103041428D01*
X179013142Y-102889047D01*
X179013142Y-102774761D01*
X179051238Y-102622380D01*
X179089333Y-102546190D01*
X179165523Y-102470000D01*
X179279809Y-102431904D01*
X179356000Y-102431904D01*
X179470285Y-102470000D01*
X179508380Y-102508095D01*
X180308380Y-103231904D02*
X180041714Y-102850952D01*
X179851238Y-103231904D02*
X179851238Y-102431904D01*
X180156000Y-102431904D01*
X180232190Y-102470000D01*
X180270285Y-102508095D01*
X180308380Y-102584285D01*
X180308380Y-102698571D01*
X180270285Y-102774761D01*
X180232190Y-102812857D01*
X180156000Y-102850952D01*
X179851238Y-102850952D01*
X180803619Y-102850952D02*
X180803619Y-103231904D01*
X180536952Y-102431904D02*
X180803619Y-102850952D01*
X181070285Y-102431904D01*
X181298857Y-103193809D02*
X181413142Y-103231904D01*
X181603619Y-103231904D01*
X181679809Y-103193809D01*
X181717904Y-103155714D01*
X181756000Y-103079523D01*
X181756000Y-103003333D01*
X181717904Y-102927142D01*
X181679809Y-102889047D01*
X181603619Y-102850952D01*
X181451238Y-102812857D01*
X181375047Y-102774761D01*
X181336952Y-102736666D01*
X181298857Y-102660476D01*
X181298857Y-102584285D01*
X181336952Y-102508095D01*
X181375047Y-102470000D01*
X181451238Y-102431904D01*
X181641714Y-102431904D01*
X181756000Y-102470000D01*
X181984571Y-102431904D02*
X182441714Y-102431904D01*
X182213142Y-103231904D02*
X182213142Y-102431904D01*
X182670285Y-103003333D02*
X183051238Y-103003333D01*
X182594095Y-103231904D02*
X182860761Y-102431904D01*
X183127428Y-103231904D01*
X183775047Y-103231904D02*
X183394095Y-103231904D01*
X183394095Y-102431904D01*
X178194095Y-103781904D02*
X178346476Y-103781904D01*
X178422666Y-103820000D01*
X178498857Y-103896190D01*
X178536952Y-104048571D01*
X178536952Y-104315238D01*
X178498857Y-104467619D01*
X178422666Y-104543809D01*
X178346476Y-104581904D01*
X178194095Y-104581904D01*
X178117904Y-104543809D01*
X178041714Y-104467619D01*
X178003619Y-104315238D01*
X178003619Y-104048571D01*
X178041714Y-103896190D01*
X178117904Y-103820000D01*
X178194095Y-103781904D01*
X178841714Y-104543809D02*
X178956000Y-104581904D01*
X179146476Y-104581904D01*
X179222666Y-104543809D01*
X179260761Y-104505714D01*
X179298857Y-104429523D01*
X179298857Y-104353333D01*
X179260761Y-104277142D01*
X179222666Y-104239047D01*
X179146476Y-104200952D01*
X178994095Y-104162857D01*
X178917904Y-104124761D01*
X178879809Y-104086666D01*
X178841714Y-104010476D01*
X178841714Y-103934285D01*
X178879809Y-103858095D01*
X178917904Y-103820000D01*
X178994095Y-103781904D01*
X179184571Y-103781904D01*
X179298857Y-103820000D01*
X180098857Y-104505714D02*
X180060761Y-104543809D01*
X179946476Y-104581904D01*
X179870285Y-104581904D01*
X179756000Y-104543809D01*
X179679809Y-104467619D01*
X179641714Y-104391428D01*
X179603619Y-104239047D01*
X179603619Y-104124761D01*
X179641714Y-103972380D01*
X179679809Y-103896190D01*
X179756000Y-103820000D01*
X179870285Y-103781904D01*
X179946476Y-103781904D01*
X180060761Y-103820000D01*
X180098857Y-103858095D01*
X180441714Y-104581904D02*
X180441714Y-103781904D01*
X181203619Y-104581904D02*
X180822666Y-104581904D01*
X180822666Y-103781904D01*
X181851238Y-104581904D02*
X181470285Y-104581904D01*
X181470285Y-103781904D01*
X182079809Y-104353333D02*
X182460761Y-104353333D01*
X182003619Y-104581904D02*
X182270285Y-103781904D01*
X182536952Y-104581904D01*
X182689333Y-103781904D02*
X183146476Y-103781904D01*
X182917904Y-104581904D02*
X182917904Y-103781904D01*
X183565523Y-103781904D02*
X183717904Y-103781904D01*
X183794095Y-103820000D01*
X183870285Y-103896190D01*
X183908380Y-104048571D01*
X183908380Y-104315238D01*
X183870285Y-104467619D01*
X183794095Y-104543809D01*
X183717904Y-104581904D01*
X183565523Y-104581904D01*
X183489333Y-104543809D01*
X183413142Y-104467619D01*
X183375047Y-104315238D01*
X183375047Y-104048571D01*
X183413142Y-103896190D01*
X183489333Y-103820000D01*
X183565523Y-103781904D01*
X184708380Y-104581904D02*
X184441714Y-104200952D01*
X184251238Y-104581904D02*
X184251238Y-103781904D01*
X184556000Y-103781904D01*
X184632190Y-103820000D01*
X184670285Y-103858095D01*
X184708380Y-103934285D01*
X184708380Y-104048571D01*
X184670285Y-104124761D01*
X184632190Y-104162857D01*
X184556000Y-104200952D01*
X184251238Y-104200952D01*
D11*
X99441000Y-89535000D02*
X99441000Y-87376000D01*
X99441000Y-89535000D02*
X99949000Y-89535000D01*
X99441000Y-74295000D02*
X99949000Y-74295000D01*
X99441000Y-76454000D02*
X99441000Y-74295000D01*
X99441000Y-90678000D02*
X99949000Y-90678000D01*
X99441000Y-90678000D02*
X99441000Y-96266000D01*
X99441000Y-106934000D02*
X99949000Y-106934000D01*
X99441000Y-101346000D02*
X99441000Y-106934000D01*
D10*
X99155285Y-129406666D02*
X99117190Y-129368571D01*
X99079095Y-129254285D01*
X99079095Y-129178095D01*
X99117190Y-129063809D01*
X99193380Y-128987619D01*
X99269571Y-128949523D01*
X99421952Y-128911428D01*
X99536238Y-128911428D01*
X99688619Y-128949523D01*
X99764809Y-128987619D01*
X99841000Y-129063809D01*
X99879095Y-129178095D01*
X99879095Y-129254285D01*
X99841000Y-129368571D01*
X99802904Y-129406666D01*
X99117190Y-129711428D02*
X99079095Y-129825714D01*
X99079095Y-130016190D01*
X99117190Y-130092380D01*
X99155285Y-130130476D01*
X99231476Y-130168571D01*
X99307666Y-130168571D01*
X99383857Y-130130476D01*
X99421952Y-130092380D01*
X99460047Y-130016190D01*
X99498142Y-129863809D01*
X99536238Y-129787619D01*
X99574333Y-129749523D01*
X99650523Y-129711428D01*
X99726714Y-129711428D01*
X99802904Y-129749523D01*
X99841000Y-129787619D01*
X99879095Y-129863809D01*
X99879095Y-130054285D01*
X99841000Y-130168571D01*
X99117190Y-125971428D02*
X99079095Y-126085714D01*
X99079095Y-126276190D01*
X99117190Y-126352380D01*
X99155285Y-126390476D01*
X99231476Y-126428571D01*
X99307666Y-126428571D01*
X99383857Y-126390476D01*
X99421952Y-126352380D01*
X99460047Y-126276190D01*
X99498142Y-126123809D01*
X99536238Y-126047619D01*
X99574333Y-126009523D01*
X99650523Y-125971428D01*
X99726714Y-125971428D01*
X99802904Y-126009523D01*
X99841000Y-126047619D01*
X99879095Y-126123809D01*
X99879095Y-126314285D01*
X99841000Y-126428571D01*
X99155285Y-127228571D02*
X99117190Y-127190476D01*
X99079095Y-127076190D01*
X99079095Y-127000000D01*
X99117190Y-126885714D01*
X99193380Y-126809523D01*
X99269571Y-126771428D01*
X99421952Y-126733333D01*
X99536238Y-126733333D01*
X99688619Y-126771428D01*
X99764809Y-126809523D01*
X99841000Y-126885714D01*
X99879095Y-127000000D01*
X99879095Y-127076190D01*
X99841000Y-127190476D01*
X99802904Y-127228571D01*
X99079095Y-127571428D02*
X99879095Y-127571428D01*
X99079095Y-128028571D02*
X99536238Y-127685714D01*
X99879095Y-128028571D02*
X99421952Y-127571428D01*
X99079095Y-124002857D02*
X99879095Y-124002857D01*
X99307666Y-124269523D01*
X99879095Y-124536190D01*
X99079095Y-124536190D01*
X99079095Y-124917142D02*
X99879095Y-124917142D01*
X106244023Y-129267000D02*
X106167833Y-129228904D01*
X106053547Y-129228904D01*
X105939261Y-129267000D01*
X105863071Y-129343190D01*
X105824976Y-129419380D01*
X105786880Y-129571761D01*
X105786880Y-129686047D01*
X105824976Y-129838428D01*
X105863071Y-129914619D01*
X105939261Y-129990809D01*
X106053547Y-130028904D01*
X106129738Y-130028904D01*
X106244023Y-129990809D01*
X106282119Y-129952714D01*
X106282119Y-129686047D01*
X106129738Y-129686047D01*
X106624976Y-130028904D02*
X106624976Y-129228904D01*
X107082119Y-130028904D01*
X107082119Y-129228904D01*
X107463071Y-130028904D02*
X107463071Y-129228904D01*
X107653547Y-129228904D01*
X107767833Y-129267000D01*
X107844023Y-129343190D01*
X107882119Y-129419380D01*
X107920214Y-129571761D01*
X107920214Y-129686047D01*
X107882119Y-129838428D01*
X107844023Y-129914619D01*
X107767833Y-129990809D01*
X107653547Y-130028904D01*
X107463071Y-130028904D01*
X105824976Y-127361904D02*
X105824976Y-126561904D01*
X106091642Y-127133333D01*
X106358309Y-126561904D01*
X106358309Y-127361904D01*
X106891642Y-126561904D02*
X107044023Y-126561904D01*
X107120214Y-126600000D01*
X107196404Y-126676190D01*
X107234500Y-126828571D01*
X107234500Y-127095238D01*
X107196404Y-127247619D01*
X107120214Y-127323809D01*
X107044023Y-127361904D01*
X106891642Y-127361904D01*
X106815452Y-127323809D01*
X106739261Y-127247619D01*
X106701166Y-127095238D01*
X106701166Y-126828571D01*
X106739261Y-126676190D01*
X106815452Y-126600000D01*
X106891642Y-126561904D01*
X105748785Y-124021904D02*
X106244023Y-124021904D01*
X105977357Y-124326666D01*
X106091642Y-124326666D01*
X106167833Y-124364761D01*
X106205928Y-124402857D01*
X106244023Y-124479047D01*
X106244023Y-124669523D01*
X106205928Y-124745714D01*
X106167833Y-124783809D01*
X106091642Y-124821904D01*
X105863071Y-124821904D01*
X105786880Y-124783809D01*
X105748785Y-124745714D01*
X106586880Y-124745714D02*
X106624976Y-124783809D01*
X106586880Y-124821904D01*
X106548785Y-124783809D01*
X106586880Y-124745714D01*
X106586880Y-124821904D01*
X106891642Y-124021904D02*
X107386880Y-124021904D01*
X107120214Y-124326666D01*
X107234500Y-124326666D01*
X107310690Y-124364761D01*
X107348785Y-124402857D01*
X107386880Y-124479047D01*
X107386880Y-124669523D01*
X107348785Y-124745714D01*
X107310690Y-124783809D01*
X107234500Y-124821904D01*
X107005928Y-124821904D01*
X106929738Y-124783809D01*
X106891642Y-124745714D01*
X107615452Y-124021904D02*
X107882119Y-124821904D01*
X108148785Y-124021904D01*
D11*
X99695000Y-119380000D02*
X99949000Y-119380000D01*
X99695000Y-115697000D02*
X99695000Y-119380000D01*
X99695000Y-109220000D02*
X99949000Y-109220000D01*
X99695000Y-112903000D02*
X99695000Y-109220000D01*
D10*
X99968000Y-113690476D02*
X100006095Y-113614285D01*
X100006095Y-113500000D01*
X99968000Y-113385714D01*
X99891809Y-113309523D01*
X99815619Y-113271428D01*
X99663238Y-113233333D01*
X99548952Y-113233333D01*
X99396571Y-113271428D01*
X99320380Y-113309523D01*
X99244190Y-113385714D01*
X99206095Y-113500000D01*
X99206095Y-113576190D01*
X99244190Y-113690476D01*
X99282285Y-113728571D01*
X99548952Y-113728571D01*
X99548952Y-113576190D01*
X99206095Y-114071428D02*
X100006095Y-114071428D01*
X99206095Y-114528571D01*
X100006095Y-114528571D01*
X99206095Y-114909523D02*
X100006095Y-114909523D01*
X100006095Y-115100000D01*
X99968000Y-115214285D01*
X99891809Y-115290476D01*
X99815619Y-115328571D01*
X99663238Y-115366666D01*
X99548952Y-115366666D01*
X99396571Y-115328571D01*
X99320380Y-115290476D01*
X99244190Y-115214285D01*
X99206095Y-115100000D01*
X99206095Y-114909523D01*
X106244023Y-118471904D02*
X105786880Y-118471904D01*
X106015452Y-118471904D02*
X106015452Y-117671904D01*
X105939261Y-117786190D01*
X105863071Y-117862380D01*
X105786880Y-117900476D01*
X106586880Y-118395714D02*
X106624976Y-118433809D01*
X106586880Y-118471904D01*
X106548785Y-118433809D01*
X106586880Y-118395714D01*
X106586880Y-118471904D01*
X106929738Y-117748095D02*
X106967833Y-117710000D01*
X107044023Y-117671904D01*
X107234500Y-117671904D01*
X107310690Y-117710000D01*
X107348785Y-117748095D01*
X107386880Y-117824285D01*
X107386880Y-117900476D01*
X107348785Y-118014761D01*
X106891642Y-118471904D01*
X107386880Y-118471904D01*
X107615452Y-117671904D02*
X107882119Y-118471904D01*
X108148785Y-117671904D01*
X105786880Y-115208095D02*
X105824976Y-115170000D01*
X105901166Y-115131904D01*
X106091642Y-115131904D01*
X106167833Y-115170000D01*
X106205928Y-115208095D01*
X106244023Y-115284285D01*
X106244023Y-115360476D01*
X106205928Y-115474761D01*
X105748785Y-115931904D01*
X106244023Y-115931904D01*
X106586880Y-115855714D02*
X106624976Y-115893809D01*
X106586880Y-115931904D01*
X106548785Y-115893809D01*
X106586880Y-115855714D01*
X106586880Y-115931904D01*
X107348785Y-115131904D02*
X106967833Y-115131904D01*
X106929738Y-115512857D01*
X106967833Y-115474761D01*
X107044023Y-115436666D01*
X107234500Y-115436666D01*
X107310690Y-115474761D01*
X107348785Y-115512857D01*
X107386880Y-115589047D01*
X107386880Y-115779523D01*
X107348785Y-115855714D01*
X107310690Y-115893809D01*
X107234500Y-115931904D01*
X107044023Y-115931904D01*
X106967833Y-115893809D01*
X106929738Y-115855714D01*
X107615452Y-115131904D02*
X107882119Y-115931904D01*
X108148785Y-115131904D01*
X105748785Y-112591904D02*
X106244023Y-112591904D01*
X105977357Y-112896666D01*
X106091642Y-112896666D01*
X106167833Y-112934761D01*
X106205928Y-112972857D01*
X106244023Y-113049047D01*
X106244023Y-113239523D01*
X106205928Y-113315714D01*
X106167833Y-113353809D01*
X106091642Y-113391904D01*
X105863071Y-113391904D01*
X105786880Y-113353809D01*
X105748785Y-113315714D01*
X106586880Y-113315714D02*
X106624976Y-113353809D01*
X106586880Y-113391904D01*
X106548785Y-113353809D01*
X106586880Y-113315714D01*
X106586880Y-113391904D01*
X106891642Y-112591904D02*
X107386880Y-112591904D01*
X107120214Y-112896666D01*
X107234500Y-112896666D01*
X107310690Y-112934761D01*
X107348785Y-112972857D01*
X107386880Y-113049047D01*
X107386880Y-113239523D01*
X107348785Y-113315714D01*
X107310690Y-113353809D01*
X107234500Y-113391904D01*
X107005928Y-113391904D01*
X106929738Y-113353809D01*
X106891642Y-113315714D01*
X107615452Y-112591904D02*
X107882119Y-113391904D01*
X108148785Y-112591904D01*
X106205928Y-110178904D02*
X105824976Y-110178904D01*
X105786880Y-110559857D01*
X105824976Y-110521761D01*
X105901166Y-110483666D01*
X106091642Y-110483666D01*
X106167833Y-110521761D01*
X106205928Y-110559857D01*
X106244023Y-110636047D01*
X106244023Y-110826523D01*
X106205928Y-110902714D01*
X106167833Y-110940809D01*
X106091642Y-110978904D01*
X105901166Y-110978904D01*
X105824976Y-110940809D01*
X105786880Y-110902714D01*
X106472595Y-110178904D02*
X106739261Y-110978904D01*
X107005928Y-110178904D01*
X196223000Y-66627142D02*
X196175380Y-66722380D01*
X196175380Y-66865238D01*
X196223000Y-67008095D01*
X196318238Y-67103333D01*
X196413476Y-67150952D01*
X196603952Y-67198571D01*
X196746809Y-67198571D01*
X196937285Y-67150952D01*
X197032523Y-67103333D01*
X197127761Y-67008095D01*
X197175380Y-66865238D01*
X197175380Y-66770000D01*
X197127761Y-66627142D01*
X197080142Y-66579523D01*
X196746809Y-66579523D01*
X196746809Y-66770000D01*
X197175380Y-66150952D02*
X196175380Y-66150952D01*
X196175380Y-65770000D01*
X196223000Y-65674761D01*
X196270619Y-65627142D01*
X196365857Y-65579523D01*
X196508714Y-65579523D01*
X196603952Y-65627142D01*
X196651571Y-65674761D01*
X196699190Y-65770000D01*
X196699190Y-66150952D01*
X197175380Y-65150952D02*
X196175380Y-65150952D01*
X196175380Y-64484285D02*
X196175380Y-64293809D01*
X196223000Y-64198571D01*
X196318238Y-64103333D01*
X196508714Y-64055714D01*
X196842047Y-64055714D01*
X197032523Y-64103333D01*
X197127761Y-64198571D01*
X197175380Y-64293809D01*
X197175380Y-64484285D01*
X197127761Y-64579523D01*
X197032523Y-64674761D01*
X196842047Y-64722380D01*
X196508714Y-64722380D01*
X196318238Y-64674761D01*
X196223000Y-64579523D01*
X196175380Y-64484285D01*
X197175380Y-62341428D02*
X197175380Y-62912857D01*
X197175380Y-62627142D02*
X196175380Y-62627142D01*
X196318238Y-62722380D01*
X196413476Y-62817619D01*
X196461095Y-62912857D01*
X148323333Y-130879904D02*
X148856666Y-130879904D01*
X148513809Y-131679904D01*
X150977619Y-131679904D02*
X151130000Y-131679904D01*
X151206190Y-131641809D01*
X151244285Y-131603714D01*
X151320476Y-131489428D01*
X151358571Y-131337047D01*
X151358571Y-131032285D01*
X151320476Y-130956095D01*
X151282380Y-130918000D01*
X151206190Y-130879904D01*
X151053809Y-130879904D01*
X150977619Y-130918000D01*
X150939523Y-130956095D01*
X150901428Y-131032285D01*
X150901428Y-131222761D01*
X150939523Y-131298952D01*
X150977619Y-131337047D01*
X151053809Y-131375142D01*
X151206190Y-131375142D01*
X151282380Y-131337047D01*
X151320476Y-131298952D01*
X151358571Y-131222761D01*
X146240476Y-130879904D02*
X145859523Y-130879904D01*
X145821428Y-131260857D01*
X145859523Y-131222761D01*
X145935714Y-131184666D01*
X146126190Y-131184666D01*
X146202380Y-131222761D01*
X146240476Y-131260857D01*
X146278571Y-131337047D01*
X146278571Y-131527523D01*
X146240476Y-131603714D01*
X146202380Y-131641809D01*
X146126190Y-131679904D01*
X145935714Y-131679904D01*
X145859523Y-131641809D01*
X145821428Y-131603714D01*
X143243333Y-130879904D02*
X143738571Y-130879904D01*
X143471904Y-131184666D01*
X143586190Y-131184666D01*
X143662380Y-131222761D01*
X143700476Y-131260857D01*
X143738571Y-131337047D01*
X143738571Y-131527523D01*
X143700476Y-131603714D01*
X143662380Y-131641809D01*
X143586190Y-131679904D01*
X143357619Y-131679904D01*
X143281428Y-131641809D01*
X143243333Y-131603714D01*
X153517619Y-131679904D02*
X153060476Y-131679904D01*
X153289047Y-131679904D02*
X153289047Y-130879904D01*
X153212857Y-130994190D01*
X153136666Y-131070380D01*
X153060476Y-131108476D01*
X154279523Y-131679904D02*
X153822380Y-131679904D01*
X154050952Y-131679904D02*
X154050952Y-130879904D01*
X153974761Y-130994190D01*
X153898571Y-131070380D01*
X153822380Y-131108476D01*
X156057619Y-131679904D02*
X155600476Y-131679904D01*
X155829047Y-131679904D02*
X155829047Y-130879904D01*
X155752857Y-130994190D01*
X155676666Y-131070380D01*
X155600476Y-131108476D01*
X156324285Y-130879904D02*
X156819523Y-130879904D01*
X156552857Y-131184666D01*
X156667142Y-131184666D01*
X156743333Y-131222761D01*
X156781428Y-131260857D01*
X156819523Y-131337047D01*
X156819523Y-131527523D01*
X156781428Y-131603714D01*
X156743333Y-131641809D01*
X156667142Y-131679904D01*
X156438571Y-131679904D01*
X156362380Y-131641809D01*
X156324285Y-131603714D01*
X186910261Y-50361904D02*
X187405500Y-50361904D01*
X187138833Y-50666666D01*
X187253119Y-50666666D01*
X187329309Y-50704761D01*
X187367404Y-50742857D01*
X187405500Y-50819047D01*
X187405500Y-51009523D01*
X187367404Y-51085714D01*
X187329309Y-51123809D01*
X187253119Y-51161904D01*
X187024547Y-51161904D01*
X186948357Y-51123809D01*
X186910261Y-51085714D01*
X187634071Y-50361904D02*
X187900738Y-51161904D01*
X188167404Y-50361904D01*
X188357880Y-50361904D02*
X188853119Y-50361904D01*
X188586452Y-50666666D01*
X188700738Y-50666666D01*
X188776928Y-50704761D01*
X188815023Y-50742857D01*
X188853119Y-50819047D01*
X188853119Y-51009523D01*
X188815023Y-51085714D01*
X188776928Y-51123809D01*
X188700738Y-51161904D01*
X188472166Y-51161904D01*
X188395976Y-51123809D01*
X188357880Y-51085714D01*
X195144023Y-50400000D02*
X195067833Y-50361904D01*
X194953547Y-50361904D01*
X194839261Y-50400000D01*
X194763071Y-50476190D01*
X194724976Y-50552380D01*
X194686880Y-50704761D01*
X194686880Y-50819047D01*
X194724976Y-50971428D01*
X194763071Y-51047619D01*
X194839261Y-51123809D01*
X194953547Y-51161904D01*
X195029738Y-51161904D01*
X195144023Y-51123809D01*
X195182119Y-51085714D01*
X195182119Y-50819047D01*
X195029738Y-50819047D01*
X195524976Y-51161904D02*
X195524976Y-50361904D01*
X195982119Y-51161904D01*
X195982119Y-50361904D01*
X196363071Y-51161904D02*
X196363071Y-50361904D01*
X196553547Y-50361904D01*
X196667833Y-50400000D01*
X196744023Y-50476190D01*
X196782119Y-50552380D01*
X196820214Y-50704761D01*
X196820214Y-50819047D01*
X196782119Y-50971428D01*
X196744023Y-51047619D01*
X196667833Y-51123809D01*
X196553547Y-51161904D01*
X196363071Y-51161904D01*
X195144023Y-83420000D02*
X195067833Y-83381904D01*
X194953547Y-83381904D01*
X194839261Y-83420000D01*
X194763071Y-83496190D01*
X194724976Y-83572380D01*
X194686880Y-83724761D01*
X194686880Y-83839047D01*
X194724976Y-83991428D01*
X194763071Y-84067619D01*
X194839261Y-84143809D01*
X194953547Y-84181904D01*
X195029738Y-84181904D01*
X195144023Y-84143809D01*
X195182119Y-84105714D01*
X195182119Y-83839047D01*
X195029738Y-83839047D01*
X195524976Y-84181904D02*
X195524976Y-83381904D01*
X195982119Y-84181904D01*
X195982119Y-83381904D01*
X196363071Y-84181904D02*
X196363071Y-83381904D01*
X196553547Y-83381904D01*
X196667833Y-83420000D01*
X196744023Y-83496190D01*
X196782119Y-83572380D01*
X196820214Y-83724761D01*
X196820214Y-83839047D01*
X196782119Y-83991428D01*
X196744023Y-84067619D01*
X196667833Y-84143809D01*
X196553547Y-84181904D01*
X196363071Y-84181904D01*
X186910261Y-83381904D02*
X187405500Y-83381904D01*
X187138833Y-83686666D01*
X187253119Y-83686666D01*
X187329309Y-83724761D01*
X187367404Y-83762857D01*
X187405500Y-83839047D01*
X187405500Y-84029523D01*
X187367404Y-84105714D01*
X187329309Y-84143809D01*
X187253119Y-84181904D01*
X187024547Y-84181904D01*
X186948357Y-84143809D01*
X186910261Y-84105714D01*
X187634071Y-83381904D02*
X187900738Y-84181904D01*
X188167404Y-83381904D01*
X188357880Y-83381904D02*
X188853119Y-83381904D01*
X188586452Y-83686666D01*
X188700738Y-83686666D01*
X188776928Y-83724761D01*
X188815023Y-83762857D01*
X188853119Y-83839047D01*
X188853119Y-84029523D01*
X188815023Y-84105714D01*
X188776928Y-84143809D01*
X188700738Y-84181904D01*
X188472166Y-84181904D01*
X188395976Y-84143809D01*
X188357880Y-84105714D01*
X190174761Y-132548380D02*
X190174761Y-133357904D01*
X190222380Y-133453142D01*
X190270000Y-133500761D01*
X190365238Y-133548380D01*
X190555714Y-133548380D01*
X190650952Y-133500761D01*
X190698571Y-133453142D01*
X190746190Y-133357904D01*
X190746190Y-132548380D01*
X191174761Y-133262666D02*
X191650952Y-133262666D01*
X191079523Y-133548380D02*
X191412857Y-132548380D01*
X191746190Y-133548380D01*
X192650952Y-133548380D02*
X192317619Y-133072190D01*
X192079523Y-133548380D02*
X192079523Y-132548380D01*
X192460476Y-132548380D01*
X192555714Y-132596000D01*
X192603333Y-132643619D01*
X192650952Y-132738857D01*
X192650952Y-132881714D01*
X192603333Y-132976952D01*
X192555714Y-133024571D01*
X192460476Y-133072190D01*
X192079523Y-133072190D01*
X192936666Y-132548380D02*
X193508095Y-132548380D01*
X193222380Y-133548380D02*
X193222380Y-132548380D01*
X195144023Y-116440000D02*
X195067833Y-116401904D01*
X194953547Y-116401904D01*
X194839261Y-116440000D01*
X194763071Y-116516190D01*
X194724976Y-116592380D01*
X194686880Y-116744761D01*
X194686880Y-116859047D01*
X194724976Y-117011428D01*
X194763071Y-117087619D01*
X194839261Y-117163809D01*
X194953547Y-117201904D01*
X195029738Y-117201904D01*
X195144023Y-117163809D01*
X195182119Y-117125714D01*
X195182119Y-116859047D01*
X195029738Y-116859047D01*
X195524976Y-117201904D02*
X195524976Y-116401904D01*
X195982119Y-117201904D01*
X195982119Y-116401904D01*
X196363071Y-117201904D02*
X196363071Y-116401904D01*
X196553547Y-116401904D01*
X196667833Y-116440000D01*
X196744023Y-116516190D01*
X196782119Y-116592380D01*
X196820214Y-116744761D01*
X196820214Y-116859047D01*
X196782119Y-117011428D01*
X196744023Y-117087619D01*
X196667833Y-117163809D01*
X196553547Y-117201904D01*
X196363071Y-117201904D01*
X195182119Y-129901904D02*
X194915452Y-129520952D01*
X194724976Y-129901904D02*
X194724976Y-129101904D01*
X195029738Y-129101904D01*
X195105928Y-129140000D01*
X195144023Y-129178095D01*
X195182119Y-129254285D01*
X195182119Y-129368571D01*
X195144023Y-129444761D01*
X195105928Y-129482857D01*
X195029738Y-129520952D01*
X194724976Y-129520952D01*
X195410690Y-129101904D02*
X195867833Y-129101904D01*
X195639261Y-129901904D02*
X195639261Y-129101904D01*
X196096404Y-129863809D02*
X196210690Y-129901904D01*
X196401166Y-129901904D01*
X196477357Y-129863809D01*
X196515452Y-129825714D01*
X196553547Y-129749523D01*
X196553547Y-129673333D01*
X196515452Y-129597142D01*
X196477357Y-129559047D01*
X196401166Y-129520952D01*
X196248785Y-129482857D01*
X196172595Y-129444761D01*
X196134500Y-129406666D01*
X196096404Y-129330476D01*
X196096404Y-129254285D01*
X196134500Y-129178095D01*
X196172595Y-129140000D01*
X196248785Y-129101904D01*
X196439261Y-129101904D01*
X196553547Y-129140000D01*
X195182119Y-127361904D02*
X194915452Y-126980952D01*
X194724976Y-127361904D02*
X194724976Y-126561904D01*
X195029738Y-126561904D01*
X195105928Y-126600000D01*
X195144023Y-126638095D01*
X195182119Y-126714285D01*
X195182119Y-126828571D01*
X195144023Y-126904761D01*
X195105928Y-126942857D01*
X195029738Y-126980952D01*
X194724976Y-126980952D01*
X195448785Y-126561904D02*
X195982119Y-127361904D01*
X195982119Y-126561904D02*
X195448785Y-127361904D01*
X194610690Y-124021904D02*
X195067833Y-124021904D01*
X194839261Y-124821904D02*
X194839261Y-124021904D01*
X195258309Y-124021904D02*
X195791642Y-124821904D01*
X195791642Y-124021904D02*
X195258309Y-124821904D01*
X195182119Y-119665714D02*
X195144023Y-119703809D01*
X195029738Y-119741904D01*
X194953547Y-119741904D01*
X194839261Y-119703809D01*
X194763071Y-119627619D01*
X194724976Y-119551428D01*
X194686880Y-119399047D01*
X194686880Y-119284761D01*
X194724976Y-119132380D01*
X194763071Y-119056190D01*
X194839261Y-118980000D01*
X194953547Y-118941904D01*
X195029738Y-118941904D01*
X195144023Y-118980000D01*
X195182119Y-119018095D01*
X195410690Y-118941904D02*
X195867833Y-118941904D01*
X195639261Y-119741904D02*
X195639261Y-118941904D01*
X196096404Y-119703809D02*
X196210690Y-119741904D01*
X196401166Y-119741904D01*
X196477357Y-119703809D01*
X196515452Y-119665714D01*
X196553547Y-119589523D01*
X196553547Y-119513333D01*
X196515452Y-119437142D01*
X196477357Y-119399047D01*
X196401166Y-119360952D01*
X196248785Y-119322857D01*
X196172595Y-119284761D01*
X196134500Y-119246666D01*
X196096404Y-119170476D01*
X196096404Y-119094285D01*
X196134500Y-119018095D01*
X196172595Y-118980000D01*
X196248785Y-118941904D01*
X196439261Y-118941904D01*
X196553547Y-118980000D01*
X190309523Y-48901333D02*
X190690476Y-48901333D01*
X190233333Y-49129904D02*
X190500000Y-48329904D01*
X190766666Y-49129904D01*
X193097142Y-48710857D02*
X193211428Y-48748952D01*
X193249523Y-48787047D01*
X193287619Y-48863238D01*
X193287619Y-48977523D01*
X193249523Y-49053714D01*
X193211428Y-49091809D01*
X193135238Y-49129904D01*
X192830476Y-49129904D01*
X192830476Y-48329904D01*
X193097142Y-48329904D01*
X193173333Y-48368000D01*
X193211428Y-48406095D01*
X193249523Y-48482285D01*
X193249523Y-48558476D01*
X193211428Y-48634666D01*
X193173333Y-48672761D01*
X193097142Y-48710857D01*
X192830476Y-48710857D01*
X195067833Y-63328571D02*
X195067833Y-63861904D01*
X194877357Y-63023809D02*
X194686880Y-63595238D01*
X195182119Y-63595238D01*
X195105928Y-65601904D02*
X194724976Y-65601904D01*
X194686880Y-65982857D01*
X194724976Y-65944761D01*
X194801166Y-65906666D01*
X194991642Y-65906666D01*
X195067833Y-65944761D01*
X195105928Y-65982857D01*
X195144023Y-66059047D01*
X195144023Y-66249523D01*
X195105928Y-66325714D01*
X195067833Y-66363809D01*
X194991642Y-66401904D01*
X194801166Y-66401904D01*
X194724976Y-66363809D01*
X194686880Y-66325714D01*
X194648785Y-70681904D02*
X195182119Y-70681904D01*
X194839261Y-71481904D01*
X195067833Y-68141904D02*
X194915452Y-68141904D01*
X194839261Y-68180000D01*
X194801166Y-68218095D01*
X194724976Y-68332380D01*
X194686880Y-68484761D01*
X194686880Y-68789523D01*
X194724976Y-68865714D01*
X194763071Y-68903809D01*
X194839261Y-68941904D01*
X194991642Y-68941904D01*
X195067833Y-68903809D01*
X195105928Y-68865714D01*
X195144023Y-68789523D01*
X195144023Y-68599047D01*
X195105928Y-68522857D01*
X195067833Y-68484761D01*
X194991642Y-68446666D01*
X194839261Y-68446666D01*
X194763071Y-68484761D01*
X194724976Y-68522857D01*
X194686880Y-68599047D01*
X194648785Y-78301904D02*
X195144023Y-78301904D01*
X194877357Y-78606666D01*
X194991642Y-78606666D01*
X195067833Y-78644761D01*
X195105928Y-78682857D01*
X195144023Y-78759047D01*
X195144023Y-78949523D01*
X195105928Y-79025714D01*
X195067833Y-79063809D01*
X194991642Y-79101904D01*
X194763071Y-79101904D01*
X194686880Y-79063809D01*
X194648785Y-79025714D01*
X195372595Y-78301904D02*
X195639261Y-79101904D01*
X195905928Y-78301904D01*
X196096404Y-78301904D02*
X196591642Y-78301904D01*
X196324976Y-78606666D01*
X196439261Y-78606666D01*
X196515452Y-78644761D01*
X196553547Y-78682857D01*
X196591642Y-78759047D01*
X196591642Y-78949523D01*
X196553547Y-79025714D01*
X196515452Y-79063809D01*
X196439261Y-79101904D01*
X196210690Y-79101904D01*
X196134500Y-79063809D01*
X196096404Y-79025714D01*
X194648785Y-60521904D02*
X195144023Y-60521904D01*
X194877357Y-60826666D01*
X194991642Y-60826666D01*
X195067833Y-60864761D01*
X195105928Y-60902857D01*
X195144023Y-60979047D01*
X195144023Y-61169523D01*
X195105928Y-61245714D01*
X195067833Y-61283809D01*
X194991642Y-61321904D01*
X194763071Y-61321904D01*
X194686880Y-61283809D01*
X194648785Y-61245714D01*
X194686880Y-58058095D02*
X194724976Y-58020000D01*
X194801166Y-57981904D01*
X194991642Y-57981904D01*
X195067833Y-58020000D01*
X195105928Y-58058095D01*
X195144023Y-58134285D01*
X195144023Y-58210476D01*
X195105928Y-58324761D01*
X194648785Y-58781904D01*
X195144023Y-58781904D01*
X195182119Y-76485714D02*
X195144023Y-76523809D01*
X195029738Y-76561904D01*
X194953547Y-76561904D01*
X194839261Y-76523809D01*
X194763071Y-76447619D01*
X194724976Y-76371428D01*
X194686880Y-76219047D01*
X194686880Y-76104761D01*
X194724976Y-75952380D01*
X194763071Y-75876190D01*
X194839261Y-75800000D01*
X194953547Y-75761904D01*
X195029738Y-75761904D01*
X195144023Y-75800000D01*
X195182119Y-75838095D01*
X195486880Y-75838095D02*
X195524976Y-75800000D01*
X195601166Y-75761904D01*
X195791642Y-75761904D01*
X195867833Y-75800000D01*
X195905928Y-75838095D01*
X195944023Y-75914285D01*
X195944023Y-75990476D01*
X195905928Y-76104761D01*
X195448785Y-76561904D01*
X195944023Y-76561904D01*
X195182119Y-73945714D02*
X195144023Y-73983809D01*
X195029738Y-74021904D01*
X194953547Y-74021904D01*
X194839261Y-73983809D01*
X194763071Y-73907619D01*
X194724976Y-73831428D01*
X194686880Y-73679047D01*
X194686880Y-73564761D01*
X194724976Y-73412380D01*
X194763071Y-73336190D01*
X194839261Y-73260000D01*
X194953547Y-73221904D01*
X195029738Y-73221904D01*
X195144023Y-73260000D01*
X195182119Y-73298095D01*
X195944023Y-74021904D02*
X195486880Y-74021904D01*
X195715452Y-74021904D02*
X195715452Y-73221904D01*
X195639261Y-73336190D01*
X195563071Y-73412380D01*
X195486880Y-73450476D01*
X195144023Y-56241904D02*
X194686880Y-56241904D01*
X194915452Y-56241904D02*
X194915452Y-55441904D01*
X194839261Y-55556190D01*
X194763071Y-55632380D01*
X194686880Y-55670476D01*
X194877357Y-52901904D02*
X194953547Y-52901904D01*
X195029738Y-52940000D01*
X195067833Y-52978095D01*
X195105928Y-53054285D01*
X195144023Y-53206666D01*
X195144023Y-53397142D01*
X195105928Y-53549523D01*
X195067833Y-53625714D01*
X195029738Y-53663809D01*
X194953547Y-53701904D01*
X194877357Y-53701904D01*
X194801166Y-53663809D01*
X194763071Y-53625714D01*
X194724976Y-53549523D01*
X194686880Y-53397142D01*
X194686880Y-53206666D01*
X194724976Y-53054285D01*
X194763071Y-52978095D01*
X194801166Y-52940000D01*
X194877357Y-52901904D01*
X187176928Y-78340000D02*
X187100738Y-78301904D01*
X186986452Y-78301904D01*
X186872166Y-78340000D01*
X186795976Y-78416190D01*
X186757880Y-78492380D01*
X186719785Y-78644761D01*
X186719785Y-78759047D01*
X186757880Y-78911428D01*
X186795976Y-78987619D01*
X186872166Y-79063809D01*
X186986452Y-79101904D01*
X187062642Y-79101904D01*
X187176928Y-79063809D01*
X187215023Y-79025714D01*
X187215023Y-78759047D01*
X187062642Y-78759047D01*
X187557880Y-79101904D02*
X187557880Y-78301904D01*
X188015023Y-79101904D01*
X188015023Y-78301904D01*
X188395976Y-79101904D02*
X188395976Y-78301904D01*
X188586452Y-78301904D01*
X188700738Y-78340000D01*
X188776928Y-78416190D01*
X188815023Y-78492380D01*
X188853119Y-78644761D01*
X188853119Y-78759047D01*
X188815023Y-78911428D01*
X188776928Y-78987619D01*
X188700738Y-79063809D01*
X188586452Y-79101904D01*
X188395976Y-79101904D01*
X188586452Y-52901904D02*
X188662642Y-52901904D01*
X188738833Y-52940000D01*
X188776928Y-52978095D01*
X188815023Y-53054285D01*
X188853119Y-53206666D01*
X188853119Y-53397142D01*
X188815023Y-53549523D01*
X188776928Y-53625714D01*
X188738833Y-53663809D01*
X188662642Y-53701904D01*
X188586452Y-53701904D01*
X188510261Y-53663809D01*
X188472166Y-53625714D01*
X188434071Y-53549523D01*
X188395976Y-53397142D01*
X188395976Y-53206666D01*
X188434071Y-53054285D01*
X188472166Y-52978095D01*
X188510261Y-52940000D01*
X188586452Y-52901904D01*
X188357880Y-60521904D02*
X188853119Y-60521904D01*
X188586452Y-60826666D01*
X188700738Y-60826666D01*
X188776928Y-60864761D01*
X188815023Y-60902857D01*
X188853119Y-60979047D01*
X188853119Y-61169523D01*
X188815023Y-61245714D01*
X188776928Y-61283809D01*
X188700738Y-61321904D01*
X188472166Y-61321904D01*
X188395976Y-61283809D01*
X188357880Y-61245714D01*
X188853119Y-56241904D02*
X188395976Y-56241904D01*
X188624547Y-56241904D02*
X188624547Y-55441904D01*
X188548357Y-55556190D01*
X188472166Y-55632380D01*
X188395976Y-55670476D01*
X188395976Y-58058095D02*
X188434071Y-58020000D01*
X188510261Y-57981904D01*
X188700738Y-57981904D01*
X188776928Y-58020000D01*
X188815023Y-58058095D01*
X188853119Y-58134285D01*
X188853119Y-58210476D01*
X188815023Y-58324761D01*
X188357880Y-58781904D01*
X188853119Y-58781904D01*
X188776928Y-63328571D02*
X188776928Y-63861904D01*
X188586452Y-63023809D02*
X188395976Y-63595238D01*
X188891214Y-63595238D01*
X188815023Y-65601904D02*
X188434071Y-65601904D01*
X188395976Y-65982857D01*
X188434071Y-65944761D01*
X188510261Y-65906666D01*
X188700738Y-65906666D01*
X188776928Y-65944761D01*
X188815023Y-65982857D01*
X188853119Y-66059047D01*
X188853119Y-66249523D01*
X188815023Y-66325714D01*
X188776928Y-66363809D01*
X188700738Y-66401904D01*
X188510261Y-66401904D01*
X188434071Y-66363809D01*
X188395976Y-66325714D01*
X188357880Y-70681904D02*
X188891214Y-70681904D01*
X188548357Y-71481904D01*
X188776928Y-68141904D02*
X188624547Y-68141904D01*
X188548357Y-68180000D01*
X188510261Y-68218095D01*
X188434071Y-68332380D01*
X188395976Y-68484761D01*
X188395976Y-68789523D01*
X188434071Y-68865714D01*
X188472166Y-68903809D01*
X188548357Y-68941904D01*
X188700738Y-68941904D01*
X188776928Y-68903809D01*
X188815023Y-68865714D01*
X188853119Y-68789523D01*
X188853119Y-68599047D01*
X188815023Y-68522857D01*
X188776928Y-68484761D01*
X188700738Y-68446666D01*
X188548357Y-68446666D01*
X188472166Y-68484761D01*
X188434071Y-68522857D01*
X188395976Y-68599047D01*
X188091214Y-76485714D02*
X188053119Y-76523809D01*
X187938833Y-76561904D01*
X187862642Y-76561904D01*
X187748357Y-76523809D01*
X187672166Y-76447619D01*
X187634071Y-76371428D01*
X187595976Y-76219047D01*
X187595976Y-76104761D01*
X187634071Y-75952380D01*
X187672166Y-75876190D01*
X187748357Y-75800000D01*
X187862642Y-75761904D01*
X187938833Y-75761904D01*
X188053119Y-75800000D01*
X188091214Y-75838095D01*
X188395976Y-75838095D02*
X188434071Y-75800000D01*
X188510261Y-75761904D01*
X188700738Y-75761904D01*
X188776928Y-75800000D01*
X188815023Y-75838095D01*
X188853119Y-75914285D01*
X188853119Y-75990476D01*
X188815023Y-76104761D01*
X188357880Y-76561904D01*
X188853119Y-76561904D01*
X188091214Y-73945714D02*
X188053119Y-73983809D01*
X187938833Y-74021904D01*
X187862642Y-74021904D01*
X187748357Y-73983809D01*
X187672166Y-73907619D01*
X187634071Y-73831428D01*
X187595976Y-73679047D01*
X187595976Y-73564761D01*
X187634071Y-73412380D01*
X187672166Y-73336190D01*
X187748357Y-73260000D01*
X187862642Y-73221904D01*
X187938833Y-73221904D01*
X188053119Y-73260000D01*
X188091214Y-73298095D01*
X188853119Y-74021904D02*
X188395976Y-74021904D01*
X188624547Y-74021904D02*
X188624547Y-73221904D01*
X188548357Y-73336190D01*
X188472166Y-73412380D01*
X188395976Y-73450476D01*
X187176928Y-111360000D02*
X187100738Y-111321904D01*
X186986452Y-111321904D01*
X186872166Y-111360000D01*
X186795976Y-111436190D01*
X186757880Y-111512380D01*
X186719785Y-111664761D01*
X186719785Y-111779047D01*
X186757880Y-111931428D01*
X186795976Y-112007619D01*
X186872166Y-112083809D01*
X186986452Y-112121904D01*
X187062642Y-112121904D01*
X187176928Y-112083809D01*
X187215023Y-112045714D01*
X187215023Y-111779047D01*
X187062642Y-111779047D01*
X187557880Y-112121904D02*
X187557880Y-111321904D01*
X188015023Y-112121904D01*
X188015023Y-111321904D01*
X188395976Y-112121904D02*
X188395976Y-111321904D01*
X188586452Y-111321904D01*
X188700738Y-111360000D01*
X188776928Y-111436190D01*
X188815023Y-111512380D01*
X188853119Y-111664761D01*
X188853119Y-111779047D01*
X188815023Y-111931428D01*
X188776928Y-112007619D01*
X188700738Y-112083809D01*
X188586452Y-112121904D01*
X188395976Y-112121904D01*
X194648785Y-111321904D02*
X195144023Y-111321904D01*
X194877357Y-111626666D01*
X194991642Y-111626666D01*
X195067833Y-111664761D01*
X195105928Y-111702857D01*
X195144023Y-111779047D01*
X195144023Y-111969523D01*
X195105928Y-112045714D01*
X195067833Y-112083809D01*
X194991642Y-112121904D01*
X194763071Y-112121904D01*
X194686880Y-112083809D01*
X194648785Y-112045714D01*
X195372595Y-111321904D02*
X195639261Y-112121904D01*
X195905928Y-111321904D01*
X196096404Y-111321904D02*
X196591642Y-111321904D01*
X196324976Y-111626666D01*
X196439261Y-111626666D01*
X196515452Y-111664761D01*
X196553547Y-111702857D01*
X196591642Y-111779047D01*
X196591642Y-111969523D01*
X196553547Y-112045714D01*
X196515452Y-112083809D01*
X196439261Y-112121904D01*
X196210690Y-112121904D01*
X196134500Y-112083809D01*
X196096404Y-112045714D01*
X188091214Y-109505714D02*
X188053119Y-109543809D01*
X187938833Y-109581904D01*
X187862642Y-109581904D01*
X187748357Y-109543809D01*
X187672166Y-109467619D01*
X187634071Y-109391428D01*
X187595976Y-109239047D01*
X187595976Y-109124761D01*
X187634071Y-108972380D01*
X187672166Y-108896190D01*
X187748357Y-108820000D01*
X187862642Y-108781904D01*
X187938833Y-108781904D01*
X188053119Y-108820000D01*
X188091214Y-108858095D01*
X188395976Y-108858095D02*
X188434071Y-108820000D01*
X188510261Y-108781904D01*
X188700738Y-108781904D01*
X188776928Y-108820000D01*
X188815023Y-108858095D01*
X188853119Y-108934285D01*
X188853119Y-109010476D01*
X188815023Y-109124761D01*
X188357880Y-109581904D01*
X188853119Y-109581904D01*
X188091214Y-106965714D02*
X188053119Y-107003809D01*
X187938833Y-107041904D01*
X187862642Y-107041904D01*
X187748357Y-107003809D01*
X187672166Y-106927619D01*
X187634071Y-106851428D01*
X187595976Y-106699047D01*
X187595976Y-106584761D01*
X187634071Y-106432380D01*
X187672166Y-106356190D01*
X187748357Y-106280000D01*
X187862642Y-106241904D01*
X187938833Y-106241904D01*
X188053119Y-106280000D01*
X188091214Y-106318095D01*
X188853119Y-107041904D02*
X188395976Y-107041904D01*
X188624547Y-107041904D02*
X188624547Y-106241904D01*
X188548357Y-106356190D01*
X188472166Y-106432380D01*
X188395976Y-106470476D01*
X195182119Y-109505714D02*
X195144023Y-109543809D01*
X195029738Y-109581904D01*
X194953547Y-109581904D01*
X194839261Y-109543809D01*
X194763071Y-109467619D01*
X194724976Y-109391428D01*
X194686880Y-109239047D01*
X194686880Y-109124761D01*
X194724976Y-108972380D01*
X194763071Y-108896190D01*
X194839261Y-108820000D01*
X194953547Y-108781904D01*
X195029738Y-108781904D01*
X195144023Y-108820000D01*
X195182119Y-108858095D01*
X195486880Y-108858095D02*
X195524976Y-108820000D01*
X195601166Y-108781904D01*
X195791642Y-108781904D01*
X195867833Y-108820000D01*
X195905928Y-108858095D01*
X195944023Y-108934285D01*
X195944023Y-109010476D01*
X195905928Y-109124761D01*
X195448785Y-109581904D01*
X195944023Y-109581904D01*
X195182119Y-106965714D02*
X195144023Y-107003809D01*
X195029738Y-107041904D01*
X194953547Y-107041904D01*
X194839261Y-107003809D01*
X194763071Y-106927619D01*
X194724976Y-106851428D01*
X194686880Y-106699047D01*
X194686880Y-106584761D01*
X194724976Y-106432380D01*
X194763071Y-106356190D01*
X194839261Y-106280000D01*
X194953547Y-106241904D01*
X195029738Y-106241904D01*
X195144023Y-106280000D01*
X195182119Y-106318095D01*
X195944023Y-107041904D02*
X195486880Y-107041904D01*
X195715452Y-107041904D02*
X195715452Y-106241904D01*
X195639261Y-106356190D01*
X195563071Y-106432380D01*
X195486880Y-106470476D01*
X188776928Y-96348571D02*
X188776928Y-96881904D01*
X188586452Y-96043809D02*
X188395976Y-96615238D01*
X188891214Y-96615238D01*
X188815023Y-98621904D02*
X188434071Y-98621904D01*
X188395976Y-99002857D01*
X188434071Y-98964761D01*
X188510261Y-98926666D01*
X188700738Y-98926666D01*
X188776928Y-98964761D01*
X188815023Y-99002857D01*
X188853119Y-99079047D01*
X188853119Y-99269523D01*
X188815023Y-99345714D01*
X188776928Y-99383809D01*
X188700738Y-99421904D01*
X188510261Y-99421904D01*
X188434071Y-99383809D01*
X188395976Y-99345714D01*
X188357880Y-103701904D02*
X188891214Y-103701904D01*
X188548357Y-104501904D01*
X188776928Y-101161904D02*
X188624547Y-101161904D01*
X188548357Y-101200000D01*
X188510261Y-101238095D01*
X188434071Y-101352380D01*
X188395976Y-101504761D01*
X188395976Y-101809523D01*
X188434071Y-101885714D01*
X188472166Y-101923809D01*
X188548357Y-101961904D01*
X188700738Y-101961904D01*
X188776928Y-101923809D01*
X188815023Y-101885714D01*
X188853119Y-101809523D01*
X188853119Y-101619047D01*
X188815023Y-101542857D01*
X188776928Y-101504761D01*
X188700738Y-101466666D01*
X188548357Y-101466666D01*
X188472166Y-101504761D01*
X188434071Y-101542857D01*
X188395976Y-101619047D01*
X188357880Y-93541904D02*
X188853119Y-93541904D01*
X188586452Y-93846666D01*
X188700738Y-93846666D01*
X188776928Y-93884761D01*
X188815023Y-93922857D01*
X188853119Y-93999047D01*
X188853119Y-94189523D01*
X188815023Y-94265714D01*
X188776928Y-94303809D01*
X188700738Y-94341904D01*
X188472166Y-94341904D01*
X188395976Y-94303809D01*
X188357880Y-94265714D01*
X188395976Y-91078095D02*
X188434071Y-91040000D01*
X188510261Y-91001904D01*
X188700738Y-91001904D01*
X188776928Y-91040000D01*
X188815023Y-91078095D01*
X188853119Y-91154285D01*
X188853119Y-91230476D01*
X188815023Y-91344761D01*
X188357880Y-91801904D01*
X188853119Y-91801904D01*
X188853119Y-89261904D02*
X188395976Y-89261904D01*
X188624547Y-89261904D02*
X188624547Y-88461904D01*
X188548357Y-88576190D01*
X188472166Y-88652380D01*
X188395976Y-88690476D01*
X188586452Y-85921904D02*
X188662642Y-85921904D01*
X188738833Y-85960000D01*
X188776928Y-85998095D01*
X188815023Y-86074285D01*
X188853119Y-86226666D01*
X188853119Y-86417142D01*
X188815023Y-86569523D01*
X188776928Y-86645714D01*
X188738833Y-86683809D01*
X188662642Y-86721904D01*
X188586452Y-86721904D01*
X188510261Y-86683809D01*
X188472166Y-86645714D01*
X188434071Y-86569523D01*
X188395976Y-86417142D01*
X188395976Y-86226666D01*
X188434071Y-86074285D01*
X188472166Y-85998095D01*
X188510261Y-85960000D01*
X188586452Y-85921904D01*
X194648785Y-103701904D02*
X195182119Y-103701904D01*
X194839261Y-104501904D01*
X195067833Y-101161904D02*
X194915452Y-101161904D01*
X194839261Y-101200000D01*
X194801166Y-101238095D01*
X194724976Y-101352380D01*
X194686880Y-101504761D01*
X194686880Y-101809523D01*
X194724976Y-101885714D01*
X194763071Y-101923809D01*
X194839261Y-101961904D01*
X194991642Y-101961904D01*
X195067833Y-101923809D01*
X195105928Y-101885714D01*
X195144023Y-101809523D01*
X195144023Y-101619047D01*
X195105928Y-101542857D01*
X195067833Y-101504761D01*
X194991642Y-101466666D01*
X194839261Y-101466666D01*
X194763071Y-101504761D01*
X194724976Y-101542857D01*
X194686880Y-101619047D01*
X195105928Y-98621904D02*
X194724976Y-98621904D01*
X194686880Y-99002857D01*
X194724976Y-98964761D01*
X194801166Y-98926666D01*
X194991642Y-98926666D01*
X195067833Y-98964761D01*
X195105928Y-99002857D01*
X195144023Y-99079047D01*
X195144023Y-99269523D01*
X195105928Y-99345714D01*
X195067833Y-99383809D01*
X194991642Y-99421904D01*
X194801166Y-99421904D01*
X194724976Y-99383809D01*
X194686880Y-99345714D01*
X195067833Y-96348571D02*
X195067833Y-96881904D01*
X194877357Y-96043809D02*
X194686880Y-96615238D01*
X195182119Y-96615238D01*
X194648785Y-93541904D02*
X195144023Y-93541904D01*
X194877357Y-93846666D01*
X194991642Y-93846666D01*
X195067833Y-93884761D01*
X195105928Y-93922857D01*
X195144023Y-93999047D01*
X195144023Y-94189523D01*
X195105928Y-94265714D01*
X195067833Y-94303809D01*
X194991642Y-94341904D01*
X194763071Y-94341904D01*
X194686880Y-94303809D01*
X194648785Y-94265714D01*
X194686880Y-91078095D02*
X194724976Y-91040000D01*
X194801166Y-91001904D01*
X194991642Y-91001904D01*
X195067833Y-91040000D01*
X195105928Y-91078095D01*
X195144023Y-91154285D01*
X195144023Y-91230476D01*
X195105928Y-91344761D01*
X194648785Y-91801904D01*
X195144023Y-91801904D01*
X195144023Y-89261904D02*
X194686880Y-89261904D01*
X194915452Y-89261904D02*
X194915452Y-88461904D01*
X194839261Y-88576190D01*
X194763071Y-88652380D01*
X194686880Y-88690476D01*
X194877357Y-85921904D02*
X194953547Y-85921904D01*
X195029738Y-85960000D01*
X195067833Y-85998095D01*
X195105928Y-86074285D01*
X195144023Y-86226666D01*
X195144023Y-86417142D01*
X195105928Y-86569523D01*
X195067833Y-86645714D01*
X195029738Y-86683809D01*
X194953547Y-86721904D01*
X194877357Y-86721904D01*
X194801166Y-86683809D01*
X194763071Y-86645714D01*
X194724976Y-86569523D01*
X194686880Y-86417142D01*
X194686880Y-86226666D01*
X194724976Y-86074285D01*
X194763071Y-85998095D01*
X194801166Y-85960000D01*
X194877357Y-85921904D01*
X190309523Y-114433333D02*
X190690476Y-114433333D01*
X190233333Y-114661904D02*
X190500000Y-113861904D01*
X190766666Y-114661904D01*
X193097142Y-114242857D02*
X193211428Y-114280952D01*
X193249523Y-114319047D01*
X193287619Y-114395238D01*
X193287619Y-114509523D01*
X193249523Y-114585714D01*
X193211428Y-114623809D01*
X193135238Y-114661904D01*
X192830476Y-114661904D01*
X192830476Y-113861904D01*
X193097142Y-113861904D01*
X193173333Y-113900000D01*
X193211428Y-113938095D01*
X193249523Y-114014285D01*
X193249523Y-114090476D01*
X193211428Y-114166666D01*
X193173333Y-114204761D01*
X193097142Y-114242857D01*
X192830476Y-114242857D01*
X193097142Y-81222857D02*
X193211428Y-81260952D01*
X193249523Y-81299047D01*
X193287619Y-81375238D01*
X193287619Y-81489523D01*
X193249523Y-81565714D01*
X193211428Y-81603809D01*
X193135238Y-81641904D01*
X192830476Y-81641904D01*
X192830476Y-80841904D01*
X193097142Y-80841904D01*
X193173333Y-80880000D01*
X193211428Y-80918095D01*
X193249523Y-80994285D01*
X193249523Y-81070476D01*
X193211428Y-81146666D01*
X193173333Y-81184761D01*
X193097142Y-81222857D01*
X192830476Y-81222857D01*
X190309523Y-81413333D02*
X190690476Y-81413333D01*
X190233333Y-81641904D02*
X190500000Y-80841904D01*
X190766666Y-81641904D01*
X196223000Y-99647142D02*
X196175380Y-99742380D01*
X196175380Y-99885238D01*
X196223000Y-100028095D01*
X196318238Y-100123333D01*
X196413476Y-100170952D01*
X196603952Y-100218571D01*
X196746809Y-100218571D01*
X196937285Y-100170952D01*
X197032523Y-100123333D01*
X197127761Y-100028095D01*
X197175380Y-99885238D01*
X197175380Y-99790000D01*
X197127761Y-99647142D01*
X197080142Y-99599523D01*
X196746809Y-99599523D01*
X196746809Y-99790000D01*
X197175380Y-99170952D02*
X196175380Y-99170952D01*
X196175380Y-98790000D01*
X196223000Y-98694761D01*
X196270619Y-98647142D01*
X196365857Y-98599523D01*
X196508714Y-98599523D01*
X196603952Y-98647142D01*
X196651571Y-98694761D01*
X196699190Y-98790000D01*
X196699190Y-99170952D01*
X197175380Y-98170952D02*
X196175380Y-98170952D01*
X196175380Y-97504285D02*
X196175380Y-97313809D01*
X196223000Y-97218571D01*
X196318238Y-97123333D01*
X196508714Y-97075714D01*
X196842047Y-97075714D01*
X197032523Y-97123333D01*
X197127761Y-97218571D01*
X197175380Y-97313809D01*
X197175380Y-97504285D01*
X197127761Y-97599523D01*
X197032523Y-97694761D01*
X196842047Y-97742380D01*
X196508714Y-97742380D01*
X196318238Y-97694761D01*
X196223000Y-97599523D01*
X196175380Y-97504285D01*
X196270619Y-95932857D02*
X196223000Y-95885238D01*
X196175380Y-95790000D01*
X196175380Y-95551904D01*
X196223000Y-95456666D01*
X196270619Y-95409047D01*
X196365857Y-95361428D01*
X196461095Y-95361428D01*
X196603952Y-95409047D01*
X197175380Y-95980476D01*
X197175380Y-95361428D01*
D11*
X174879000Y-137795000D02*
X174879000Y-137414000D01*
X174244000Y-137795000D02*
X174879000Y-137795000D01*
X170561000Y-137795000D02*
X170561000Y-137414000D01*
X171196000Y-137795000D02*
X170561000Y-137795000D01*
X169799000Y-137795000D02*
X169799000Y-137414000D01*
X169164000Y-137795000D02*
X169799000Y-137795000D01*
X165481000Y-137795000D02*
X165481000Y-137414000D01*
X166116000Y-137795000D02*
X165481000Y-137795000D01*
D10*
X183216666Y-137864857D02*
X183483333Y-137864857D01*
X183597619Y-138283904D02*
X183216666Y-138283904D01*
X183216666Y-137483904D01*
X183597619Y-137483904D01*
X183864285Y-137483904D02*
X184397619Y-138283904D01*
X184397619Y-137483904D02*
X183864285Y-138283904D01*
X185121428Y-138283904D02*
X184664285Y-138283904D01*
X184892857Y-138283904D02*
X184892857Y-137483904D01*
X184816666Y-137598190D01*
X184740476Y-137674380D01*
X184664285Y-137712476D01*
X180676666Y-137864857D02*
X180943333Y-137864857D01*
X181057619Y-138283904D02*
X180676666Y-138283904D01*
X180676666Y-137483904D01*
X181057619Y-137483904D01*
X181324285Y-137483904D02*
X181857619Y-138283904D01*
X181857619Y-137483904D02*
X181324285Y-138283904D01*
X182314761Y-137483904D02*
X182390952Y-137483904D01*
X182467142Y-137522000D01*
X182505238Y-137560095D01*
X182543333Y-137636285D01*
X182581428Y-137788666D01*
X182581428Y-137979142D01*
X182543333Y-138131523D01*
X182505238Y-138207714D01*
X182467142Y-138245809D01*
X182390952Y-138283904D01*
X182314761Y-138283904D01*
X182238571Y-138245809D01*
X182200476Y-138207714D01*
X182162380Y-138131523D01*
X182124285Y-137979142D01*
X182124285Y-137788666D01*
X182162380Y-137636285D01*
X182200476Y-137560095D01*
X182238571Y-137522000D01*
X182314761Y-137483904D01*
D11*
X185039000Y-130175000D02*
X185039000Y-130810000D01*
X179197000Y-130175000D02*
X185039000Y-130175000D01*
X165481000Y-130175000D02*
X165481000Y-130810000D01*
X171323000Y-130175000D02*
X165481000Y-130175000D01*
D10*
X172002857Y-130498809D02*
X172117142Y-130536904D01*
X172307619Y-130536904D01*
X172383809Y-130498809D01*
X172421904Y-130460714D01*
X172460000Y-130384523D01*
X172460000Y-130308333D01*
X172421904Y-130232142D01*
X172383809Y-130194047D01*
X172307619Y-130155952D01*
X172155238Y-130117857D01*
X172079047Y-130079761D01*
X172040952Y-130041666D01*
X172002857Y-129965476D01*
X172002857Y-129889285D01*
X172040952Y-129813095D01*
X172079047Y-129775000D01*
X172155238Y-129736904D01*
X172345714Y-129736904D01*
X172460000Y-129775000D01*
X172802857Y-130536904D02*
X172802857Y-129736904D01*
X173107619Y-129736904D01*
X173183809Y-129775000D01*
X173221904Y-129813095D01*
X173260000Y-129889285D01*
X173260000Y-130003571D01*
X173221904Y-130079761D01*
X173183809Y-130117857D01*
X173107619Y-130155952D01*
X172802857Y-130155952D01*
X173602857Y-130536904D02*
X173602857Y-129736904D01*
X174555238Y-130498809D02*
X174669523Y-130536904D01*
X174860000Y-130536904D01*
X174936190Y-130498809D01*
X174974285Y-130460714D01*
X175012380Y-130384523D01*
X175012380Y-130308333D01*
X174974285Y-130232142D01*
X174936190Y-130194047D01*
X174860000Y-130155952D01*
X174707619Y-130117857D01*
X174631428Y-130079761D01*
X174593333Y-130041666D01*
X174555238Y-129965476D01*
X174555238Y-129889285D01*
X174593333Y-129813095D01*
X174631428Y-129775000D01*
X174707619Y-129736904D01*
X174898095Y-129736904D01*
X175012380Y-129775000D01*
X175355238Y-130117857D02*
X175621904Y-130117857D01*
X175736190Y-130536904D02*
X175355238Y-130536904D01*
X175355238Y-129736904D01*
X175736190Y-129736904D01*
X176460000Y-130536904D02*
X176079047Y-130536904D01*
X176079047Y-129736904D01*
X176726666Y-130117857D02*
X176993333Y-130117857D01*
X177107619Y-130536904D02*
X176726666Y-130536904D01*
X176726666Y-129736904D01*
X177107619Y-129736904D01*
X177907619Y-130460714D02*
X177869523Y-130498809D01*
X177755238Y-130536904D01*
X177679047Y-130536904D01*
X177564761Y-130498809D01*
X177488571Y-130422619D01*
X177450476Y-130346428D01*
X177412380Y-130194047D01*
X177412380Y-130079761D01*
X177450476Y-129927380D01*
X177488571Y-129851190D01*
X177564761Y-129775000D01*
X177679047Y-129736904D01*
X177755238Y-129736904D01*
X177869523Y-129775000D01*
X177907619Y-129813095D01*
X178136190Y-129736904D02*
X178593333Y-129736904D01*
X178364761Y-130536904D02*
X178364761Y-129736904D01*
X183883333Y-130879904D02*
X184416666Y-130879904D01*
X184073809Y-131679904D01*
X173723333Y-130879904D02*
X174218571Y-130879904D01*
X173951904Y-131184666D01*
X174066190Y-131184666D01*
X174142380Y-131222761D01*
X174180476Y-131260857D01*
X174218571Y-131337047D01*
X174218571Y-131527523D01*
X174180476Y-131603714D01*
X174142380Y-131641809D01*
X174066190Y-131679904D01*
X173837619Y-131679904D01*
X173761428Y-131641809D01*
X173723333Y-131603714D01*
X176682380Y-131146571D02*
X176682380Y-131679904D01*
X176491904Y-130841809D02*
X176301428Y-131413238D01*
X176796666Y-131413238D01*
X179260476Y-130879904D02*
X178879523Y-130879904D01*
X178841428Y-131260857D01*
X178879523Y-131222761D01*
X178955714Y-131184666D01*
X179146190Y-131184666D01*
X179222380Y-131222761D01*
X179260476Y-131260857D01*
X179298571Y-131337047D01*
X179298571Y-131527523D01*
X179260476Y-131603714D01*
X179222380Y-131641809D01*
X179146190Y-131679904D01*
X178955714Y-131679904D01*
X178879523Y-131641809D01*
X178841428Y-131603714D01*
X166331904Y-130879904D02*
X166408095Y-130879904D01*
X166484285Y-130918000D01*
X166522380Y-130956095D01*
X166560476Y-131032285D01*
X166598571Y-131184666D01*
X166598571Y-131375142D01*
X166560476Y-131527523D01*
X166522380Y-131603714D01*
X166484285Y-131641809D01*
X166408095Y-131679904D01*
X166331904Y-131679904D01*
X166255714Y-131641809D01*
X166217619Y-131603714D01*
X166179523Y-131527523D01*
X166141428Y-131375142D01*
X166141428Y-131184666D01*
X166179523Y-131032285D01*
X166217619Y-130956095D01*
X166255714Y-130918000D01*
X166331904Y-130879904D01*
X181762380Y-130879904D02*
X181610000Y-130879904D01*
X181533809Y-130918000D01*
X181495714Y-130956095D01*
X181419523Y-131070380D01*
X181381428Y-131222761D01*
X181381428Y-131527523D01*
X181419523Y-131603714D01*
X181457619Y-131641809D01*
X181533809Y-131679904D01*
X181686190Y-131679904D01*
X181762380Y-131641809D01*
X181800476Y-131603714D01*
X181838571Y-131527523D01*
X181838571Y-131337047D01*
X181800476Y-131260857D01*
X181762380Y-131222761D01*
X181686190Y-131184666D01*
X181533809Y-131184666D01*
X181457619Y-131222761D01*
X181419523Y-131260857D01*
X181381428Y-131337047D01*
X169138571Y-131679904D02*
X168681428Y-131679904D01*
X168910000Y-131679904D02*
X168910000Y-130879904D01*
X168833809Y-130994190D01*
X168757619Y-131070380D01*
X168681428Y-131108476D01*
X171221428Y-130956095D02*
X171259523Y-130918000D01*
X171335714Y-130879904D01*
X171526190Y-130879904D01*
X171602380Y-130918000D01*
X171640476Y-130956095D01*
X171678571Y-131032285D01*
X171678571Y-131108476D01*
X171640476Y-131222761D01*
X171183333Y-131679904D01*
X171678571Y-131679904D01*
X163220476Y-130918000D02*
X163144285Y-130879904D01*
X163030000Y-130879904D01*
X162915714Y-130918000D01*
X162839523Y-130994190D01*
X162801428Y-131070380D01*
X162763333Y-131222761D01*
X162763333Y-131337047D01*
X162801428Y-131489428D01*
X162839523Y-131565619D01*
X162915714Y-131641809D01*
X163030000Y-131679904D01*
X163106190Y-131679904D01*
X163220476Y-131641809D01*
X163258571Y-131603714D01*
X163258571Y-131337047D01*
X163106190Y-131337047D01*
X163601428Y-131679904D02*
X163601428Y-130879904D01*
X164058571Y-131679904D01*
X164058571Y-130879904D01*
X164439523Y-131679904D02*
X164439523Y-130879904D01*
X164630000Y-130879904D01*
X164744285Y-130918000D01*
X164820476Y-130994190D01*
X164858571Y-131070380D01*
X164896666Y-131222761D01*
X164896666Y-131337047D01*
X164858571Y-131489428D01*
X164820476Y-131565619D01*
X164744285Y-131641809D01*
X164630000Y-131679904D01*
X164439523Y-131679904D01*
X186080476Y-137522000D02*
X186004285Y-137483904D01*
X185890000Y-137483904D01*
X185775714Y-137522000D01*
X185699523Y-137598190D01*
X185661428Y-137674380D01*
X185623333Y-137826761D01*
X185623333Y-137941047D01*
X185661428Y-138093428D01*
X185699523Y-138169619D01*
X185775714Y-138245809D01*
X185890000Y-138283904D01*
X185966190Y-138283904D01*
X186080476Y-138245809D01*
X186118571Y-138207714D01*
X186118571Y-137941047D01*
X185966190Y-137941047D01*
X186461428Y-138283904D02*
X186461428Y-137483904D01*
X186918571Y-138283904D01*
X186918571Y-137483904D01*
X187299523Y-138283904D02*
X187299523Y-137483904D01*
X187490000Y-137483904D01*
X187604285Y-137522000D01*
X187680476Y-137598190D01*
X187718571Y-137674380D01*
X187756666Y-137826761D01*
X187756666Y-137941047D01*
X187718571Y-138093428D01*
X187680476Y-138169619D01*
X187604285Y-138245809D01*
X187490000Y-138283904D01*
X187299523Y-138283904D01*
X185699523Y-130879904D02*
X186194761Y-130879904D01*
X185928095Y-131184666D01*
X186042380Y-131184666D01*
X186118571Y-131222761D01*
X186156666Y-131260857D01*
X186194761Y-131337047D01*
X186194761Y-131527523D01*
X186156666Y-131603714D01*
X186118571Y-131641809D01*
X186042380Y-131679904D01*
X185813809Y-131679904D01*
X185737619Y-131641809D01*
X185699523Y-131603714D01*
X186423333Y-130879904D02*
X186690000Y-131679904D01*
X186956666Y-130879904D01*
X187147142Y-130879904D02*
X187642380Y-130879904D01*
X187375714Y-131184666D01*
X187490000Y-131184666D01*
X187566190Y-131222761D01*
X187604285Y-131260857D01*
X187642380Y-131337047D01*
X187642380Y-131527523D01*
X187604285Y-131603714D01*
X187566190Y-131641809D01*
X187490000Y-131679904D01*
X187261428Y-131679904D01*
X187185238Y-131641809D01*
X187147142Y-131603714D01*
X171462857Y-138283904D02*
X171462857Y-137483904D01*
X171729523Y-138055333D01*
X171996190Y-137483904D01*
X171996190Y-138283904D01*
X172529523Y-137483904D02*
X172681904Y-137483904D01*
X172758095Y-137522000D01*
X172834285Y-137598190D01*
X172872380Y-137750571D01*
X172872380Y-138017238D01*
X172834285Y-138169619D01*
X172758095Y-138245809D01*
X172681904Y-138283904D01*
X172529523Y-138283904D01*
X172453333Y-138245809D01*
X172377142Y-138169619D01*
X172339047Y-138017238D01*
X172339047Y-137750571D01*
X172377142Y-137598190D01*
X172453333Y-137522000D01*
X172529523Y-137483904D01*
X173177142Y-138245809D02*
X173291428Y-138283904D01*
X173481904Y-138283904D01*
X173558095Y-138245809D01*
X173596190Y-138207714D01*
X173634285Y-138131523D01*
X173634285Y-138055333D01*
X173596190Y-137979142D01*
X173558095Y-137941047D01*
X173481904Y-137902952D01*
X173329523Y-137864857D01*
X173253333Y-137826761D01*
X173215238Y-137788666D01*
X173177142Y-137712476D01*
X173177142Y-137636285D01*
X173215238Y-137560095D01*
X173253333Y-137522000D01*
X173329523Y-137483904D01*
X173520000Y-137483904D01*
X173634285Y-137522000D01*
X173977142Y-138283904D02*
X173977142Y-137483904D01*
X166382857Y-138283904D02*
X166382857Y-137483904D01*
X166649523Y-138055333D01*
X166916190Y-137483904D01*
X166916190Y-138283904D01*
X167297142Y-138283904D02*
X167297142Y-137483904D01*
X167640000Y-138245809D02*
X167754285Y-138283904D01*
X167944761Y-138283904D01*
X168020952Y-138245809D01*
X168059047Y-138207714D01*
X168097142Y-138131523D01*
X168097142Y-138055333D01*
X168059047Y-137979142D01*
X168020952Y-137941047D01*
X167944761Y-137902952D01*
X167792380Y-137864857D01*
X167716190Y-137826761D01*
X167678095Y-137788666D01*
X167640000Y-137712476D01*
X167640000Y-137636285D01*
X167678095Y-137560095D01*
X167716190Y-137522000D01*
X167792380Y-137483904D01*
X167982857Y-137483904D01*
X168097142Y-137522000D01*
X168592380Y-137483904D02*
X168744761Y-137483904D01*
X168820952Y-137522000D01*
X168897142Y-137598190D01*
X168935238Y-137750571D01*
X168935238Y-138017238D01*
X168897142Y-138169619D01*
X168820952Y-138245809D01*
X168744761Y-138283904D01*
X168592380Y-138283904D01*
X168516190Y-138245809D01*
X168440000Y-138169619D01*
X168401904Y-138017238D01*
X168401904Y-137750571D01*
X168440000Y-137598190D01*
X168516190Y-137522000D01*
X168592380Y-137483904D01*
X162839523Y-137483904D02*
X163334761Y-137483904D01*
X163068095Y-137788666D01*
X163182380Y-137788666D01*
X163258571Y-137826761D01*
X163296666Y-137864857D01*
X163334761Y-137941047D01*
X163334761Y-138131523D01*
X163296666Y-138207714D01*
X163258571Y-138245809D01*
X163182380Y-138283904D01*
X162953809Y-138283904D01*
X162877619Y-138245809D01*
X162839523Y-138207714D01*
X163563333Y-137483904D02*
X163830000Y-138283904D01*
X164096666Y-137483904D01*
X164287142Y-137483904D02*
X164782380Y-137483904D01*
X164515714Y-137788666D01*
X164630000Y-137788666D01*
X164706190Y-137826761D01*
X164744285Y-137864857D01*
X164782380Y-137941047D01*
X164782380Y-138131523D01*
X164744285Y-138207714D01*
X164706190Y-138245809D01*
X164630000Y-138283904D01*
X164401428Y-138283904D01*
X164325238Y-138245809D01*
X164287142Y-138207714D01*
X162202761Y-135643809D02*
X162250380Y-135500952D01*
X162250380Y-135262857D01*
X162202761Y-135167619D01*
X162155142Y-135120000D01*
X162059904Y-135072380D01*
X161964666Y-135072380D01*
X161869428Y-135120000D01*
X161821809Y-135167619D01*
X161774190Y-135262857D01*
X161726571Y-135453333D01*
X161678952Y-135548571D01*
X161631333Y-135596190D01*
X161536095Y-135643809D01*
X161440857Y-135643809D01*
X161345619Y-135596190D01*
X161298000Y-135548571D01*
X161250380Y-135453333D01*
X161250380Y-135215238D01*
X161298000Y-135072380D01*
X162250380Y-134643809D02*
X161250380Y-134643809D01*
X161250380Y-134262857D01*
X161298000Y-134167619D01*
X161345619Y-134120000D01*
X161440857Y-134072380D01*
X161583714Y-134072380D01*
X161678952Y-134120000D01*
X161726571Y-134167619D01*
X161774190Y-134262857D01*
X161774190Y-134643809D01*
X162250380Y-133643809D02*
X161250380Y-133643809D01*
X158597619Y-138283904D02*
X158140476Y-138283904D01*
X158369047Y-138283904D02*
X158369047Y-137483904D01*
X158292857Y-137598190D01*
X158216666Y-137674380D01*
X158140476Y-137712476D01*
X159283333Y-137750571D02*
X159283333Y-138283904D01*
X159092857Y-137445809D02*
X158902380Y-138017238D01*
X159397619Y-138017238D01*
X158597619Y-131679904D02*
X158140476Y-131679904D01*
X158369047Y-131679904D02*
X158369047Y-130879904D01*
X158292857Y-130994190D01*
X158216666Y-131070380D01*
X158140476Y-131108476D01*
X159321428Y-130879904D02*
X158940476Y-130879904D01*
X158902380Y-131260857D01*
X158940476Y-131222761D01*
X159016666Y-131184666D01*
X159207142Y-131184666D01*
X159283333Y-131222761D01*
X159321428Y-131260857D01*
X159359523Y-131337047D01*
X159359523Y-131527523D01*
X159321428Y-131603714D01*
X159283333Y-131641809D01*
X159207142Y-131679904D01*
X159016666Y-131679904D01*
X158940476Y-131641809D01*
X158902380Y-131603714D01*
X141198571Y-131679904D02*
X140741428Y-131679904D01*
X140970000Y-131679904D02*
X140970000Y-130879904D01*
X140893809Y-130994190D01*
X140817619Y-131070380D01*
X140741428Y-131108476D01*
X140931904Y-137483904D02*
X141008095Y-137483904D01*
X141084285Y-137522000D01*
X141122380Y-137560095D01*
X141160476Y-137636285D01*
X141198571Y-137788666D01*
X141198571Y-137979142D01*
X141160476Y-138131523D01*
X141122380Y-138207714D01*
X141084285Y-138245809D01*
X141008095Y-138283904D01*
X140931904Y-138283904D01*
X140855714Y-138245809D01*
X140817619Y-138207714D01*
X140779523Y-138131523D01*
X140741428Y-137979142D01*
X140741428Y-137788666D01*
X140779523Y-137636285D01*
X140817619Y-137560095D01*
X140855714Y-137522000D01*
X140931904Y-137483904D01*
X142860000Y-138612571D02*
X143002857Y-138660190D01*
X143050476Y-138707809D01*
X143098095Y-138803047D01*
X143098095Y-138945904D01*
X143050476Y-139041142D01*
X143002857Y-139088761D01*
X142907619Y-139136380D01*
X142526666Y-139136380D01*
X142526666Y-138136380D01*
X142860000Y-138136380D01*
X142955238Y-138184000D01*
X143002857Y-138231619D01*
X143050476Y-138326857D01*
X143050476Y-138422095D01*
X143002857Y-138517333D01*
X142955238Y-138564952D01*
X142860000Y-138612571D01*
X142526666Y-138612571D01*
X143526666Y-139136380D02*
X143526666Y-138136380D01*
X144336190Y-138612571D02*
X144002857Y-138612571D01*
X144002857Y-139136380D02*
X144002857Y-138136380D01*
X144479047Y-138136380D01*
X145431428Y-139136380D02*
X145098095Y-138660190D01*
X144860000Y-139136380D02*
X144860000Y-138136380D01*
X145240952Y-138136380D01*
X145336190Y-138184000D01*
X145383809Y-138231619D01*
X145431428Y-138326857D01*
X145431428Y-138469714D01*
X145383809Y-138564952D01*
X145336190Y-138612571D01*
X145240952Y-138660190D01*
X144860000Y-138660190D01*
X146050476Y-138136380D02*
X146240952Y-138136380D01*
X146336190Y-138184000D01*
X146431428Y-138279238D01*
X146479047Y-138469714D01*
X146479047Y-138803047D01*
X146431428Y-138993523D01*
X146336190Y-139088761D01*
X146240952Y-139136380D01*
X146050476Y-139136380D01*
X145955238Y-139088761D01*
X145860000Y-138993523D01*
X145812380Y-138803047D01*
X145812380Y-138469714D01*
X145860000Y-138279238D01*
X145955238Y-138184000D01*
X146050476Y-138136380D01*
X145955238Y-137803047D02*
X146002857Y-137850666D01*
X145955238Y-137898285D01*
X145907619Y-137850666D01*
X145955238Y-137803047D01*
X145955238Y-137898285D01*
X146336190Y-137803047D02*
X146383809Y-137850666D01*
X146336190Y-137898285D01*
X146288571Y-137850666D01*
X146336190Y-137803047D01*
X146336190Y-137898285D01*
X146860000Y-139088761D02*
X147002857Y-139136380D01*
X147240952Y-139136380D01*
X147336190Y-139088761D01*
X147383809Y-139041142D01*
X147431428Y-138945904D01*
X147431428Y-138850666D01*
X147383809Y-138755428D01*
X147336190Y-138707809D01*
X147240952Y-138660190D01*
X147050476Y-138612571D01*
X146955238Y-138564952D01*
X146907619Y-138517333D01*
X146860000Y-138422095D01*
X146860000Y-138326857D01*
X146907619Y-138231619D01*
X146955238Y-138184000D01*
X147050476Y-138136380D01*
X147288571Y-138136380D01*
X147431428Y-138184000D01*
X147717142Y-138136380D02*
X148288571Y-138136380D01*
X148002857Y-139136380D02*
X148002857Y-138136380D01*
X149383809Y-138612571D02*
X149717142Y-138612571D01*
X149860000Y-139136380D02*
X149383809Y-139136380D01*
X149383809Y-138136380D01*
X149860000Y-138136380D01*
X150193333Y-138136380D02*
X150860000Y-139136380D01*
X150860000Y-138136380D02*
X150193333Y-139136380D01*
X151240952Y-139136380D02*
X151240952Y-138136380D01*
X151621904Y-138136380D01*
X151717142Y-138184000D01*
X151764761Y-138231619D01*
X151812380Y-138326857D01*
X151812380Y-138469714D01*
X151764761Y-138564952D01*
X151717142Y-138612571D01*
X151621904Y-138660190D01*
X151240952Y-138660190D01*
X152193333Y-138850666D02*
X152669523Y-138850666D01*
X152098095Y-139136380D02*
X152431428Y-138136380D01*
X152764761Y-139136380D01*
X153098095Y-139136380D02*
X153098095Y-138136380D01*
X153669523Y-139136380D01*
X153669523Y-138136380D01*
X154098095Y-139088761D02*
X154240952Y-139136380D01*
X154479047Y-139136380D01*
X154574285Y-139088761D01*
X154621904Y-139041142D01*
X154669523Y-138945904D01*
X154669523Y-138850666D01*
X154621904Y-138755428D01*
X154574285Y-138707809D01*
X154479047Y-138660190D01*
X154288571Y-138612571D01*
X154193333Y-138564952D01*
X154145714Y-138517333D01*
X154098095Y-138422095D01*
X154098095Y-138326857D01*
X154145714Y-138231619D01*
X154193333Y-138184000D01*
X154288571Y-138136380D01*
X154526666Y-138136380D01*
X154669523Y-138184000D01*
X155098095Y-139136380D02*
X155098095Y-138136380D01*
X155764761Y-138136380D02*
X155955238Y-138136380D01*
X156050476Y-138184000D01*
X156145714Y-138279238D01*
X156193333Y-138469714D01*
X156193333Y-138803047D01*
X156145714Y-138993523D01*
X156050476Y-139088761D01*
X155955238Y-139136380D01*
X155764761Y-139136380D01*
X155669523Y-139088761D01*
X155574285Y-138993523D01*
X155526666Y-138803047D01*
X155526666Y-138469714D01*
X155574285Y-138279238D01*
X155669523Y-138184000D01*
X155764761Y-138136380D01*
X156621904Y-139136380D02*
X156621904Y-138136380D01*
X157193333Y-139136380D01*
X157193333Y-138136380D01*
X132550000Y-137610904D02*
X132702380Y-137610904D01*
X132778571Y-137649000D01*
X132854761Y-137725190D01*
X132892857Y-137877571D01*
X132892857Y-138144238D01*
X132854761Y-138296619D01*
X132778571Y-138372809D01*
X132702380Y-138410904D01*
X132550000Y-138410904D01*
X132473809Y-138372809D01*
X132397619Y-138296619D01*
X132359523Y-138144238D01*
X132359523Y-137877571D01*
X132397619Y-137725190D01*
X132473809Y-137649000D01*
X132550000Y-137610904D01*
X133235714Y-137610904D02*
X133235714Y-138258523D01*
X133273809Y-138334714D01*
X133311904Y-138372809D01*
X133388095Y-138410904D01*
X133540476Y-138410904D01*
X133616666Y-138372809D01*
X133654761Y-138334714D01*
X133692857Y-138258523D01*
X133692857Y-137610904D01*
X133959523Y-137610904D02*
X134416666Y-137610904D01*
X134188095Y-138410904D02*
X134188095Y-137610904D01*
X132930952Y-131679904D02*
X132930952Y-130879904D01*
X133311904Y-131679904D02*
X133311904Y-130879904D01*
X133769047Y-131679904D01*
X133769047Y-130879904D01*
X130810000Y-138029952D02*
X130810000Y-138410904D01*
X130543333Y-137610904D02*
X130810000Y-138029952D01*
X131076666Y-137610904D01*
X130543333Y-130879904D02*
X131076666Y-131679904D01*
X131076666Y-130879904D02*
X130543333Y-131679904D01*
X135737619Y-130879904D02*
X135356666Y-130879904D01*
X135318571Y-131260857D01*
X135356666Y-131222761D01*
X135432857Y-131184666D01*
X135623333Y-131184666D01*
X135699523Y-131222761D01*
X135737619Y-131260857D01*
X135775714Y-131337047D01*
X135775714Y-131527523D01*
X135737619Y-131603714D01*
X135699523Y-131641809D01*
X135623333Y-131679904D01*
X135432857Y-131679904D01*
X135356666Y-131641809D01*
X135318571Y-131603714D01*
X136004285Y-130879904D02*
X136270952Y-131679904D01*
X136537619Y-130879904D01*
X128117619Y-137610904D02*
X127736666Y-137610904D01*
X127698571Y-137991857D01*
X127736666Y-137953761D01*
X127812857Y-137915666D01*
X128003333Y-137915666D01*
X128079523Y-137953761D01*
X128117619Y-137991857D01*
X128155714Y-138068047D01*
X128155714Y-138258523D01*
X128117619Y-138334714D01*
X128079523Y-138372809D01*
X128003333Y-138410904D01*
X127812857Y-138410904D01*
X127736666Y-138372809D01*
X127698571Y-138334714D01*
X128384285Y-137610904D02*
X128650952Y-138410904D01*
X128917619Y-137610904D01*
X136099523Y-137649000D02*
X136023333Y-137610904D01*
X135909047Y-137610904D01*
X135794761Y-137649000D01*
X135718571Y-137725190D01*
X135680476Y-137801380D01*
X135642380Y-137953761D01*
X135642380Y-138068047D01*
X135680476Y-138220428D01*
X135718571Y-138296619D01*
X135794761Y-138372809D01*
X135909047Y-138410904D01*
X135985238Y-138410904D01*
X136099523Y-138372809D01*
X136137619Y-138334714D01*
X136137619Y-138068047D01*
X135985238Y-138068047D01*
X128352523Y-130918000D02*
X128276333Y-130879904D01*
X128162047Y-130879904D01*
X128047761Y-130918000D01*
X127971571Y-130994190D01*
X127933476Y-131070380D01*
X127895380Y-131222761D01*
X127895380Y-131337047D01*
X127933476Y-131489428D01*
X127971571Y-131565619D01*
X128047761Y-131641809D01*
X128162047Y-131679904D01*
X128238238Y-131679904D01*
X128352523Y-131641809D01*
X128390619Y-131603714D01*
X128390619Y-131337047D01*
X128238238Y-131337047D01*
X126642761Y-135643809D02*
X126690380Y-135500952D01*
X126690380Y-135262857D01*
X126642761Y-135167619D01*
X126595142Y-135120000D01*
X126499904Y-135072380D01*
X126404666Y-135072380D01*
X126309428Y-135120000D01*
X126261809Y-135167619D01*
X126214190Y-135262857D01*
X126166571Y-135453333D01*
X126118952Y-135548571D01*
X126071333Y-135596190D01*
X125976095Y-135643809D01*
X125880857Y-135643809D01*
X125785619Y-135596190D01*
X125738000Y-135548571D01*
X125690380Y-135453333D01*
X125690380Y-135215238D01*
X125738000Y-135072380D01*
X126690380Y-134643809D02*
X125690380Y-134643809D01*
X126690380Y-134167619D02*
X125690380Y-134167619D01*
X125690380Y-133929523D01*
X125738000Y-133786666D01*
X125833238Y-133691428D01*
X125928476Y-133643809D01*
X126118952Y-133596190D01*
X126261809Y-133596190D01*
X126452285Y-133643809D01*
X126547523Y-133691428D01*
X126642761Y-133786666D01*
X126690380Y-133929523D01*
X126690380Y-134167619D01*
D11*
X124333000Y-138684000D02*
X124333000Y-138049000D01*
X118618000Y-138684000D02*
X124333000Y-138684000D01*
X106553000Y-138684000D02*
X106553000Y-138049000D01*
X112268000Y-138684000D02*
X106553000Y-138684000D01*
D10*
X113385857Y-138753857D02*
X113500142Y-138791952D01*
X113538238Y-138830047D01*
X113576333Y-138906238D01*
X113576333Y-139020523D01*
X113538238Y-139096714D01*
X113500142Y-139134809D01*
X113423952Y-139172904D01*
X113119190Y-139172904D01*
X113119190Y-138372904D01*
X113385857Y-138372904D01*
X113462047Y-138411000D01*
X113500142Y-138449095D01*
X113538238Y-138525285D01*
X113538238Y-138601476D01*
X113500142Y-138677666D01*
X113462047Y-138715761D01*
X113385857Y-138753857D01*
X113119190Y-138753857D01*
X114300142Y-139172904D02*
X113919190Y-139172904D01*
X113919190Y-138372904D01*
X114566809Y-139172904D02*
X114566809Y-138372904D01*
X114947761Y-139172904D02*
X114947761Y-138372904D01*
X115404904Y-139172904D01*
X115404904Y-138372904D01*
X115785857Y-139172904D02*
X115785857Y-138372904D01*
X116243000Y-139172904D02*
X115900142Y-138715761D01*
X116243000Y-138372904D02*
X115785857Y-138830047D01*
X116585857Y-138753857D02*
X116852523Y-138753857D01*
X116966809Y-139172904D02*
X116585857Y-139172904D01*
X116585857Y-138372904D01*
X116966809Y-138372904D01*
X117309666Y-139172904D02*
X117309666Y-138372904D01*
X117766809Y-139172904D01*
X117766809Y-138372904D01*
X101393809Y-132151380D02*
X101393809Y-131151380D01*
X102441428Y-132056142D02*
X102393809Y-132103761D01*
X102250952Y-132151380D01*
X102155714Y-132151380D01*
X102012857Y-132103761D01*
X101917619Y-132008523D01*
X101870000Y-131913285D01*
X101822380Y-131722809D01*
X101822380Y-131579952D01*
X101870000Y-131389476D01*
X101917619Y-131294238D01*
X102012857Y-131199000D01*
X102155714Y-131151380D01*
X102250952Y-131151380D01*
X102393809Y-131199000D01*
X102441428Y-131246619D01*
X102822380Y-132103761D02*
X102965238Y-132151380D01*
X103203333Y-132151380D01*
X103298571Y-132103761D01*
X103346190Y-132056142D01*
X103393809Y-131960904D01*
X103393809Y-131865666D01*
X103346190Y-131770428D01*
X103298571Y-131722809D01*
X103203333Y-131675190D01*
X103012857Y-131627571D01*
X102917619Y-131579952D01*
X102870000Y-131532333D01*
X102822380Y-131437095D01*
X102822380Y-131341857D01*
X102870000Y-131246619D01*
X102917619Y-131199000D01*
X103012857Y-131151380D01*
X103250952Y-131151380D01*
X103393809Y-131199000D01*
X103822380Y-132151380D02*
X103822380Y-131151380D01*
X104203333Y-131151380D01*
X104298571Y-131199000D01*
X104346190Y-131246619D01*
X104393809Y-131341857D01*
X104393809Y-131484714D01*
X104346190Y-131579952D01*
X104298571Y-131627571D01*
X104203333Y-131675190D01*
X103822380Y-131675190D01*
X103759047Y-108529428D02*
X104520952Y-108529428D01*
X104140000Y-108910380D02*
X104140000Y-108148476D01*
X101219047Y-108529428D02*
X101980952Y-108529428D01*
X98861619Y-97353619D02*
X99337809Y-97020285D01*
X98861619Y-96782190D02*
X99861619Y-96782190D01*
X99861619Y-97163142D01*
X99814000Y-97258380D01*
X99766380Y-97306000D01*
X99671142Y-97353619D01*
X99528285Y-97353619D01*
X99433047Y-97306000D01*
X99385428Y-97258380D01*
X99337809Y-97163142D01*
X99337809Y-96782190D01*
X99385428Y-97782190D02*
X99385428Y-98115523D01*
X98861619Y-98258380D02*
X98861619Y-97782190D01*
X99861619Y-97782190D01*
X99861619Y-98258380D01*
X98909238Y-98639333D02*
X98861619Y-98782190D01*
X98861619Y-99020285D01*
X98909238Y-99115523D01*
X98956857Y-99163142D01*
X99052095Y-99210761D01*
X99147333Y-99210761D01*
X99242571Y-99163142D01*
X99290190Y-99115523D01*
X99337809Y-99020285D01*
X99385428Y-98829809D01*
X99433047Y-98734571D01*
X99480666Y-98686952D01*
X99575904Y-98639333D01*
X99671142Y-98639333D01*
X99766380Y-98686952D01*
X99814000Y-98734571D01*
X99861619Y-98829809D01*
X99861619Y-99067904D01*
X99814000Y-99210761D01*
X99385428Y-99639333D02*
X99385428Y-99972666D01*
X98861619Y-100115523D02*
X98861619Y-99639333D01*
X99861619Y-99639333D01*
X99861619Y-100115523D01*
X99861619Y-100401238D02*
X99861619Y-100972666D01*
X98861619Y-100686952D02*
X99861619Y-100686952D01*
X99675904Y-76905476D02*
X99714000Y-76943571D01*
X99752095Y-77019761D01*
X99752095Y-77210238D01*
X99714000Y-77286428D01*
X99675904Y-77324523D01*
X99599714Y-77362619D01*
X99523523Y-77362619D01*
X99409238Y-77324523D01*
X98952095Y-76867380D01*
X98952095Y-77362619D01*
X99028285Y-77705476D02*
X98990190Y-77743571D01*
X98952095Y-77705476D01*
X98990190Y-77667380D01*
X99028285Y-77705476D01*
X98952095Y-77705476D01*
X99752095Y-78467380D02*
X99752095Y-78086428D01*
X99371142Y-78048333D01*
X99409238Y-78086428D01*
X99447333Y-78162619D01*
X99447333Y-78353095D01*
X99409238Y-78429285D01*
X99371142Y-78467380D01*
X99294952Y-78505476D01*
X99104476Y-78505476D01*
X99028285Y-78467380D01*
X98990190Y-78429285D01*
X98952095Y-78353095D01*
X98952095Y-78162619D01*
X98990190Y-78086428D01*
X99028285Y-78048333D01*
X99752095Y-78734047D02*
X98952095Y-79000714D01*
X99752095Y-79267380D01*
X98952095Y-80791190D02*
X98952095Y-80753095D01*
X98990190Y-80676904D01*
X99104476Y-80562619D01*
X99333047Y-80372142D01*
X99447333Y-80295952D01*
X99561619Y-80257857D01*
X99637809Y-80257857D01*
X99714000Y-80295952D01*
X99752095Y-80372142D01*
X99752095Y-80410238D01*
X99714000Y-80486428D01*
X99637809Y-80524523D01*
X99599714Y-80524523D01*
X99523523Y-80486428D01*
X99485428Y-80448333D01*
X99333047Y-80219761D01*
X99294952Y-80181666D01*
X99218761Y-80143571D01*
X99104476Y-80143571D01*
X99028285Y-80181666D01*
X98990190Y-80219761D01*
X98952095Y-80295952D01*
X98952095Y-80410238D01*
X98990190Y-80486428D01*
X99028285Y-80524523D01*
X99180666Y-80638809D01*
X99294952Y-80676904D01*
X99371142Y-80676904D01*
X98952095Y-82162619D02*
X98952095Y-81705476D01*
X98952095Y-81934047D02*
X99752095Y-81934047D01*
X99637809Y-81857857D01*
X99561619Y-81781666D01*
X99523523Y-81705476D01*
X99028285Y-82505476D02*
X98990190Y-82543571D01*
X98952095Y-82505476D01*
X98990190Y-82467380D01*
X99028285Y-82505476D01*
X98952095Y-82505476D01*
X99675904Y-82848333D02*
X99714000Y-82886428D01*
X99752095Y-82962619D01*
X99752095Y-83153095D01*
X99714000Y-83229285D01*
X99675904Y-83267380D01*
X99599714Y-83305476D01*
X99523523Y-83305476D01*
X99409238Y-83267380D01*
X98952095Y-82810238D01*
X98952095Y-83305476D01*
X99752095Y-83534047D02*
X98952095Y-83800714D01*
X99752095Y-84067380D01*
X98952095Y-85400714D02*
X99333047Y-85134047D01*
X98952095Y-84943571D02*
X99752095Y-84943571D01*
X99752095Y-85248333D01*
X99714000Y-85324523D01*
X99675904Y-85362619D01*
X99599714Y-85400714D01*
X99485428Y-85400714D01*
X99409238Y-85362619D01*
X99371142Y-85324523D01*
X99333047Y-85248333D01*
X99333047Y-84943571D01*
X99371142Y-85743571D02*
X99371142Y-86010238D01*
X98952095Y-86124523D02*
X98952095Y-85743571D01*
X99752095Y-85743571D01*
X99752095Y-86124523D01*
X99714000Y-86886428D02*
X99752095Y-86810238D01*
X99752095Y-86695952D01*
X99714000Y-86581666D01*
X99637809Y-86505476D01*
X99561619Y-86467380D01*
X99409238Y-86429285D01*
X99294952Y-86429285D01*
X99142571Y-86467380D01*
X99066380Y-86505476D01*
X98990190Y-86581666D01*
X98952095Y-86695952D01*
X98952095Y-86772142D01*
X98990190Y-86886428D01*
X99028285Y-86924523D01*
X99294952Y-86924523D01*
X99294952Y-86772142D01*
X98861619Y-70294666D02*
X99861619Y-70294666D01*
X99861619Y-70675619D01*
X99814000Y-70770857D01*
X99766380Y-70818476D01*
X99671142Y-70866095D01*
X99528285Y-70866095D01*
X99433047Y-70818476D01*
X99385428Y-70770857D01*
X99337809Y-70675619D01*
X99337809Y-70294666D01*
X99861619Y-71199428D02*
X98861619Y-71437523D01*
X99575904Y-71628000D01*
X98861619Y-71818476D01*
X99861619Y-72056571D01*
X98861619Y-73008952D02*
X99337809Y-72675619D01*
X98861619Y-72437523D02*
X99861619Y-72437523D01*
X99861619Y-72818476D01*
X99814000Y-72913714D01*
X99766380Y-72961333D01*
X99671142Y-73008952D01*
X99528285Y-73008952D01*
X99433047Y-72961333D01*
X99385428Y-72913714D01*
X99337809Y-72818476D01*
X99337809Y-72437523D01*
X99861619Y-55872476D02*
X99861619Y-56491523D01*
X99480666Y-56158190D01*
X99480666Y-56301047D01*
X99433047Y-56396285D01*
X99385428Y-56443904D01*
X99290190Y-56491523D01*
X99052095Y-56491523D01*
X98956857Y-56443904D01*
X98909238Y-56396285D01*
X98861619Y-56301047D01*
X98861619Y-56015333D01*
X98909238Y-55920095D01*
X98956857Y-55872476D01*
X98956857Y-56920095D02*
X98909238Y-56967714D01*
X98861619Y-56920095D01*
X98909238Y-56872476D01*
X98956857Y-56920095D01*
X98861619Y-56920095D01*
X99861619Y-57301047D02*
X99861619Y-57920095D01*
X99480666Y-57586761D01*
X99480666Y-57729619D01*
X99433047Y-57824857D01*
X99385428Y-57872476D01*
X99290190Y-57920095D01*
X99052095Y-57920095D01*
X98956857Y-57872476D01*
X98909238Y-57824857D01*
X98861619Y-57729619D01*
X98861619Y-57443904D01*
X98909238Y-57348666D01*
X98956857Y-57301047D01*
X99861619Y-58205809D02*
X98861619Y-58539142D01*
X99861619Y-58872476D01*
X98861619Y-60539142D02*
X99337809Y-60205809D01*
X98861619Y-59967714D02*
X99861619Y-59967714D01*
X99861619Y-60348666D01*
X99814000Y-60443904D01*
X99766380Y-60491523D01*
X99671142Y-60539142D01*
X99528285Y-60539142D01*
X99433047Y-60491523D01*
X99385428Y-60443904D01*
X99337809Y-60348666D01*
X99337809Y-59967714D01*
X99385428Y-60967714D02*
X99385428Y-61301047D01*
X98861619Y-61443904D02*
X98861619Y-60967714D01*
X99861619Y-60967714D01*
X99861619Y-61443904D01*
X99814000Y-62396285D02*
X99861619Y-62301047D01*
X99861619Y-62158190D01*
X99814000Y-62015333D01*
X99718761Y-61920095D01*
X99623523Y-61872476D01*
X99433047Y-61824857D01*
X99290190Y-61824857D01*
X99099714Y-61872476D01*
X99004476Y-61920095D01*
X98909238Y-62015333D01*
X98861619Y-62158190D01*
X98861619Y-62253428D01*
X98909238Y-62396285D01*
X98956857Y-62443904D01*
X99290190Y-62443904D01*
X99290190Y-62253428D01*
X99242571Y-48260333D02*
X99242571Y-49022238D01*
X99861619Y-50736523D02*
X99861619Y-50260333D01*
X99385428Y-50212714D01*
X99433047Y-50260333D01*
X99480666Y-50355571D01*
X99480666Y-50593666D01*
X99433047Y-50688904D01*
X99385428Y-50736523D01*
X99290190Y-50784142D01*
X99052095Y-50784142D01*
X98956857Y-50736523D01*
X98909238Y-50688904D01*
X98861619Y-50593666D01*
X98861619Y-50355571D01*
X98909238Y-50260333D01*
X98956857Y-50212714D01*
X99861619Y-51069857D02*
X98861619Y-51403190D01*
X99861619Y-51736523D01*
X99242571Y-52831761D02*
X99242571Y-53593666D01*
X98861619Y-53212714D02*
X99623523Y-53212714D01*
X130880142Y-110898904D02*
X130880142Y-110098904D01*
X131184904Y-110098904D01*
X131261095Y-110137000D01*
X131299190Y-110175095D01*
X131337285Y-110251285D01*
X131337285Y-110365571D01*
X131299190Y-110441761D01*
X131261095Y-110479857D01*
X131184904Y-110517952D01*
X130880142Y-110517952D01*
X132137285Y-110898904D02*
X131870619Y-110517952D01*
X131680142Y-110898904D02*
X131680142Y-110098904D01*
X131984904Y-110098904D01*
X132061095Y-110137000D01*
X132099190Y-110175095D01*
X132137285Y-110251285D01*
X132137285Y-110365571D01*
X132099190Y-110441761D01*
X132061095Y-110479857D01*
X131984904Y-110517952D01*
X131680142Y-110517952D01*
X132480142Y-110898904D02*
X132480142Y-110098904D01*
X132861095Y-110898904D02*
X132861095Y-110098904D01*
X133127761Y-110670333D01*
X133394428Y-110098904D01*
X133394428Y-110898904D01*
X133737285Y-110670333D02*
X134118238Y-110670333D01*
X133661095Y-110898904D02*
X133927761Y-110098904D01*
X134194428Y-110898904D01*
X134918238Y-110898904D02*
X134651571Y-110517952D01*
X134461095Y-110898904D02*
X134461095Y-110098904D01*
X134765857Y-110098904D01*
X134842047Y-110137000D01*
X134880142Y-110175095D01*
X134918238Y-110251285D01*
X134918238Y-110365571D01*
X134880142Y-110441761D01*
X134842047Y-110479857D01*
X134765857Y-110517952D01*
X134461095Y-110517952D01*
X135413476Y-110517952D02*
X135413476Y-110898904D01*
X135146809Y-110098904D02*
X135413476Y-110517952D01*
X135680142Y-110098904D01*
X131375380Y-112172714D02*
X131337285Y-112210809D01*
X131223000Y-112248904D01*
X131146809Y-112248904D01*
X131032523Y-112210809D01*
X130956333Y-112134619D01*
X130918238Y-112058428D01*
X130880142Y-111906047D01*
X130880142Y-111791761D01*
X130918238Y-111639380D01*
X130956333Y-111563190D01*
X131032523Y-111487000D01*
X131146809Y-111448904D01*
X131223000Y-111448904D01*
X131337285Y-111487000D01*
X131375380Y-111525095D01*
X132175380Y-112248904D02*
X131908714Y-111867952D01*
X131718238Y-112248904D02*
X131718238Y-111448904D01*
X132023000Y-111448904D01*
X132099190Y-111487000D01*
X132137285Y-111525095D01*
X132175380Y-111601285D01*
X132175380Y-111715571D01*
X132137285Y-111791761D01*
X132099190Y-111829857D01*
X132023000Y-111867952D01*
X131718238Y-111867952D01*
X132670619Y-111867952D02*
X132670619Y-112248904D01*
X132403952Y-111448904D02*
X132670619Y-111867952D01*
X132937285Y-111448904D01*
X133165857Y-112210809D02*
X133280142Y-112248904D01*
X133470619Y-112248904D01*
X133546809Y-112210809D01*
X133584904Y-112172714D01*
X133623000Y-112096523D01*
X133623000Y-112020333D01*
X133584904Y-111944142D01*
X133546809Y-111906047D01*
X133470619Y-111867952D01*
X133318238Y-111829857D01*
X133242047Y-111791761D01*
X133203952Y-111753666D01*
X133165857Y-111677476D01*
X133165857Y-111601285D01*
X133203952Y-111525095D01*
X133242047Y-111487000D01*
X133318238Y-111448904D01*
X133508714Y-111448904D01*
X133623000Y-111487000D01*
X133851571Y-111448904D02*
X134308714Y-111448904D01*
X134080142Y-112248904D02*
X134080142Y-111448904D01*
X134537285Y-112020333D02*
X134918238Y-112020333D01*
X134461095Y-112248904D02*
X134727761Y-111448904D01*
X134994428Y-112248904D01*
X135642047Y-112248904D02*
X135261095Y-112248904D01*
X135261095Y-111448904D01*
X130061095Y-112798904D02*
X130213476Y-112798904D01*
X130289666Y-112837000D01*
X130365857Y-112913190D01*
X130403952Y-113065571D01*
X130403952Y-113332238D01*
X130365857Y-113484619D01*
X130289666Y-113560809D01*
X130213476Y-113598904D01*
X130061095Y-113598904D01*
X129984904Y-113560809D01*
X129908714Y-113484619D01*
X129870619Y-113332238D01*
X129870619Y-113065571D01*
X129908714Y-112913190D01*
X129984904Y-112837000D01*
X130061095Y-112798904D01*
X130708714Y-113560809D02*
X130823000Y-113598904D01*
X131013476Y-113598904D01*
X131089666Y-113560809D01*
X131127761Y-113522714D01*
X131165857Y-113446523D01*
X131165857Y-113370333D01*
X131127761Y-113294142D01*
X131089666Y-113256047D01*
X131013476Y-113217952D01*
X130861095Y-113179857D01*
X130784904Y-113141761D01*
X130746809Y-113103666D01*
X130708714Y-113027476D01*
X130708714Y-112951285D01*
X130746809Y-112875095D01*
X130784904Y-112837000D01*
X130861095Y-112798904D01*
X131051571Y-112798904D01*
X131165857Y-112837000D01*
X131965857Y-113522714D02*
X131927761Y-113560809D01*
X131813476Y-113598904D01*
X131737285Y-113598904D01*
X131623000Y-113560809D01*
X131546809Y-113484619D01*
X131508714Y-113408428D01*
X131470619Y-113256047D01*
X131470619Y-113141761D01*
X131508714Y-112989380D01*
X131546809Y-112913190D01*
X131623000Y-112837000D01*
X131737285Y-112798904D01*
X131813476Y-112798904D01*
X131927761Y-112837000D01*
X131965857Y-112875095D01*
X132308714Y-113598904D02*
X132308714Y-112798904D01*
X133070619Y-113598904D02*
X132689666Y-113598904D01*
X132689666Y-112798904D01*
X133718238Y-113598904D02*
X133337285Y-113598904D01*
X133337285Y-112798904D01*
X133946809Y-113370333D02*
X134327761Y-113370333D01*
X133870619Y-113598904D02*
X134137285Y-112798904D01*
X134403952Y-113598904D01*
X134556333Y-112798904D02*
X135013476Y-112798904D01*
X134784904Y-113598904D02*
X134784904Y-112798904D01*
X135432523Y-112798904D02*
X135584904Y-112798904D01*
X135661095Y-112837000D01*
X135737285Y-112913190D01*
X135775380Y-113065571D01*
X135775380Y-113332238D01*
X135737285Y-113484619D01*
X135661095Y-113560809D01*
X135584904Y-113598904D01*
X135432523Y-113598904D01*
X135356333Y-113560809D01*
X135280142Y-113484619D01*
X135242047Y-113332238D01*
X135242047Y-113065571D01*
X135280142Y-112913190D01*
X135356333Y-112837000D01*
X135432523Y-112798904D01*
X136575380Y-113598904D02*
X136308714Y-113217952D01*
X136118238Y-113598904D02*
X136118238Y-112798904D01*
X136423000Y-112798904D01*
X136499190Y-112837000D01*
X136537285Y-112875095D01*
X136575380Y-112951285D01*
X136575380Y-113065571D01*
X136537285Y-113141761D01*
X136499190Y-113179857D01*
X136423000Y-113217952D01*
X136118238Y-113217952D01*
X136469880Y-123086666D02*
X136469880Y-123658095D01*
X136469880Y-123372380D02*
X135469880Y-123372380D01*
X135612738Y-123467619D01*
X135707976Y-123562857D01*
X135755595Y-123658095D01*
X135565119Y-122705714D02*
X135517500Y-122658095D01*
X135469880Y-122562857D01*
X135469880Y-122324761D01*
X135517500Y-122229523D01*
X135565119Y-122181904D01*
X135660357Y-122134285D01*
X135755595Y-122134285D01*
X135898452Y-122181904D01*
X136469880Y-122753333D01*
X136469880Y-122134285D01*
X135898452Y-121562857D02*
X135850833Y-121658095D01*
X135803214Y-121705714D01*
X135707976Y-121753333D01*
X135660357Y-121753333D01*
X135565119Y-121705714D01*
X135517500Y-121658095D01*
X135469880Y-121562857D01*
X135469880Y-121372380D01*
X135517500Y-121277142D01*
X135565119Y-121229523D01*
X135660357Y-121181904D01*
X135707976Y-121181904D01*
X135803214Y-121229523D01*
X135850833Y-121277142D01*
X135898452Y-121372380D01*
X135898452Y-121562857D01*
X135946071Y-121658095D01*
X135993690Y-121705714D01*
X136088928Y-121753333D01*
X136279404Y-121753333D01*
X136374642Y-121705714D01*
X136422261Y-121658095D01*
X136469880Y-121562857D01*
X136469880Y-121372380D01*
X136422261Y-121277142D01*
X136374642Y-121229523D01*
X136279404Y-121181904D01*
X136088928Y-121181904D01*
X135993690Y-121229523D01*
X135946071Y-121277142D01*
X135898452Y-121372380D01*
X136469880Y-120753333D02*
X135469880Y-120753333D01*
X136469880Y-120181904D02*
X135898452Y-120610476D01*
X135469880Y-120181904D02*
X136041309Y-120753333D01*
X137596071Y-124681904D02*
X137596071Y-124348571D01*
X138119880Y-124205714D02*
X138119880Y-124681904D01*
X137119880Y-124681904D01*
X137119880Y-124205714D01*
X137596071Y-123777142D02*
X137596071Y-123443809D01*
X138119880Y-123300952D02*
X138119880Y-123777142D01*
X137119880Y-123777142D01*
X137119880Y-123300952D01*
X138119880Y-122872380D02*
X137119880Y-122872380D01*
X137119880Y-122491428D01*
X137167500Y-122396190D01*
X137215119Y-122348571D01*
X137310357Y-122300952D01*
X137453214Y-122300952D01*
X137548452Y-122348571D01*
X137596071Y-122396190D01*
X137643690Y-122491428D01*
X137643690Y-122872380D01*
X138119880Y-121300952D02*
X137643690Y-121634285D01*
X138119880Y-121872380D02*
X137119880Y-121872380D01*
X137119880Y-121491428D01*
X137167500Y-121396190D01*
X137215119Y-121348571D01*
X137310357Y-121300952D01*
X137453214Y-121300952D01*
X137548452Y-121348571D01*
X137596071Y-121396190D01*
X137643690Y-121491428D01*
X137643690Y-121872380D01*
X137119880Y-120681904D02*
X137119880Y-120491428D01*
X137167500Y-120396190D01*
X137262738Y-120300952D01*
X137453214Y-120253333D01*
X137786547Y-120253333D01*
X137977023Y-120300952D01*
X138072261Y-120396190D01*
X138119880Y-120491428D01*
X138119880Y-120681904D01*
X138072261Y-120777142D01*
X137977023Y-120872380D01*
X137786547Y-120920000D01*
X137453214Y-120920000D01*
X137262738Y-120872380D01*
X137167500Y-120777142D01*
X137119880Y-120681904D01*
X138119880Y-119824761D02*
X137119880Y-119824761D01*
X137834166Y-119491428D01*
X137119880Y-119158095D01*
X138119880Y-119158095D01*
X123177333Y-137102904D02*
X123710666Y-137102904D01*
X123367809Y-137902904D01*
X121310380Y-137102904D02*
X121158000Y-137102904D01*
X121081809Y-137141000D01*
X121043714Y-137179095D01*
X120967523Y-137293380D01*
X120929428Y-137445761D01*
X120929428Y-137750523D01*
X120967523Y-137826714D01*
X121005619Y-137864809D01*
X121081809Y-137902904D01*
X121234190Y-137902904D01*
X121310380Y-137864809D01*
X121348476Y-137826714D01*
X121386571Y-137750523D01*
X121386571Y-137560047D01*
X121348476Y-137483857D01*
X121310380Y-137445761D01*
X121234190Y-137407666D01*
X121081809Y-137407666D01*
X121005619Y-137445761D01*
X120967523Y-137483857D01*
X120929428Y-137560047D01*
X119062476Y-137102904D02*
X118681523Y-137102904D01*
X118643428Y-137483857D01*
X118681523Y-137445761D01*
X118757714Y-137407666D01*
X118948190Y-137407666D01*
X119024380Y-137445761D01*
X119062476Y-137483857D01*
X119100571Y-137560047D01*
X119100571Y-137750523D01*
X119062476Y-137826714D01*
X119024380Y-137864809D01*
X118948190Y-137902904D01*
X118757714Y-137902904D01*
X118681523Y-137864809D01*
X118643428Y-137826714D01*
X116738380Y-137369571D02*
X116738380Y-137902904D01*
X116547904Y-137064809D02*
X116357428Y-137636238D01*
X116852666Y-137636238D01*
X114033333Y-137102904D02*
X114528571Y-137102904D01*
X114261904Y-137407666D01*
X114376190Y-137407666D01*
X114452380Y-137445761D01*
X114490476Y-137483857D01*
X114528571Y-137560047D01*
X114528571Y-137750523D01*
X114490476Y-137826714D01*
X114452380Y-137864809D01*
X114376190Y-137902904D01*
X114147619Y-137902904D01*
X114071428Y-137864809D01*
X114033333Y-137826714D01*
X111785428Y-137179095D02*
X111823523Y-137141000D01*
X111899714Y-137102904D01*
X112090190Y-137102904D01*
X112166380Y-137141000D01*
X112204476Y-137179095D01*
X112242571Y-137255285D01*
X112242571Y-137331476D01*
X112204476Y-137445761D01*
X111747333Y-137902904D01*
X112242571Y-137902904D01*
X109956571Y-137902904D02*
X109499428Y-137902904D01*
X109728000Y-137902904D02*
X109728000Y-137102904D01*
X109651809Y-137217190D01*
X109575619Y-137293380D01*
X109499428Y-137331476D01*
X107403904Y-137102904D02*
X107480095Y-137102904D01*
X107556285Y-137141000D01*
X107594380Y-137179095D01*
X107632476Y-137255285D01*
X107670571Y-137407666D01*
X107670571Y-137598142D01*
X107632476Y-137750523D01*
X107594380Y-137826714D01*
X107556285Y-137864809D01*
X107480095Y-137902904D01*
X107403904Y-137902904D01*
X107327714Y-137864809D01*
X107289619Y-137826714D01*
X107251523Y-137750523D01*
X107213428Y-137598142D01*
X107213428Y-137407666D01*
X107251523Y-137255285D01*
X107289619Y-137179095D01*
X107327714Y-137141000D01*
X107403904Y-137102904D01*
X109887666Y-131516380D02*
X109887666Y-130516380D01*
X110268619Y-130516380D01*
X110363857Y-130564000D01*
X110411476Y-130611619D01*
X110459095Y-130706857D01*
X110459095Y-130849714D01*
X110411476Y-130944952D01*
X110363857Y-130992571D01*
X110268619Y-131040190D01*
X109887666Y-131040190D01*
X111316238Y-131516380D02*
X111316238Y-130992571D01*
X111268619Y-130897333D01*
X111173380Y-130849714D01*
X110982904Y-130849714D01*
X110887666Y-130897333D01*
X111316238Y-131468761D02*
X111221000Y-131516380D01*
X110982904Y-131516380D01*
X110887666Y-131468761D01*
X110840047Y-131373523D01*
X110840047Y-131278285D01*
X110887666Y-131183047D01*
X110982904Y-131135428D01*
X111221000Y-131135428D01*
X111316238Y-131087809D01*
X112221000Y-130849714D02*
X112221000Y-131516380D01*
X111792428Y-130849714D02*
X111792428Y-131373523D01*
X111840047Y-131468761D01*
X111935285Y-131516380D01*
X112078142Y-131516380D01*
X112173380Y-131468761D01*
X112221000Y-131421142D01*
X112840047Y-131516380D02*
X112744809Y-131468761D01*
X112697190Y-131373523D01*
X112697190Y-130516380D01*
X113935285Y-131230666D02*
X114411476Y-131230666D01*
X113840047Y-131516380D02*
X114173380Y-130516380D01*
X114506714Y-131516380D01*
X114840047Y-130849714D02*
X114840047Y-131516380D01*
X114840047Y-130944952D02*
X114887666Y-130897333D01*
X114982904Y-130849714D01*
X115125761Y-130849714D01*
X115221000Y-130897333D01*
X115268619Y-130992571D01*
X115268619Y-131516380D01*
X115744809Y-130849714D02*
X115744809Y-131516380D01*
X115744809Y-130944952D02*
X115792428Y-130897333D01*
X115887666Y-130849714D01*
X116030523Y-130849714D01*
X116125761Y-130897333D01*
X116173380Y-130992571D01*
X116173380Y-131516380D01*
X117030523Y-131468761D02*
X116935285Y-131516380D01*
X116744809Y-131516380D01*
X116649571Y-131468761D01*
X116601952Y-131373523D01*
X116601952Y-130992571D01*
X116649571Y-130897333D01*
X116744809Y-130849714D01*
X116935285Y-130849714D01*
X117030523Y-130897333D01*
X117078142Y-130992571D01*
X117078142Y-131087809D01*
X116601952Y-131183047D01*
X117459095Y-131468761D02*
X117554333Y-131516380D01*
X117744809Y-131516380D01*
X117840047Y-131468761D01*
X117887666Y-131373523D01*
X117887666Y-131325904D01*
X117840047Y-131230666D01*
X117744809Y-131183047D01*
X117601952Y-131183047D01*
X117506714Y-131135428D01*
X117459095Y-131040190D01*
X117459095Y-130992571D01*
X117506714Y-130897333D01*
X117601952Y-130849714D01*
X117744809Y-130849714D01*
X117840047Y-130897333D01*
X118459095Y-131516380D02*
X118363857Y-131468761D01*
X118316238Y-131373523D01*
X118316238Y-130516380D01*
X119221000Y-131468761D02*
X119125761Y-131516380D01*
X118935285Y-131516380D01*
X118840047Y-131468761D01*
X118792428Y-131373523D01*
X118792428Y-130992571D01*
X118840047Y-130897333D01*
X118935285Y-130849714D01*
X119125761Y-130849714D01*
X119221000Y-130897333D01*
X119268619Y-130992571D01*
X119268619Y-131087809D01*
X118792428Y-131183047D01*
X119601952Y-130849714D02*
X119840047Y-131516380D01*
X120078142Y-130849714D02*
X119840047Y-131516380D01*
X119744809Y-131754476D01*
X119697190Y-131802095D01*
X119601952Y-131849714D01*
X121173380Y-130611619D02*
X121221000Y-130564000D01*
X121316238Y-130516380D01*
X121554333Y-130516380D01*
X121649571Y-130564000D01*
X121697190Y-130611619D01*
X121744809Y-130706857D01*
X121744809Y-130802095D01*
X121697190Y-130944952D01*
X121125761Y-131516380D01*
X121744809Y-131516380D01*
X122363857Y-130516380D02*
X122459095Y-130516380D01*
X122554333Y-130564000D01*
X122601952Y-130611619D01*
X122649571Y-130706857D01*
X122697190Y-130897333D01*
X122697190Y-131135428D01*
X122649571Y-131325904D01*
X122601952Y-131421142D01*
X122554333Y-131468761D01*
X122459095Y-131516380D01*
X122363857Y-131516380D01*
X122268619Y-131468761D01*
X122221000Y-131421142D01*
X122173380Y-131325904D01*
X122125761Y-131135428D01*
X122125761Y-130897333D01*
X122173380Y-130706857D01*
X122221000Y-130611619D01*
X122268619Y-130564000D01*
X122363857Y-130516380D01*
X123078142Y-130611619D02*
X123125761Y-130564000D01*
X123221000Y-130516380D01*
X123459095Y-130516380D01*
X123554333Y-130564000D01*
X123601952Y-130611619D01*
X123649571Y-130706857D01*
X123649571Y-130802095D01*
X123601952Y-130944952D01*
X123030523Y-131516380D01*
X123649571Y-131516380D01*
X124601952Y-131516380D02*
X124030523Y-131516380D01*
X124316238Y-131516380D02*
X124316238Y-130516380D01*
X124221000Y-130659238D01*
X124125761Y-130754476D01*
X124030523Y-130802095D01*
X141582380Y-103052571D02*
X141249047Y-103052571D01*
X141249047Y-103576380D02*
X141249047Y-102576380D01*
X141725238Y-102576380D01*
X142106190Y-103576380D02*
X142106190Y-102576380D01*
X142487142Y-102576380D01*
X142582380Y-102624000D01*
X142630000Y-102671619D01*
X142677619Y-102766857D01*
X142677619Y-102909714D01*
X142630000Y-103004952D01*
X142582380Y-103052571D01*
X142487142Y-103100190D01*
X142106190Y-103100190D01*
X143630000Y-102624000D02*
X143534761Y-102576380D01*
X143391904Y-102576380D01*
X143249047Y-102624000D01*
X143153809Y-102719238D01*
X143106190Y-102814476D01*
X143058571Y-103004952D01*
X143058571Y-103147809D01*
X143106190Y-103338285D01*
X143153809Y-103433523D01*
X143249047Y-103528761D01*
X143391904Y-103576380D01*
X143487142Y-103576380D01*
X143630000Y-103528761D01*
X143677619Y-103481142D01*
X143677619Y-103147809D01*
X143487142Y-103147809D01*
X144058571Y-103290666D02*
X144534761Y-103290666D01*
X143963333Y-103576380D02*
X144296666Y-102576380D01*
X144630000Y-103576380D01*
X145677619Y-103528761D02*
X145820476Y-103576380D01*
X146058571Y-103576380D01*
X146153809Y-103528761D01*
X146201428Y-103481142D01*
X146249047Y-103385904D01*
X146249047Y-103290666D01*
X146201428Y-103195428D01*
X146153809Y-103147809D01*
X146058571Y-103100190D01*
X145868095Y-103052571D01*
X145772857Y-103004952D01*
X145725238Y-102957333D01*
X145677619Y-102862095D01*
X145677619Y-102766857D01*
X145725238Y-102671619D01*
X145772857Y-102624000D01*
X145868095Y-102576380D01*
X146106190Y-102576380D01*
X146249047Y-102624000D01*
X146868095Y-103100190D02*
X146868095Y-103576380D01*
X146534761Y-102576380D02*
X146868095Y-103100190D01*
X147201428Y-102576380D01*
X147487142Y-103528761D02*
X147630000Y-103576380D01*
X147868095Y-103576380D01*
X147963333Y-103528761D01*
X148010952Y-103481142D01*
X148058571Y-103385904D01*
X148058571Y-103290666D01*
X148010952Y-103195428D01*
X147963333Y-103147809D01*
X147868095Y-103100190D01*
X147677619Y-103052571D01*
X147582380Y-103004952D01*
X147534761Y-102957333D01*
X147487142Y-102862095D01*
X147487142Y-102766857D01*
X147534761Y-102671619D01*
X147582380Y-102624000D01*
X147677619Y-102576380D01*
X147915714Y-102576380D01*
X148058571Y-102624000D01*
X148344285Y-102576380D02*
X148915714Y-102576380D01*
X148630000Y-103576380D02*
X148630000Y-102576380D01*
X149249047Y-103052571D02*
X149582380Y-103052571D01*
X149725238Y-103576380D02*
X149249047Y-103576380D01*
X149249047Y-102576380D01*
X149725238Y-102576380D01*
X150153809Y-103576380D02*
X150153809Y-102576380D01*
X150487142Y-103290666D01*
X150820476Y-102576380D01*
X150820476Y-103576380D01*
X152630000Y-103481142D02*
X152582380Y-103528761D01*
X152439523Y-103576380D01*
X152344285Y-103576380D01*
X152201428Y-103528761D01*
X152106190Y-103433523D01*
X152058571Y-103338285D01*
X152010952Y-103147809D01*
X152010952Y-103004952D01*
X152058571Y-102814476D01*
X152106190Y-102719238D01*
X152201428Y-102624000D01*
X152344285Y-102576380D01*
X152439523Y-102576380D01*
X152582380Y-102624000D01*
X152630000Y-102671619D01*
X153249047Y-102576380D02*
X153439523Y-102576380D01*
X153534761Y-102624000D01*
X153630000Y-102719238D01*
X153677619Y-102909714D01*
X153677619Y-103243047D01*
X153630000Y-103433523D01*
X153534761Y-103528761D01*
X153439523Y-103576380D01*
X153249047Y-103576380D01*
X153153809Y-103528761D01*
X153058571Y-103433523D01*
X153010952Y-103243047D01*
X153010952Y-102909714D01*
X153058571Y-102719238D01*
X153153809Y-102624000D01*
X153249047Y-102576380D01*
X154106190Y-103576380D02*
X154106190Y-102576380D01*
X154677619Y-103576380D01*
X154677619Y-102576380D01*
X155010952Y-102576380D02*
X155582380Y-102576380D01*
X155296666Y-103576380D02*
X155296666Y-102576380D01*
X156487142Y-103576380D02*
X156153809Y-103100190D01*
X155915714Y-103576380D02*
X155915714Y-102576380D01*
X156296666Y-102576380D01*
X156391904Y-102624000D01*
X156439523Y-102671619D01*
X156487142Y-102766857D01*
X156487142Y-102909714D01*
X156439523Y-103004952D01*
X156391904Y-103052571D01*
X156296666Y-103100190D01*
X155915714Y-103100190D01*
X157106190Y-102576380D02*
X157296666Y-102576380D01*
X157391904Y-102624000D01*
X157487142Y-102719238D01*
X157534761Y-102909714D01*
X157534761Y-103243047D01*
X157487142Y-103433523D01*
X157391904Y-103528761D01*
X157296666Y-103576380D01*
X157106190Y-103576380D01*
X157010952Y-103528761D01*
X156915714Y-103433523D01*
X156868095Y-103243047D01*
X156868095Y-102909714D01*
X156915714Y-102719238D01*
X157010952Y-102624000D01*
X157106190Y-102576380D01*
X158439523Y-103576380D02*
X157963333Y-103576380D01*
X157963333Y-102576380D01*
X159249047Y-103576380D02*
X158772857Y-103576380D01*
X158772857Y-102576380D01*
X159582380Y-103052571D02*
X159915714Y-103052571D01*
X160058571Y-103576380D02*
X159582380Y-103576380D01*
X159582380Y-102576380D01*
X160058571Y-102576380D01*
X161058571Y-103576380D02*
X160725238Y-103100190D01*
X160487142Y-103576380D02*
X160487142Y-102576380D01*
X160868095Y-102576380D01*
X160963333Y-102624000D01*
X161010952Y-102671619D01*
X161058571Y-102766857D01*
X161058571Y-102909714D01*
X161010952Y-103004952D01*
X160963333Y-103052571D01*
X160868095Y-103100190D01*
X160487142Y-103100190D01*
D12*
G36*
X153416000Y-99822000D02*
G01*
X152908000Y-99822000D01*
X152908000Y-99314000D01*
X153416000Y-99314000D01*
X153416000Y-99822000D01*
G37*
X153416000Y-99822000D02*
X152908000Y-99822000D01*
X152908000Y-99314000D01*
X153416000Y-99314000D01*
X153416000Y-99822000D01*
G36*
X152400000Y-99822000D02*
G01*
X151892000Y-99822000D01*
X151892000Y-99314000D01*
X152400000Y-99314000D01*
X152400000Y-99822000D01*
G37*
X152400000Y-99822000D02*
X151892000Y-99822000D01*
X151892000Y-99314000D01*
X152400000Y-99314000D01*
X152400000Y-99822000D01*
G36*
X157226000Y-100076000D02*
G01*
X158242000Y-100076000D01*
X158242000Y-100584000D01*
X157226000Y-100584000D01*
X157226000Y-101092000D01*
X157480000Y-101346000D01*
X158242000Y-101346000D01*
X158242000Y-101854000D01*
X157226000Y-101854000D01*
X156718000Y-101346000D01*
X156718000Y-100584000D01*
X156210000Y-100584000D01*
X156210000Y-100076000D01*
X156718000Y-100076000D01*
X156718000Y-99822000D01*
X157226000Y-99314000D01*
X157226000Y-100076000D01*
G37*
X157226000Y-100076000D02*
X158242000Y-100076000D01*
X158242000Y-100584000D01*
X157226000Y-100584000D01*
X157226000Y-101092000D01*
X157480000Y-101346000D01*
X158242000Y-101346000D01*
X158242000Y-101854000D01*
X157226000Y-101854000D01*
X156718000Y-101346000D01*
X156718000Y-100584000D01*
X156210000Y-100584000D01*
X156210000Y-100076000D01*
X156718000Y-100076000D01*
X156718000Y-99822000D01*
X157226000Y-99314000D01*
X157226000Y-100076000D01*
G36*
X155956000Y-100584000D02*
G01*
X154686000Y-100584000D01*
X154432000Y-100838000D01*
X155956000Y-100838000D01*
X155956000Y-101854000D01*
X153924000Y-101854000D01*
X153924000Y-101346000D01*
X155448000Y-101346000D01*
X155448000Y-101092000D01*
X153924000Y-101092000D01*
X153924000Y-100584000D01*
X154432000Y-100076000D01*
X155956000Y-100076000D01*
X155956000Y-100584000D01*
G37*
X155956000Y-100584000D02*
X154686000Y-100584000D01*
X154432000Y-100838000D01*
X155956000Y-100838000D01*
X155956000Y-101854000D01*
X153924000Y-101854000D01*
X153924000Y-101346000D01*
X155448000Y-101346000D01*
X155448000Y-101092000D01*
X153924000Y-101092000D01*
X153924000Y-100584000D01*
X154432000Y-100076000D01*
X155956000Y-100076000D01*
X155956000Y-100584000D01*
G36*
X153670000Y-101854000D02*
G01*
X152146000Y-101854000D01*
X151638000Y-101346000D01*
X151638000Y-100584000D01*
X152146000Y-100584000D01*
X152146000Y-101092000D01*
X152400000Y-101346000D01*
X153162000Y-101346000D01*
X153162000Y-100584000D01*
X152146000Y-100584000D01*
X151638000Y-100584000D01*
X151638000Y-100076000D01*
X153670000Y-100076000D01*
X153670000Y-101854000D01*
G37*
X153670000Y-101854000D02*
X152146000Y-101854000D01*
X151638000Y-101346000D01*
X151638000Y-100584000D01*
X152146000Y-100584000D01*
X152146000Y-101092000D01*
X152400000Y-101346000D01*
X153162000Y-101346000D01*
X153162000Y-100584000D01*
X152146000Y-100584000D01*
X151638000Y-100584000D01*
X151638000Y-100076000D01*
X153670000Y-100076000D01*
X153670000Y-101854000D01*
G36*
X150368000Y-100330000D02*
G01*
X150622000Y-100076000D01*
X151384000Y-100076000D01*
X151384000Y-100584000D01*
X150622000Y-100584000D01*
X150368000Y-100838000D01*
X150368000Y-101854000D01*
X149860000Y-101854000D01*
X149860000Y-100076000D01*
X150368000Y-100076000D01*
X150368000Y-100330000D01*
G37*
X150368000Y-100330000D02*
X150622000Y-100076000D01*
X151384000Y-100076000D01*
X151384000Y-100584000D01*
X150622000Y-100584000D01*
X150368000Y-100838000D01*
X150368000Y-101854000D01*
X149860000Y-101854000D01*
X149860000Y-100076000D01*
X150368000Y-100076000D01*
X150368000Y-100330000D01*
G36*
X149606000Y-100076000D02*
G01*
X148844000Y-100076000D01*
X148590000Y-100330000D01*
X148590000Y-100584000D01*
X149352000Y-100584000D01*
X148844000Y-101092000D01*
X148590000Y-101092000D01*
X148590000Y-102362000D01*
X148082000Y-101854000D01*
X148082000Y-101092000D01*
X147574000Y-101092000D01*
X147574000Y-100584000D01*
X148082000Y-100584000D01*
X148082000Y-100076000D01*
X148590000Y-99568000D01*
X149606000Y-99568000D01*
X149606000Y-100076000D01*
G37*
X149606000Y-100076000D02*
X148844000Y-100076000D01*
X148590000Y-100330000D01*
X148590000Y-100584000D01*
X149352000Y-100584000D01*
X148844000Y-101092000D01*
X148590000Y-101092000D01*
X148590000Y-102362000D01*
X148082000Y-101854000D01*
X148082000Y-101092000D01*
X147574000Y-101092000D01*
X147574000Y-100584000D01*
X148082000Y-100584000D01*
X148082000Y-100076000D01*
X148590000Y-99568000D01*
X149606000Y-99568000D01*
X149606000Y-100076000D01*
G36*
X146812000Y-99822000D02*
G01*
X146304000Y-99822000D01*
X146812000Y-99314000D01*
X146812000Y-99822000D01*
G37*
X146812000Y-99822000D02*
X146304000Y-99822000D01*
X146812000Y-99314000D01*
X146812000Y-99822000D01*
G36*
X146812000Y-101346000D02*
G01*
X147320000Y-101346000D01*
X147320000Y-101854000D01*
X146304000Y-101854000D01*
X146304000Y-100584000D01*
X145796000Y-100076000D01*
X146812000Y-100076000D01*
X146812000Y-101346000D01*
G37*
X146812000Y-101346000D02*
X147320000Y-101346000D01*
X147320000Y-101854000D01*
X146304000Y-101854000D01*
X146304000Y-100584000D01*
X145796000Y-100076000D01*
X146812000Y-100076000D01*
X146812000Y-101346000D01*
G36*
X144018000Y-99822000D02*
G01*
X144018000Y-100076000D01*
X145034000Y-100076000D01*
X145542000Y-100584000D01*
X145542000Y-101854000D01*
X143510000Y-101854000D01*
X143510000Y-100584000D01*
X144018000Y-100584000D01*
X144018000Y-101346000D01*
X145034000Y-101346000D01*
X145034000Y-100838000D01*
X144780000Y-100584000D01*
X144018000Y-100584000D01*
X143510000Y-100584000D01*
X143510000Y-99314000D01*
X144018000Y-99822000D01*
G37*
X144018000Y-99822000D02*
X144018000Y-100076000D01*
X145034000Y-100076000D01*
X145542000Y-100584000D01*
X145542000Y-101854000D01*
X143510000Y-101854000D01*
X143510000Y-100584000D01*
X144018000Y-100584000D01*
X144018000Y-101346000D01*
X145034000Y-101346000D01*
X145034000Y-100838000D01*
X144780000Y-100584000D01*
X144018000Y-100584000D01*
X143510000Y-100584000D01*
X143510000Y-99314000D01*
X144018000Y-99822000D01*
G36*
X124841000Y-128270000D02*
G01*
X124841000Y-129032000D01*
X123571000Y-129032000D01*
X123571000Y-129286000D01*
X124841000Y-129286000D01*
X124841000Y-129794000D01*
X122809000Y-129794000D01*
X122809000Y-128524000D01*
X124333000Y-128524000D01*
X124079000Y-128270000D01*
X122809000Y-128270000D01*
X122809000Y-127762000D01*
X124333000Y-127762000D01*
X124841000Y-128270000D01*
G37*
X124841000Y-128270000D02*
X124841000Y-129032000D01*
X123571000Y-129032000D01*
X123571000Y-129286000D01*
X124841000Y-129286000D01*
X124841000Y-129794000D01*
X122809000Y-129794000D01*
X122809000Y-128524000D01*
X124333000Y-128524000D01*
X124079000Y-128270000D01*
X122809000Y-128270000D01*
X122809000Y-127762000D01*
X124333000Y-127762000D01*
X124841000Y-128270000D01*
G36*
X122555000Y-129794000D02*
G01*
X121031000Y-129794000D01*
X120523000Y-129286000D01*
X120523000Y-128270000D01*
X121031000Y-128270000D01*
X121031000Y-129032000D01*
X121285000Y-129286000D01*
X122047000Y-129286000D01*
X122047000Y-128270000D01*
X121031000Y-128270000D01*
X120523000Y-128270000D01*
X120523000Y-127762000D01*
X122555000Y-127762000D01*
X122555000Y-129794000D01*
G37*
X122555000Y-129794000D02*
X121031000Y-129794000D01*
X120523000Y-129286000D01*
X120523000Y-128270000D01*
X121031000Y-128270000D01*
X121031000Y-129032000D01*
X121285000Y-129286000D01*
X122047000Y-129286000D01*
X122047000Y-128270000D01*
X121031000Y-128270000D01*
X120523000Y-128270000D01*
X120523000Y-127762000D01*
X122555000Y-127762000D01*
X122555000Y-129794000D01*
G36*
X120269000Y-128270000D02*
G01*
X118745000Y-128270000D01*
X118745000Y-128524000D01*
X120269000Y-128524000D01*
X120269000Y-129286000D01*
X119761000Y-129794000D01*
X118237000Y-129794000D01*
X118237000Y-129286000D01*
X119507000Y-129286000D01*
X119761000Y-129032000D01*
X118237000Y-129032000D01*
X118237000Y-127762000D01*
X120269000Y-127762000D01*
X120269000Y-128270000D01*
G37*
X120269000Y-128270000D02*
X118745000Y-128270000D01*
X118745000Y-128524000D01*
X120269000Y-128524000D01*
X120269000Y-129286000D01*
X119761000Y-129794000D01*
X118237000Y-129794000D01*
X118237000Y-129286000D01*
X119507000Y-129286000D01*
X119761000Y-129032000D01*
X118237000Y-129032000D01*
X118237000Y-127762000D01*
X120269000Y-127762000D01*
X120269000Y-128270000D01*
G36*
X117983000Y-128270000D02*
G01*
X116459000Y-128270000D01*
X116459000Y-128524000D01*
X117983000Y-128524000D01*
X117983000Y-129286000D01*
X117475000Y-129794000D01*
X115951000Y-129794000D01*
X115951000Y-129032000D01*
X116459000Y-129032000D01*
X116459000Y-129286000D01*
X117221000Y-129286000D01*
X117475000Y-129032000D01*
X116459000Y-129032000D01*
X115951000Y-129032000D01*
X115951000Y-127762000D01*
X117983000Y-127762000D01*
X117983000Y-128270000D01*
G37*
X117983000Y-128270000D02*
X116459000Y-128270000D01*
X116459000Y-128524000D01*
X117983000Y-128524000D01*
X117983000Y-129286000D01*
X117475000Y-129794000D01*
X115951000Y-129794000D01*
X115951000Y-129032000D01*
X116459000Y-129032000D01*
X116459000Y-129286000D01*
X117221000Y-129286000D01*
X117475000Y-129032000D01*
X116459000Y-129032000D01*
X115951000Y-129032000D01*
X115951000Y-127762000D01*
X117983000Y-127762000D01*
X117983000Y-128270000D01*
G36*
X115697000Y-129794000D02*
G01*
X115189000Y-129794000D01*
X115189000Y-128524000D01*
X114427000Y-128524000D01*
X114173000Y-128778000D01*
X114173000Y-129286000D01*
X114935000Y-129286000D01*
X114935000Y-129794000D01*
X113665000Y-129794000D01*
X113665000Y-128524000D01*
X114173000Y-128016000D01*
X115697000Y-128016000D01*
X115697000Y-129794000D01*
G37*
X115697000Y-129794000D02*
X115189000Y-129794000D01*
X115189000Y-128524000D01*
X114427000Y-128524000D01*
X114173000Y-128778000D01*
X114173000Y-129286000D01*
X114935000Y-129286000D01*
X114935000Y-129794000D01*
X113665000Y-129794000D01*
X113665000Y-128524000D01*
X114173000Y-128016000D01*
X115697000Y-128016000D01*
X115697000Y-129794000D01*
G36*
X113411000Y-129794000D02*
G01*
X111379000Y-129794000D01*
X111379000Y-128778000D01*
X111887000Y-128778000D01*
X111887000Y-129286000D01*
X112903000Y-129286000D01*
X112903000Y-128524000D01*
X112141000Y-128524000D01*
X111887000Y-128778000D01*
X111379000Y-128778000D01*
X111379000Y-128524000D01*
X111887000Y-128016000D01*
X112903000Y-128016000D01*
X112903000Y-127762000D01*
X113411000Y-127254000D01*
X113411000Y-129794000D01*
G37*
X113411000Y-129794000D02*
X111379000Y-129794000D01*
X111379000Y-128778000D01*
X111887000Y-128778000D01*
X111887000Y-129286000D01*
X112903000Y-129286000D01*
X112903000Y-128524000D01*
X112141000Y-128524000D01*
X111887000Y-128778000D01*
X111379000Y-128778000D01*
X111379000Y-128524000D01*
X111887000Y-128016000D01*
X112903000Y-128016000D01*
X112903000Y-127762000D01*
X113411000Y-127254000D01*
X113411000Y-129794000D01*
G36*
X109601000Y-130048000D02*
G01*
X109093000Y-130556000D01*
X109093000Y-128524000D01*
X109601000Y-128524000D01*
X109601000Y-129286000D01*
X110363000Y-129286000D01*
X110617000Y-129032000D01*
X110617000Y-128524000D01*
X109601000Y-128524000D01*
X109093000Y-128524000D01*
X109093000Y-128016000D01*
X111125000Y-128016000D01*
X111125000Y-129286000D01*
X110617000Y-129794000D01*
X109601000Y-129794000D01*
X109601000Y-130048000D01*
G37*
X109601000Y-130048000D02*
X109093000Y-130556000D01*
X109093000Y-128524000D01*
X109601000Y-128524000D01*
X109601000Y-129286000D01*
X110363000Y-129286000D01*
X110617000Y-129032000D01*
X110617000Y-128524000D01*
X109601000Y-128524000D01*
X109093000Y-128524000D01*
X109093000Y-128016000D01*
X111125000Y-128016000D01*
X111125000Y-129286000D01*
X110617000Y-129794000D01*
X109601000Y-129794000D01*
X109601000Y-130048000D01*
D10*
X115586190Y-87796666D02*
X116062380Y-87796666D01*
X115490952Y-88082380D02*
X115824285Y-87082380D01*
X116157619Y-88082380D01*
X117062380Y-88082380D02*
X116729047Y-87606190D01*
X116490952Y-88082380D02*
X116490952Y-87082380D01*
X116871904Y-87082380D01*
X116967142Y-87130000D01*
X117014761Y-87177619D01*
X117062380Y-87272857D01*
X117062380Y-87415714D01*
X117014761Y-87510952D01*
X116967142Y-87558571D01*
X116871904Y-87606190D01*
X116490952Y-87606190D01*
X117490952Y-88082380D02*
X117490952Y-87082380D01*
X117824285Y-87796666D01*
X118157619Y-87082380D01*
X118157619Y-88082380D01*
X118586190Y-88034761D02*
X118729047Y-88082380D01*
X118967142Y-88082380D01*
X119062380Y-88034761D01*
X119110000Y-87987142D01*
X119157619Y-87891904D01*
X119157619Y-87796666D01*
X119110000Y-87701428D01*
X119062380Y-87653809D01*
X118967142Y-87606190D01*
X118776666Y-87558571D01*
X118681428Y-87510952D01*
X118633809Y-87463333D01*
X118586190Y-87368095D01*
X118586190Y-87272857D01*
X118633809Y-87177619D01*
X118681428Y-87130000D01*
X118776666Y-87082380D01*
X119014761Y-87082380D01*
X119157619Y-87130000D01*
X119586190Y-88082380D02*
X119586190Y-87082380D01*
X120062380Y-88082380D02*
X120062380Y-87082380D01*
X120300476Y-87082380D01*
X120443333Y-87130000D01*
X120538571Y-87225238D01*
X120586190Y-87320476D01*
X120633809Y-87510952D01*
X120633809Y-87653809D01*
X120586190Y-87844285D01*
X120538571Y-87939523D01*
X120443333Y-88034761D01*
X120300476Y-88082380D01*
X120062380Y-88082380D01*
X174228571Y-41489380D02*
X174038095Y-41489380D01*
X173942857Y-41537000D01*
X173895238Y-41584619D01*
X173800000Y-41727476D01*
X173752380Y-41917952D01*
X173752380Y-42298904D01*
X173800000Y-42394142D01*
X173847619Y-42441761D01*
X173942857Y-42489380D01*
X174133333Y-42489380D01*
X174228571Y-42441761D01*
X174276190Y-42394142D01*
X174323809Y-42298904D01*
X174323809Y-42060809D01*
X174276190Y-41965571D01*
X174228571Y-41917952D01*
X174133333Y-41870333D01*
X173942857Y-41870333D01*
X173847619Y-41917952D01*
X173800000Y-41965571D01*
X173752380Y-42060809D01*
X175228571Y-41489380D02*
X174752380Y-41489380D01*
X174704761Y-41965571D01*
X174752380Y-41917952D01*
X174847619Y-41870333D01*
X175085714Y-41870333D01*
X175180952Y-41917952D01*
X175228571Y-41965571D01*
X175276190Y-42060809D01*
X175276190Y-42298904D01*
X175228571Y-42394142D01*
X175180952Y-42441761D01*
X175085714Y-42489380D01*
X174847619Y-42489380D01*
X174752380Y-42441761D01*
X174704761Y-42394142D01*
X175657142Y-41584619D02*
X175704761Y-41537000D01*
X175800000Y-41489380D01*
X176038095Y-41489380D01*
X176133333Y-41537000D01*
X176180952Y-41584619D01*
X176228571Y-41679857D01*
X176228571Y-41775095D01*
X176180952Y-41917952D01*
X175609523Y-42489380D01*
X176228571Y-42489380D01*
X176609523Y-41584619D02*
X176657142Y-41537000D01*
X176752380Y-41489380D01*
X176990476Y-41489380D01*
X177085714Y-41537000D01*
X177133333Y-41584619D01*
X177180952Y-41679857D01*
X177180952Y-41775095D01*
X177133333Y-41917952D01*
X176561904Y-42489380D01*
X177180952Y-42489380D01*
X178228571Y-41489380D02*
X178561904Y-42489380D01*
X178895238Y-41489380D01*
X179228571Y-42489380D02*
X179228571Y-41489380D01*
X179657142Y-42203666D02*
X180133333Y-42203666D01*
X179561904Y-42489380D02*
X179895238Y-41489380D01*
X180228571Y-42489380D01*
X181847619Y-42489380D02*
X181276190Y-42489380D01*
X181561904Y-42489380D02*
X181561904Y-41489380D01*
X181466666Y-41632238D01*
X181371428Y-41727476D01*
X181276190Y-41775095D01*
X155178571Y-41489380D02*
X154988095Y-41489380D01*
X154892857Y-41537000D01*
X154845238Y-41584619D01*
X154750000Y-41727476D01*
X154702380Y-41917952D01*
X154702380Y-42298904D01*
X154750000Y-42394142D01*
X154797619Y-42441761D01*
X154892857Y-42489380D01*
X155083333Y-42489380D01*
X155178571Y-42441761D01*
X155226190Y-42394142D01*
X155273809Y-42298904D01*
X155273809Y-42060809D01*
X155226190Y-41965571D01*
X155178571Y-41917952D01*
X155083333Y-41870333D01*
X154892857Y-41870333D01*
X154797619Y-41917952D01*
X154750000Y-41965571D01*
X154702380Y-42060809D01*
X156178571Y-41489380D02*
X155702380Y-41489380D01*
X155654761Y-41965571D01*
X155702380Y-41917952D01*
X155797619Y-41870333D01*
X156035714Y-41870333D01*
X156130952Y-41917952D01*
X156178571Y-41965571D01*
X156226190Y-42060809D01*
X156226190Y-42298904D01*
X156178571Y-42394142D01*
X156130952Y-42441761D01*
X156035714Y-42489380D01*
X155797619Y-42489380D01*
X155702380Y-42441761D01*
X155654761Y-42394142D01*
X156607142Y-41584619D02*
X156654761Y-41537000D01*
X156750000Y-41489380D01*
X156988095Y-41489380D01*
X157083333Y-41537000D01*
X157130952Y-41584619D01*
X157178571Y-41679857D01*
X157178571Y-41775095D01*
X157130952Y-41917952D01*
X156559523Y-42489380D01*
X157178571Y-42489380D01*
X157559523Y-41584619D02*
X157607142Y-41537000D01*
X157702380Y-41489380D01*
X157940476Y-41489380D01*
X158035714Y-41537000D01*
X158083333Y-41584619D01*
X158130952Y-41679857D01*
X158130952Y-41775095D01*
X158083333Y-41917952D01*
X157511904Y-42489380D01*
X158130952Y-42489380D01*
X159178571Y-41489380D02*
X159511904Y-42489380D01*
X159845238Y-41489380D01*
X160178571Y-42489380D02*
X160178571Y-41489380D01*
X160607142Y-42203666D02*
X161083333Y-42203666D01*
X160511904Y-42489380D02*
X160845238Y-41489380D01*
X161178571Y-42489380D01*
X162226190Y-41584619D02*
X162273809Y-41537000D01*
X162369047Y-41489380D01*
X162607142Y-41489380D01*
X162702380Y-41537000D01*
X162750000Y-41584619D01*
X162797619Y-41679857D01*
X162797619Y-41775095D01*
X162750000Y-41917952D01*
X162178571Y-42489380D01*
X162797619Y-42489380D01*
X136557142Y-41489380D02*
X136366666Y-41489380D01*
X136271428Y-41537000D01*
X136223809Y-41584619D01*
X136128571Y-41727476D01*
X136080952Y-41917952D01*
X136080952Y-42298904D01*
X136128571Y-42394142D01*
X136176190Y-42441761D01*
X136271428Y-42489380D01*
X136461904Y-42489380D01*
X136557142Y-42441761D01*
X136604761Y-42394142D01*
X136652380Y-42298904D01*
X136652380Y-42060809D01*
X136604761Y-41965571D01*
X136557142Y-41917952D01*
X136461904Y-41870333D01*
X136271428Y-41870333D01*
X136176190Y-41917952D01*
X136128571Y-41965571D01*
X136080952Y-42060809D01*
X137557142Y-41489380D02*
X137080952Y-41489380D01*
X137033333Y-41965571D01*
X137080952Y-41917952D01*
X137176190Y-41870333D01*
X137414285Y-41870333D01*
X137509523Y-41917952D01*
X137557142Y-41965571D01*
X137604761Y-42060809D01*
X137604761Y-42298904D01*
X137557142Y-42394142D01*
X137509523Y-42441761D01*
X137414285Y-42489380D01*
X137176190Y-42489380D01*
X137080952Y-42441761D01*
X137033333Y-42394142D01*
X138223809Y-41489380D02*
X138319047Y-41489380D01*
X138414285Y-41537000D01*
X138461904Y-41584619D01*
X138509523Y-41679857D01*
X138557142Y-41870333D01*
X138557142Y-42108428D01*
X138509523Y-42298904D01*
X138461904Y-42394142D01*
X138414285Y-42441761D01*
X138319047Y-42489380D01*
X138223809Y-42489380D01*
X138128571Y-42441761D01*
X138080952Y-42394142D01*
X138033333Y-42298904D01*
X137985714Y-42108428D01*
X137985714Y-41870333D01*
X138033333Y-41679857D01*
X138080952Y-41584619D01*
X138128571Y-41537000D01*
X138223809Y-41489380D01*
X138938095Y-41584619D02*
X138985714Y-41537000D01*
X139080952Y-41489380D01*
X139319047Y-41489380D01*
X139414285Y-41537000D01*
X139461904Y-41584619D01*
X139509523Y-41679857D01*
X139509523Y-41775095D01*
X139461904Y-41917952D01*
X138890476Y-42489380D01*
X139509523Y-42489380D01*
X141271428Y-42394142D02*
X141223809Y-42441761D01*
X141080952Y-42489380D01*
X140985714Y-42489380D01*
X140842857Y-42441761D01*
X140747619Y-42346523D01*
X140700000Y-42251285D01*
X140652380Y-42060809D01*
X140652380Y-41917952D01*
X140700000Y-41727476D01*
X140747619Y-41632238D01*
X140842857Y-41537000D01*
X140985714Y-41489380D01*
X141080952Y-41489380D01*
X141223809Y-41537000D01*
X141271428Y-41584619D01*
X141700000Y-42489380D02*
X141700000Y-41489380D01*
X142080952Y-41489380D01*
X142176190Y-41537000D01*
X142223809Y-41584619D01*
X142271428Y-41679857D01*
X142271428Y-41822714D01*
X142223809Y-41917952D01*
X142176190Y-41965571D01*
X142080952Y-42013190D01*
X141700000Y-42013190D01*
X142700000Y-41489380D02*
X142700000Y-42298904D01*
X142747619Y-42394142D01*
X142795238Y-42441761D01*
X142890476Y-42489380D01*
X143080952Y-42489380D01*
X143176190Y-42441761D01*
X143223809Y-42394142D01*
X143271428Y-42298904D01*
X143271428Y-41489380D01*
X116673809Y-41489380D02*
X116197619Y-41489380D01*
X116150000Y-41965571D01*
X116197619Y-41917952D01*
X116292857Y-41870333D01*
X116530952Y-41870333D01*
X116626190Y-41917952D01*
X116673809Y-41965571D01*
X116721428Y-42060809D01*
X116721428Y-42298904D01*
X116673809Y-42394142D01*
X116626190Y-42441761D01*
X116530952Y-42489380D01*
X116292857Y-42489380D01*
X116197619Y-42441761D01*
X116150000Y-42394142D01*
X117673809Y-42489380D02*
X117102380Y-42489380D01*
X117388095Y-42489380D02*
X117388095Y-41489380D01*
X117292857Y-41632238D01*
X117197619Y-41727476D01*
X117102380Y-41775095D01*
X118054761Y-41584619D02*
X118102380Y-41537000D01*
X118197619Y-41489380D01*
X118435714Y-41489380D01*
X118530952Y-41537000D01*
X118578571Y-41584619D01*
X118626190Y-41679857D01*
X118626190Y-41775095D01*
X118578571Y-41917952D01*
X118007142Y-42489380D01*
X118626190Y-42489380D01*
X119816666Y-42489380D02*
X119816666Y-41489380D01*
X120388095Y-42489380D02*
X119959523Y-41917952D01*
X120388095Y-41489380D02*
X119816666Y-42060809D01*
X121150000Y-41965571D02*
X121292857Y-42013190D01*
X121340476Y-42060809D01*
X121388095Y-42156047D01*
X121388095Y-42298904D01*
X121340476Y-42394142D01*
X121292857Y-42441761D01*
X121197619Y-42489380D01*
X120816666Y-42489380D01*
X120816666Y-41489380D01*
X121150000Y-41489380D01*
X121245238Y-41537000D01*
X121292857Y-41584619D01*
X121340476Y-41679857D01*
X121340476Y-41775095D01*
X121292857Y-41870333D01*
X121245238Y-41917952D01*
X121150000Y-41965571D01*
X120816666Y-41965571D01*
X123150000Y-42489380D02*
X122816666Y-42013190D01*
X122578571Y-42489380D02*
X122578571Y-41489380D01*
X122959523Y-41489380D01*
X123054761Y-41537000D01*
X123102380Y-41584619D01*
X123150000Y-41679857D01*
X123150000Y-41822714D01*
X123102380Y-41917952D01*
X123054761Y-41965571D01*
X122959523Y-42013190D01*
X122578571Y-42013190D01*
X123530952Y-42203666D02*
X124007142Y-42203666D01*
X123435714Y-42489380D02*
X123769047Y-41489380D01*
X124102380Y-42489380D01*
X124435714Y-42489380D02*
X124435714Y-41489380D01*
X124769047Y-42203666D01*
X125102380Y-41489380D01*
X125102380Y-42489380D01*
D13*
%TO.C,G\u002A\u002A\u002A*%
G36*
X127127045Y-127070709D02*
G01*
X127170571Y-127073058D01*
X127205788Y-127078058D01*
X127239117Y-127086588D01*
X127273208Y-127098157D01*
X127361360Y-127138485D01*
X127436320Y-127191809D01*
X127500984Y-127260677D01*
X127558250Y-127347635D01*
X127559520Y-127349897D01*
X127605490Y-127446990D01*
X127638102Y-127551310D01*
X127658108Y-127666219D01*
X127666258Y-127795077D01*
X127666532Y-127829076D01*
X127659323Y-128029682D01*
X127637920Y-128228607D01*
X127601710Y-128428711D01*
X127550083Y-128632857D01*
X127482426Y-128843905D01*
X127407079Y-129042720D01*
X127362428Y-129149051D01*
X127313224Y-129259036D01*
X127261429Y-129368727D01*
X127209002Y-129474178D01*
X127157906Y-129571441D01*
X127110100Y-129656570D01*
X127068632Y-129723965D01*
X127057901Y-129742945D01*
X127056365Y-129751612D01*
X127056720Y-129751666D01*
X127067082Y-129745427D01*
X127089992Y-129728614D01*
X127121640Y-129704087D01*
X127145250Y-129685236D01*
X127288054Y-129575207D01*
X127429355Y-129476582D01*
X127566953Y-129390679D01*
X127698650Y-129318813D01*
X127822245Y-129262299D01*
X127901029Y-129233149D01*
X128028205Y-129194259D01*
X128139947Y-129166834D01*
X128238424Y-129150583D01*
X128325801Y-129145215D01*
X128404249Y-129150438D01*
X128450992Y-129159257D01*
X128516847Y-129183546D01*
X128583520Y-129223201D01*
X128647739Y-129274725D01*
X128706232Y-129334619D01*
X128755728Y-129399386D01*
X128792956Y-129465527D01*
X128814645Y-129529544D01*
X128818056Y-129551779D01*
X128814394Y-129616864D01*
X128792521Y-129676881D01*
X128755300Y-129728732D01*
X128705593Y-129769322D01*
X128646265Y-129795553D01*
X128584514Y-129804350D01*
X128522088Y-129797189D01*
X128466919Y-129774018D01*
X128416513Y-129733231D01*
X128368378Y-129673218D01*
X128358814Y-129658782D01*
X128335251Y-129627243D01*
X128311085Y-129602756D01*
X128295457Y-129592536D01*
X128262469Y-129587219D01*
X128213231Y-129588796D01*
X128151236Y-129596531D01*
X128079977Y-129609686D01*
X128002946Y-129627523D01*
X127923637Y-129649304D01*
X127845541Y-129674293D01*
X127772152Y-129701752D01*
X127765747Y-129704381D01*
X127723243Y-129723016D01*
X127664665Y-129750240D01*
X127592647Y-129784740D01*
X127509823Y-129825206D01*
X127418828Y-129870325D01*
X127322296Y-129918787D01*
X127222861Y-129969280D01*
X127123158Y-130020492D01*
X127025821Y-130071113D01*
X126968250Y-130101396D01*
X126891850Y-130141533D01*
X126831624Y-130172441D01*
X126785194Y-130195084D01*
X126750181Y-130210429D01*
X126724211Y-130219438D01*
X126704904Y-130223078D01*
X126689883Y-130222313D01*
X126678707Y-130218918D01*
X126653657Y-130198590D01*
X126639474Y-130167106D01*
X126640127Y-130133445D01*
X126648588Y-130116388D01*
X126667298Y-130085368D01*
X126694173Y-130043626D01*
X126727127Y-129994399D01*
X126763896Y-129941185D01*
X126884799Y-129762216D01*
X126990136Y-129591521D01*
X127081810Y-129425423D01*
X127161725Y-129260244D01*
X127231784Y-129092306D01*
X127293891Y-128917933D01*
X127294662Y-128915583D01*
X127335413Y-128773850D01*
X127367491Y-128625474D01*
X127390884Y-128473266D01*
X127405577Y-128320038D01*
X127411558Y-128168601D01*
X127408813Y-128021765D01*
X127397330Y-127882343D01*
X127377095Y-127753145D01*
X127348096Y-127636982D01*
X127310318Y-127536666D01*
X127301186Y-127517711D01*
X127265165Y-127455972D01*
X127226729Y-127412760D01*
X127181750Y-127385507D01*
X127126099Y-127371644D01*
X127061481Y-127368512D01*
X126988944Y-127379506D01*
X126916988Y-127410994D01*
X126845066Y-127463252D01*
X126815320Y-127490881D01*
X126741208Y-127573009D01*
X126678821Y-127660418D01*
X126629821Y-127749864D01*
X126595873Y-127838102D01*
X126578639Y-127921888D01*
X126576781Y-127956236D01*
X126577757Y-127991079D01*
X126583084Y-128015616D01*
X126596124Y-128038063D01*
X126620237Y-128066635D01*
X126623384Y-128070142D01*
X126661057Y-128121781D01*
X126678354Y-128170949D01*
X126675684Y-128219174D01*
X126668692Y-128239552D01*
X126639111Y-128287519D01*
X126598254Y-128317754D01*
X126547014Y-128330906D01*
X126506956Y-128331203D01*
X126471266Y-128321991D01*
X126434079Y-128300856D01*
X126391121Y-128266760D01*
X126339468Y-128208646D01*
X126302433Y-128137489D01*
X126280007Y-128055546D01*
X126272183Y-127965077D01*
X126278955Y-127868340D01*
X126300314Y-127767594D01*
X126336254Y-127665098D01*
X126386767Y-127563110D01*
X126393446Y-127551624D01*
X126478489Y-127421523D01*
X126568124Y-127311665D01*
X126662919Y-127221509D01*
X126763440Y-127150516D01*
X126870255Y-127098148D01*
X126870920Y-127097888D01*
X126904688Y-127085632D01*
X126935222Y-127077583D01*
X126968608Y-127072884D01*
X127010928Y-127070684D01*
X127068269Y-127070129D01*
X127068791Y-127070129D01*
X127127045Y-127070709D01*
G37*
X127127045Y-127070709D02*
X127170571Y-127073058D01*
X127205788Y-127078058D01*
X127239117Y-127086588D01*
X127273208Y-127098157D01*
X127361360Y-127138485D01*
X127436320Y-127191809D01*
X127500984Y-127260677D01*
X127558250Y-127347635D01*
X127559520Y-127349897D01*
X127605490Y-127446990D01*
X127638102Y-127551310D01*
X127658108Y-127666219D01*
X127666258Y-127795077D01*
X127666532Y-127829076D01*
X127659323Y-128029682D01*
X127637920Y-128228607D01*
X127601710Y-128428711D01*
X127550083Y-128632857D01*
X127482426Y-128843905D01*
X127407079Y-129042720D01*
X127362428Y-129149051D01*
X127313224Y-129259036D01*
X127261429Y-129368727D01*
X127209002Y-129474178D01*
X127157906Y-129571441D01*
X127110100Y-129656570D01*
X127068632Y-129723965D01*
X127057901Y-129742945D01*
X127056365Y-129751612D01*
X127056720Y-129751666D01*
X127067082Y-129745427D01*
X127089992Y-129728614D01*
X127121640Y-129704087D01*
X127145250Y-129685236D01*
X127288054Y-129575207D01*
X127429355Y-129476582D01*
X127566953Y-129390679D01*
X127698650Y-129318813D01*
X127822245Y-129262299D01*
X127901029Y-129233149D01*
X128028205Y-129194259D01*
X128139947Y-129166834D01*
X128238424Y-129150583D01*
X128325801Y-129145215D01*
X128404249Y-129150438D01*
X128450992Y-129159257D01*
X128516847Y-129183546D01*
X128583520Y-129223201D01*
X128647739Y-129274725D01*
X128706232Y-129334619D01*
X128755728Y-129399386D01*
X128792956Y-129465527D01*
X128814645Y-129529544D01*
X128818056Y-129551779D01*
X128814394Y-129616864D01*
X128792521Y-129676881D01*
X128755300Y-129728732D01*
X128705593Y-129769322D01*
X128646265Y-129795553D01*
X128584514Y-129804350D01*
X128522088Y-129797189D01*
X128466919Y-129774018D01*
X128416513Y-129733231D01*
X128368378Y-129673218D01*
X128358814Y-129658782D01*
X128335251Y-129627243D01*
X128311085Y-129602756D01*
X128295457Y-129592536D01*
X128262469Y-129587219D01*
X128213231Y-129588796D01*
X128151236Y-129596531D01*
X128079977Y-129609686D01*
X128002946Y-129627523D01*
X127923637Y-129649304D01*
X127845541Y-129674293D01*
X127772152Y-129701752D01*
X127765747Y-129704381D01*
X127723243Y-129723016D01*
X127664665Y-129750240D01*
X127592647Y-129784740D01*
X127509823Y-129825206D01*
X127418828Y-129870325D01*
X127322296Y-129918787D01*
X127222861Y-129969280D01*
X127123158Y-130020492D01*
X127025821Y-130071113D01*
X126968250Y-130101396D01*
X126891850Y-130141533D01*
X126831624Y-130172441D01*
X126785194Y-130195084D01*
X126750181Y-130210429D01*
X126724211Y-130219438D01*
X126704904Y-130223078D01*
X126689883Y-130222313D01*
X126678707Y-130218918D01*
X126653657Y-130198590D01*
X126639474Y-130167106D01*
X126640127Y-130133445D01*
X126648588Y-130116388D01*
X126667298Y-130085368D01*
X126694173Y-130043626D01*
X126727127Y-129994399D01*
X126763896Y-129941185D01*
X126884799Y-129762216D01*
X126990136Y-129591521D01*
X127081810Y-129425423D01*
X127161725Y-129260244D01*
X127231784Y-129092306D01*
X127293891Y-128917933D01*
X127294662Y-128915583D01*
X127335413Y-128773850D01*
X127367491Y-128625474D01*
X127390884Y-128473266D01*
X127405577Y-128320038D01*
X127411558Y-128168601D01*
X127408813Y-128021765D01*
X127397330Y-127882343D01*
X127377095Y-127753145D01*
X127348096Y-127636982D01*
X127310318Y-127536666D01*
X127301186Y-127517711D01*
X127265165Y-127455972D01*
X127226729Y-127412760D01*
X127181750Y-127385507D01*
X127126099Y-127371644D01*
X127061481Y-127368512D01*
X126988944Y-127379506D01*
X126916988Y-127410994D01*
X126845066Y-127463252D01*
X126815320Y-127490881D01*
X126741208Y-127573009D01*
X126678821Y-127660418D01*
X126629821Y-127749864D01*
X126595873Y-127838102D01*
X126578639Y-127921888D01*
X126576781Y-127956236D01*
X126577757Y-127991079D01*
X126583084Y-128015616D01*
X126596124Y-128038063D01*
X126620237Y-128066635D01*
X126623384Y-128070142D01*
X126661057Y-128121781D01*
X126678354Y-128170949D01*
X126675684Y-128219174D01*
X126668692Y-128239552D01*
X126639111Y-128287519D01*
X126598254Y-128317754D01*
X126547014Y-128330906D01*
X126506956Y-128331203D01*
X126471266Y-128321991D01*
X126434079Y-128300856D01*
X126391121Y-128266760D01*
X126339468Y-128208646D01*
X126302433Y-128137489D01*
X126280007Y-128055546D01*
X126272183Y-127965077D01*
X126278955Y-127868340D01*
X126300314Y-127767594D01*
X126336254Y-127665098D01*
X126386767Y-127563110D01*
X126393446Y-127551624D01*
X126478489Y-127421523D01*
X126568124Y-127311665D01*
X126662919Y-127221509D01*
X126763440Y-127150516D01*
X126870255Y-127098148D01*
X126870920Y-127097888D01*
X126904688Y-127085632D01*
X126935222Y-127077583D01*
X126968608Y-127072884D01*
X127010928Y-127070684D01*
X127068269Y-127070129D01*
X127068791Y-127070129D01*
X127127045Y-127070709D01*
G36*
X126097130Y-128630615D02*
G01*
X126144718Y-128646730D01*
X126182599Y-128676417D01*
X126191228Y-128687858D01*
X126201852Y-128707979D01*
X126208919Y-128732338D01*
X126212429Y-128763726D01*
X126212385Y-128804934D01*
X126208789Y-128858752D01*
X126201642Y-128927971D01*
X126191454Y-129011409D01*
X126167261Y-129206481D01*
X126146862Y-129383140D01*
X126130026Y-129543751D01*
X126116523Y-129690684D01*
X126106121Y-129826303D01*
X126098591Y-129952978D01*
X126097456Y-129976448D01*
X126090836Y-130031551D01*
X126074788Y-130072996D01*
X126046071Y-130107367D01*
X126024242Y-130125238D01*
X125986754Y-130142633D01*
X125940110Y-130150012D01*
X125894273Y-130146442D01*
X125872875Y-130139409D01*
X125856916Y-130130950D01*
X125841120Y-130119629D01*
X125823785Y-130103386D01*
X125803209Y-130080160D01*
X125777691Y-130047891D01*
X125745528Y-130004519D01*
X125705020Y-129947984D01*
X125654464Y-129876226D01*
X125648754Y-129868083D01*
X125582357Y-129773077D01*
X125525960Y-129691674D01*
X125477184Y-129620306D01*
X125433651Y-129555405D01*
X125392983Y-129493404D01*
X125352801Y-129430736D01*
X125310726Y-129363832D01*
X125285361Y-129323041D01*
X125241361Y-129251566D01*
X125207702Y-129195252D01*
X125183249Y-129151475D01*
X125166868Y-129117610D01*
X125157424Y-129091031D01*
X125153784Y-129069114D01*
X125154812Y-129049234D01*
X125158917Y-129030450D01*
X125181006Y-128981868D01*
X125215954Y-128944379D01*
X125259297Y-128922485D01*
X125267963Y-128920488D01*
X125302545Y-128916968D01*
X125333943Y-128921396D01*
X125364155Y-128935523D01*
X125395180Y-128961098D01*
X125429014Y-128999870D01*
X125467655Y-129053590D01*
X125513101Y-129124006D01*
X125528218Y-129148416D01*
X125560475Y-129200020D01*
X125595735Y-129255004D01*
X125632125Y-129310608D01*
X125667776Y-129364072D01*
X125700814Y-129412635D01*
X125729369Y-129453537D01*
X125751568Y-129484017D01*
X125765539Y-129501316D01*
X125769401Y-129504125D01*
X125772995Y-129492448D01*
X125778790Y-129465407D01*
X125785735Y-129428554D01*
X125792782Y-129387441D01*
X125798616Y-129349500D01*
X125802966Y-129323601D01*
X125810888Y-129280800D01*
X125821615Y-129224910D01*
X125834384Y-129159745D01*
X125848429Y-129089121D01*
X125862983Y-129016850D01*
X125877282Y-128946749D01*
X125890561Y-128882631D01*
X125902053Y-128828310D01*
X125910995Y-128787601D01*
X125913738Y-128775761D01*
X125930848Y-128719745D01*
X125952770Y-128680324D01*
X125982342Y-128653018D01*
X125996948Y-128644485D01*
X126045863Y-128629418D01*
X126097130Y-128630615D01*
G37*
X126097130Y-128630615D02*
X126144718Y-128646730D01*
X126182599Y-128676417D01*
X126191228Y-128687858D01*
X126201852Y-128707979D01*
X126208919Y-128732338D01*
X126212429Y-128763726D01*
X126212385Y-128804934D01*
X126208789Y-128858752D01*
X126201642Y-128927971D01*
X126191454Y-129011409D01*
X126167261Y-129206481D01*
X126146862Y-129383140D01*
X126130026Y-129543751D01*
X126116523Y-129690684D01*
X126106121Y-129826303D01*
X126098591Y-129952978D01*
X126097456Y-129976448D01*
X126090836Y-130031551D01*
X126074788Y-130072996D01*
X126046071Y-130107367D01*
X126024242Y-130125238D01*
X125986754Y-130142633D01*
X125940110Y-130150012D01*
X125894273Y-130146442D01*
X125872875Y-130139409D01*
X125856916Y-130130950D01*
X125841120Y-130119629D01*
X125823785Y-130103386D01*
X125803209Y-130080160D01*
X125777691Y-130047891D01*
X125745528Y-130004519D01*
X125705020Y-129947984D01*
X125654464Y-129876226D01*
X125648754Y-129868083D01*
X125582357Y-129773077D01*
X125525960Y-129691674D01*
X125477184Y-129620306D01*
X125433651Y-129555405D01*
X125392983Y-129493404D01*
X125352801Y-129430736D01*
X125310726Y-129363832D01*
X125285361Y-129323041D01*
X125241361Y-129251566D01*
X125207702Y-129195252D01*
X125183249Y-129151475D01*
X125166868Y-129117610D01*
X125157424Y-129091031D01*
X125153784Y-129069114D01*
X125154812Y-129049234D01*
X125158917Y-129030450D01*
X125181006Y-128981868D01*
X125215954Y-128944379D01*
X125259297Y-128922485D01*
X125267963Y-128920488D01*
X125302545Y-128916968D01*
X125333943Y-128921396D01*
X125364155Y-128935523D01*
X125395180Y-128961098D01*
X125429014Y-128999870D01*
X125467655Y-129053590D01*
X125513101Y-129124006D01*
X125528218Y-129148416D01*
X125560475Y-129200020D01*
X125595735Y-129255004D01*
X125632125Y-129310608D01*
X125667776Y-129364072D01*
X125700814Y-129412635D01*
X125729369Y-129453537D01*
X125751568Y-129484017D01*
X125765539Y-129501316D01*
X125769401Y-129504125D01*
X125772995Y-129492448D01*
X125778790Y-129465407D01*
X125785735Y-129428554D01*
X125792782Y-129387441D01*
X125798616Y-129349500D01*
X125802966Y-129323601D01*
X125810888Y-129280800D01*
X125821615Y-129224910D01*
X125834384Y-129159745D01*
X125848429Y-129089121D01*
X125862983Y-129016850D01*
X125877282Y-128946749D01*
X125890561Y-128882631D01*
X125902053Y-128828310D01*
X125910995Y-128787601D01*
X125913738Y-128775761D01*
X125930848Y-128719745D01*
X125952770Y-128680324D01*
X125982342Y-128653018D01*
X125996948Y-128644485D01*
X126045863Y-128629418D01*
X126097130Y-128630615D01*
D11*
%TO.C,U7*%
X130572000Y-120020000D02*
G75*
G03*
X130572000Y-120020000I-100000J0D01*
G01*
D14*
%TO.C,D1*%
X108066000Y-58716000D02*
X109866000Y-58716000D01*
D11*
%TO.C,C13*%
X103972775Y-67919000D02*
X103972775Y-67419000D01*
X104222775Y-67669000D02*
X103722775Y-67669000D01*
%TO.C,C12*%
X109528775Y-67919000D02*
X109528775Y-67419000D01*
X109778775Y-67669000D02*
X109278775Y-67669000D01*
%TO.C,U10*%
X104318000Y-78888000D02*
G75*
G03*
X104318000Y-78888000I-100000J0D01*
G01*
%TO.C,U8*%
X141984000Y-106822776D02*
G75*
G03*
X141984000Y-106822776I-100000J0D01*
G01*
%TO.C,U11*%
X174651000Y-115126000D02*
G75*
G03*
X174651000Y-115126000I-100000J0D01*
G01*
D15*
%TO.C,D3*%
X108042000Y-134928000D02*
X106842000Y-134928000D01*
%TO.C,D10*%
X124044000Y-134928000D02*
X122844000Y-134928000D01*
%TO.C,D9*%
X121758000Y-134928000D02*
X120558000Y-134928000D01*
%TO.C,D8*%
X119472000Y-134928000D02*
X118272000Y-134928000D01*
%TO.C,D7*%
X117186000Y-134928000D02*
X115986000Y-134928000D01*
%TO.C,D6*%
X114900000Y-134928000D02*
X113700000Y-134928000D01*
%TO.C,D5*%
X112614000Y-134928000D02*
X111414000Y-134928000D01*
%TO.C,D4*%
X110328000Y-134928000D02*
X109128000Y-134928000D01*
%TO.C,D11*%
X103770000Y-122012000D02*
X103770000Y-120812000D01*
%TO.C,C10*%
D10*
X131883214Y-126460214D02*
X131845119Y-126498309D01*
X131730833Y-126536404D01*
X131654642Y-126536404D01*
X131540357Y-126498309D01*
X131464166Y-126422119D01*
X131426071Y-126345928D01*
X131387976Y-126193547D01*
X131387976Y-126079261D01*
X131426071Y-125926880D01*
X131464166Y-125850690D01*
X131540357Y-125774500D01*
X131654642Y-125736404D01*
X131730833Y-125736404D01*
X131845119Y-125774500D01*
X131883214Y-125812595D01*
X132645119Y-126536404D02*
X132187976Y-126536404D01*
X132416547Y-126536404D02*
X132416547Y-125736404D01*
X132340357Y-125850690D01*
X132264166Y-125926880D01*
X132187976Y-125964976D01*
X133140357Y-125736404D02*
X133216547Y-125736404D01*
X133292738Y-125774500D01*
X133330833Y-125812595D01*
X133368928Y-125888785D01*
X133407023Y-126041166D01*
X133407023Y-126231642D01*
X133368928Y-126384023D01*
X133330833Y-126460214D01*
X133292738Y-126498309D01*
X133216547Y-126536404D01*
X133140357Y-126536404D01*
X133064166Y-126498309D01*
X133026071Y-126460214D01*
X132987976Y-126384023D01*
X132949880Y-126231642D01*
X132949880Y-126041166D01*
X132987976Y-125888785D01*
X133026071Y-125812595D01*
X133064166Y-125774500D01*
X133140357Y-125736404D01*
%TO.C,C3*%
X184524666Y-111156714D02*
X184486571Y-111194809D01*
X184372285Y-111232904D01*
X184296095Y-111232904D01*
X184181809Y-111194809D01*
X184105619Y-111118619D01*
X184067523Y-111042428D01*
X184029428Y-110890047D01*
X184029428Y-110775761D01*
X184067523Y-110623380D01*
X184105619Y-110547190D01*
X184181809Y-110471000D01*
X184296095Y-110432904D01*
X184372285Y-110432904D01*
X184486571Y-110471000D01*
X184524666Y-110509095D01*
X184791333Y-110432904D02*
X185286571Y-110432904D01*
X185019904Y-110737666D01*
X185134190Y-110737666D01*
X185210380Y-110775761D01*
X185248476Y-110813857D01*
X185286571Y-110890047D01*
X185286571Y-111080523D01*
X185248476Y-111156714D01*
X185210380Y-111194809D01*
X185134190Y-111232904D01*
X184905619Y-111232904D01*
X184829428Y-111194809D01*
X184791333Y-111156714D01*
%TO.C,D1*%
X111486904Y-57359476D02*
X110686904Y-57359476D01*
X110686904Y-57169000D01*
X110725000Y-57054714D01*
X110801190Y-56978523D01*
X110877380Y-56940428D01*
X111029761Y-56902333D01*
X111144047Y-56902333D01*
X111296428Y-56940428D01*
X111372619Y-56978523D01*
X111448809Y-57054714D01*
X111486904Y-57169000D01*
X111486904Y-57359476D01*
X111486904Y-56140428D02*
X111486904Y-56597571D01*
X111486904Y-56369000D02*
X110686904Y-56369000D01*
X110801190Y-56445190D01*
X110877380Y-56521380D01*
X110915476Y-56597571D01*
%TO.C,U9*%
X105816476Y-55949904D02*
X105816476Y-56597523D01*
X105854571Y-56673714D01*
X105892666Y-56711809D01*
X105968857Y-56749904D01*
X106121238Y-56749904D01*
X106197428Y-56711809D01*
X106235523Y-56673714D01*
X106273619Y-56597523D01*
X106273619Y-55949904D01*
X106692666Y-56749904D02*
X106845047Y-56749904D01*
X106921238Y-56711809D01*
X106959333Y-56673714D01*
X107035523Y-56559428D01*
X107073619Y-56407047D01*
X107073619Y-56102285D01*
X107035523Y-56026095D01*
X106997428Y-55988000D01*
X106921238Y-55949904D01*
X106768857Y-55949904D01*
X106692666Y-55988000D01*
X106654571Y-56026095D01*
X106616476Y-56102285D01*
X106616476Y-56292761D01*
X106654571Y-56368952D01*
X106692666Y-56407047D01*
X106768857Y-56445142D01*
X106921238Y-56445142D01*
X106997428Y-56407047D01*
X107035523Y-56368952D01*
X107073619Y-56292761D01*
%TO.C,C13*%
X104705214Y-69373714D02*
X104667119Y-69411809D01*
X104552833Y-69449904D01*
X104476642Y-69449904D01*
X104362357Y-69411809D01*
X104286166Y-69335619D01*
X104248071Y-69259428D01*
X104209976Y-69107047D01*
X104209976Y-68992761D01*
X104248071Y-68840380D01*
X104286166Y-68764190D01*
X104362357Y-68688000D01*
X104476642Y-68649904D01*
X104552833Y-68649904D01*
X104667119Y-68688000D01*
X104705214Y-68726095D01*
X105467119Y-69449904D02*
X105009976Y-69449904D01*
X105238547Y-69449904D02*
X105238547Y-68649904D01*
X105162357Y-68764190D01*
X105086166Y-68840380D01*
X105009976Y-68878476D01*
X105733785Y-68649904D02*
X106229023Y-68649904D01*
X105962357Y-68954666D01*
X106076642Y-68954666D01*
X106152833Y-68992761D01*
X106190928Y-69030857D01*
X106229023Y-69107047D01*
X106229023Y-69297523D01*
X106190928Y-69373714D01*
X106152833Y-69411809D01*
X106076642Y-69449904D01*
X105848071Y-69449904D01*
X105771880Y-69411809D01*
X105733785Y-69373714D01*
%TO.C,C12*%
X110293214Y-69373714D02*
X110255119Y-69411809D01*
X110140833Y-69449904D01*
X110064642Y-69449904D01*
X109950357Y-69411809D01*
X109874166Y-69335619D01*
X109836071Y-69259428D01*
X109797976Y-69107047D01*
X109797976Y-68992761D01*
X109836071Y-68840380D01*
X109874166Y-68764190D01*
X109950357Y-68688000D01*
X110064642Y-68649904D01*
X110140833Y-68649904D01*
X110255119Y-68688000D01*
X110293214Y-68726095D01*
X111055119Y-69449904D02*
X110597976Y-69449904D01*
X110826547Y-69449904D02*
X110826547Y-68649904D01*
X110750357Y-68764190D01*
X110674166Y-68840380D01*
X110597976Y-68878476D01*
X111359880Y-68726095D02*
X111397976Y-68688000D01*
X111474166Y-68649904D01*
X111664642Y-68649904D01*
X111740833Y-68688000D01*
X111778928Y-68726095D01*
X111817023Y-68802285D01*
X111817023Y-68878476D01*
X111778928Y-68992761D01*
X111321785Y-69449904D01*
X111817023Y-69449904D01*
%TO.C,D2*%
X104629023Y-73767904D02*
X104629023Y-72967904D01*
X104819500Y-72967904D01*
X104933785Y-73006000D01*
X105009976Y-73082190D01*
X105048071Y-73158380D01*
X105086166Y-73310761D01*
X105086166Y-73425047D01*
X105048071Y-73577428D01*
X105009976Y-73653619D01*
X104933785Y-73729809D01*
X104819500Y-73767904D01*
X104629023Y-73767904D01*
X105390928Y-73044095D02*
X105429023Y-73006000D01*
X105505214Y-72967904D01*
X105695690Y-72967904D01*
X105771880Y-73006000D01*
X105809976Y-73044095D01*
X105848071Y-73120285D01*
X105848071Y-73196476D01*
X105809976Y-73310761D01*
X105352833Y-73767904D01*
X105848071Y-73767904D01*
%TO.C,U10*%
X109797904Y-82778476D02*
X110445523Y-82778476D01*
X110521714Y-82740380D01*
X110559809Y-82702285D01*
X110597904Y-82626095D01*
X110597904Y-82473714D01*
X110559809Y-82397523D01*
X110521714Y-82359428D01*
X110445523Y-82321333D01*
X109797904Y-82321333D01*
X110597904Y-81521333D02*
X110597904Y-81978476D01*
X110597904Y-81749904D02*
X109797904Y-81749904D01*
X109912190Y-81826095D01*
X109988380Y-81902285D01*
X110026476Y-81978476D01*
X109797904Y-81026095D02*
X109797904Y-80949904D01*
X109836000Y-80873714D01*
X109874095Y-80835619D01*
X109950285Y-80797523D01*
X110102666Y-80759428D01*
X110293142Y-80759428D01*
X110445523Y-80797523D01*
X110521714Y-80835619D01*
X110559809Y-80873714D01*
X110597904Y-80949904D01*
X110597904Y-81026095D01*
X110559809Y-81102285D01*
X110521714Y-81140380D01*
X110445523Y-81178476D01*
X110293142Y-81216571D01*
X110102666Y-81216571D01*
X109950285Y-81178476D01*
X109874095Y-81140380D01*
X109836000Y-81102285D01*
X109797904Y-81026095D01*
%TO.C,U4*%
X105562476Y-101415904D02*
X105562476Y-102063523D01*
X105600571Y-102139714D01*
X105638666Y-102177809D01*
X105714857Y-102215904D01*
X105867238Y-102215904D01*
X105943428Y-102177809D01*
X105981523Y-102139714D01*
X106019619Y-102063523D01*
X106019619Y-101415904D01*
X106743428Y-101682571D02*
X106743428Y-102215904D01*
X106552952Y-101377809D02*
X106362476Y-101949238D01*
X106857714Y-101949238D01*
%TO.C,R26*%
X104451214Y-89007904D02*
X104184547Y-88626952D01*
X103994071Y-89007904D02*
X103994071Y-88207904D01*
X104298833Y-88207904D01*
X104375023Y-88246000D01*
X104413119Y-88284095D01*
X104451214Y-88360285D01*
X104451214Y-88474571D01*
X104413119Y-88550761D01*
X104375023Y-88588857D01*
X104298833Y-88626952D01*
X103994071Y-88626952D01*
X104755976Y-88284095D02*
X104794071Y-88246000D01*
X104870261Y-88207904D01*
X105060738Y-88207904D01*
X105136928Y-88246000D01*
X105175023Y-88284095D01*
X105213119Y-88360285D01*
X105213119Y-88436476D01*
X105175023Y-88550761D01*
X104717880Y-89007904D01*
X105213119Y-89007904D01*
X105898833Y-88207904D02*
X105746452Y-88207904D01*
X105670261Y-88246000D01*
X105632166Y-88284095D01*
X105555976Y-88398380D01*
X105517880Y-88550761D01*
X105517880Y-88855523D01*
X105555976Y-88931714D01*
X105594071Y-88969809D01*
X105670261Y-89007904D01*
X105822642Y-89007904D01*
X105898833Y-88969809D01*
X105936928Y-88931714D01*
X105975023Y-88855523D01*
X105975023Y-88665047D01*
X105936928Y-88588857D01*
X105898833Y-88550761D01*
X105822642Y-88512666D01*
X105670261Y-88512666D01*
X105594071Y-88550761D01*
X105555976Y-88588857D01*
X105517880Y-88665047D01*
%TO.C,R3*%
X181476666Y-129520904D02*
X181210000Y-129139952D01*
X181019523Y-129520904D02*
X181019523Y-128720904D01*
X181324285Y-128720904D01*
X181400476Y-128759000D01*
X181438571Y-128797095D01*
X181476666Y-128873285D01*
X181476666Y-128987571D01*
X181438571Y-129063761D01*
X181400476Y-129101857D01*
X181324285Y-129139952D01*
X181019523Y-129139952D01*
X181743333Y-128720904D02*
X182238571Y-128720904D01*
X181971904Y-129025666D01*
X182086190Y-129025666D01*
X182162380Y-129063761D01*
X182200476Y-129101857D01*
X182238571Y-129178047D01*
X182238571Y-129368523D01*
X182200476Y-129444714D01*
X182162380Y-129482809D01*
X182086190Y-129520904D01*
X181857619Y-129520904D01*
X181781428Y-129482809D01*
X181743333Y-129444714D01*
%TO.C,R27*%
X104451214Y-86975904D02*
X104184547Y-86594952D01*
X103994071Y-86975904D02*
X103994071Y-86175904D01*
X104298833Y-86175904D01*
X104375023Y-86214000D01*
X104413119Y-86252095D01*
X104451214Y-86328285D01*
X104451214Y-86442571D01*
X104413119Y-86518761D01*
X104375023Y-86556857D01*
X104298833Y-86594952D01*
X103994071Y-86594952D01*
X104755976Y-86252095D02*
X104794071Y-86214000D01*
X104870261Y-86175904D01*
X105060738Y-86175904D01*
X105136928Y-86214000D01*
X105175023Y-86252095D01*
X105213119Y-86328285D01*
X105213119Y-86404476D01*
X105175023Y-86518761D01*
X104717880Y-86975904D01*
X105213119Y-86975904D01*
X105479785Y-86175904D02*
X106013119Y-86175904D01*
X105670261Y-86975904D01*
%TO.C,R25*%
X104451214Y-75545904D02*
X104184547Y-75164952D01*
X103994071Y-75545904D02*
X103994071Y-74745904D01*
X104298833Y-74745904D01*
X104375023Y-74784000D01*
X104413119Y-74822095D01*
X104451214Y-74898285D01*
X104451214Y-75012571D01*
X104413119Y-75088761D01*
X104375023Y-75126857D01*
X104298833Y-75164952D01*
X103994071Y-75164952D01*
X104755976Y-74822095D02*
X104794071Y-74784000D01*
X104870261Y-74745904D01*
X105060738Y-74745904D01*
X105136928Y-74784000D01*
X105175023Y-74822095D01*
X105213119Y-74898285D01*
X105213119Y-74974476D01*
X105175023Y-75088761D01*
X104717880Y-75545904D01*
X105213119Y-75545904D01*
X105936928Y-74745904D02*
X105555976Y-74745904D01*
X105517880Y-75126857D01*
X105555976Y-75088761D01*
X105632166Y-75050666D01*
X105822642Y-75050666D01*
X105898833Y-75088761D01*
X105936928Y-75126857D01*
X105975023Y-75203047D01*
X105975023Y-75393523D01*
X105936928Y-75469714D01*
X105898833Y-75507809D01*
X105822642Y-75545904D01*
X105632166Y-75545904D01*
X105555976Y-75507809D01*
X105517880Y-75469714D01*
%TO.C,R24*%
X104451214Y-77577904D02*
X104184547Y-77196952D01*
X103994071Y-77577904D02*
X103994071Y-76777904D01*
X104298833Y-76777904D01*
X104375023Y-76816000D01*
X104413119Y-76854095D01*
X104451214Y-76930285D01*
X104451214Y-77044571D01*
X104413119Y-77120761D01*
X104375023Y-77158857D01*
X104298833Y-77196952D01*
X103994071Y-77196952D01*
X104755976Y-76854095D02*
X104794071Y-76816000D01*
X104870261Y-76777904D01*
X105060738Y-76777904D01*
X105136928Y-76816000D01*
X105175023Y-76854095D01*
X105213119Y-76930285D01*
X105213119Y-77006476D01*
X105175023Y-77120761D01*
X104717880Y-77577904D01*
X105213119Y-77577904D01*
X105898833Y-77044571D02*
X105898833Y-77577904D01*
X105708357Y-76739809D02*
X105517880Y-77311238D01*
X106013119Y-77311238D01*
%TO.C,R22*%
X110534404Y-76714285D02*
X110153452Y-76980952D01*
X110534404Y-77171428D02*
X109734404Y-77171428D01*
X109734404Y-76866666D01*
X109772500Y-76790476D01*
X109810595Y-76752380D01*
X109886785Y-76714285D01*
X110001071Y-76714285D01*
X110077261Y-76752380D01*
X110115357Y-76790476D01*
X110153452Y-76866666D01*
X110153452Y-77171428D01*
X109810595Y-76409523D02*
X109772500Y-76371428D01*
X109734404Y-76295238D01*
X109734404Y-76104761D01*
X109772500Y-76028571D01*
X109810595Y-75990476D01*
X109886785Y-75952380D01*
X109962976Y-75952380D01*
X110077261Y-75990476D01*
X110534404Y-76447619D01*
X110534404Y-75952380D01*
X109810595Y-75647619D02*
X109772500Y-75609523D01*
X109734404Y-75533333D01*
X109734404Y-75342857D01*
X109772500Y-75266666D01*
X109810595Y-75228571D01*
X109886785Y-75190476D01*
X109962976Y-75190476D01*
X110077261Y-75228571D01*
X110534404Y-75685714D01*
X110534404Y-75190476D01*
%TO.C,R21*%
X108197714Y-88372904D02*
X107931047Y-87991952D01*
X107740571Y-88372904D02*
X107740571Y-87572904D01*
X108045333Y-87572904D01*
X108121523Y-87611000D01*
X108159619Y-87649095D01*
X108197714Y-87725285D01*
X108197714Y-87839571D01*
X108159619Y-87915761D01*
X108121523Y-87953857D01*
X108045333Y-87991952D01*
X107740571Y-87991952D01*
X108502476Y-87649095D02*
X108540571Y-87611000D01*
X108616761Y-87572904D01*
X108807238Y-87572904D01*
X108883428Y-87611000D01*
X108921523Y-87649095D01*
X108959619Y-87725285D01*
X108959619Y-87801476D01*
X108921523Y-87915761D01*
X108464380Y-88372904D01*
X108959619Y-88372904D01*
X109721523Y-88372904D02*
X109264380Y-88372904D01*
X109492952Y-88372904D02*
X109492952Y-87572904D01*
X109416761Y-87687190D01*
X109340571Y-87763380D01*
X109264380Y-87801476D01*
%TO.C,R28*%
X109785214Y-71989904D02*
X109518547Y-71608952D01*
X109328071Y-71989904D02*
X109328071Y-71189904D01*
X109632833Y-71189904D01*
X109709023Y-71228000D01*
X109747119Y-71266095D01*
X109785214Y-71342285D01*
X109785214Y-71456571D01*
X109747119Y-71532761D01*
X109709023Y-71570857D01*
X109632833Y-71608952D01*
X109328071Y-71608952D01*
X110089976Y-71266095D02*
X110128071Y-71228000D01*
X110204261Y-71189904D01*
X110394738Y-71189904D01*
X110470928Y-71228000D01*
X110509023Y-71266095D01*
X110547119Y-71342285D01*
X110547119Y-71418476D01*
X110509023Y-71532761D01*
X110051880Y-71989904D01*
X110547119Y-71989904D01*
X111004261Y-71532761D02*
X110928071Y-71494666D01*
X110889976Y-71456571D01*
X110851880Y-71380380D01*
X110851880Y-71342285D01*
X110889976Y-71266095D01*
X110928071Y-71228000D01*
X111004261Y-71189904D01*
X111156642Y-71189904D01*
X111232833Y-71228000D01*
X111270928Y-71266095D01*
X111309023Y-71342285D01*
X111309023Y-71380380D01*
X111270928Y-71456571D01*
X111232833Y-71494666D01*
X111156642Y-71532761D01*
X111004261Y-71532761D01*
X110928071Y-71570857D01*
X110889976Y-71608952D01*
X110851880Y-71685142D01*
X110851880Y-71837523D01*
X110889976Y-71913714D01*
X110928071Y-71951809D01*
X111004261Y-71989904D01*
X111156642Y-71989904D01*
X111232833Y-71951809D01*
X111270928Y-71913714D01*
X111309023Y-71837523D01*
X111309023Y-71685142D01*
X111270928Y-71608952D01*
X111232833Y-71570857D01*
X111156642Y-71532761D01*
%TO.C,R4*%
X170160904Y-124847333D02*
X169779952Y-125114000D01*
X170160904Y-125304476D02*
X169360904Y-125304476D01*
X169360904Y-124999714D01*
X169399000Y-124923523D01*
X169437095Y-124885428D01*
X169513285Y-124847333D01*
X169627571Y-124847333D01*
X169703761Y-124885428D01*
X169741857Y-124923523D01*
X169779952Y-124999714D01*
X169779952Y-125304476D01*
X169627571Y-124161619D02*
X170160904Y-124161619D01*
X169322809Y-124352095D02*
X169894238Y-124542571D01*
X169894238Y-124047333D01*
%TO.C,R2*%
X176650666Y-127615904D02*
X176384000Y-127234952D01*
X176193523Y-127615904D02*
X176193523Y-126815904D01*
X176498285Y-126815904D01*
X176574476Y-126854000D01*
X176612571Y-126892095D01*
X176650666Y-126968285D01*
X176650666Y-127082571D01*
X176612571Y-127158761D01*
X176574476Y-127196857D01*
X176498285Y-127234952D01*
X176193523Y-127234952D01*
X176955428Y-126892095D02*
X176993523Y-126854000D01*
X177069714Y-126815904D01*
X177260190Y-126815904D01*
X177336380Y-126854000D01*
X177374476Y-126892095D01*
X177412571Y-126968285D01*
X177412571Y-127044476D01*
X177374476Y-127158761D01*
X176917333Y-127615904D01*
X177412571Y-127615904D01*
%TO.C,R1*%
X185286666Y-129520904D02*
X185020000Y-129139952D01*
X184829523Y-129520904D02*
X184829523Y-128720904D01*
X185134285Y-128720904D01*
X185210476Y-128759000D01*
X185248571Y-128797095D01*
X185286666Y-128873285D01*
X185286666Y-128987571D01*
X185248571Y-129063761D01*
X185210476Y-129101857D01*
X185134285Y-129139952D01*
X184829523Y-129139952D01*
X186048571Y-129520904D02*
X185591428Y-129520904D01*
X185820000Y-129520904D02*
X185820000Y-128720904D01*
X185743809Y-128835190D01*
X185667619Y-128911380D01*
X185591428Y-128949476D01*
%TO.C,D11*%
X105454571Y-121837404D02*
X105454571Y-121037404D01*
X105645047Y-121037404D01*
X105759333Y-121075500D01*
X105835523Y-121151690D01*
X105873619Y-121227880D01*
X105911714Y-121380261D01*
X105911714Y-121494547D01*
X105873619Y-121646928D01*
X105835523Y-121723119D01*
X105759333Y-121799309D01*
X105645047Y-121837404D01*
X105454571Y-121837404D01*
X106673619Y-121837404D02*
X106216476Y-121837404D01*
X106445047Y-121837404D02*
X106445047Y-121037404D01*
X106368857Y-121151690D01*
X106292666Y-121227880D01*
X106216476Y-121265976D01*
X107435523Y-121837404D02*
X106978380Y-121837404D01*
X107206952Y-121837404D02*
X107206952Y-121037404D01*
X107130761Y-121151690D01*
X107054571Y-121227880D01*
X106978380Y-121265976D01*
%TD*%
M02*
