M48
; DRILL file {KiCad (5.1.10-1-10_14)} date Tuesday, August 10, 2021 at 10:17:24 PM
; FORMAT={-:-/ absolute / inch / decimal}
; #@! TF.CreationDate,2021-08-10T22:17:24+10:00
; #@! TF.GenerationSoftware,Kicad,Pcbnew,(5.1.10-1-10_14)
FMAT,2
INCH
T1C0.0157
T2C0.0315
T3C0.0354
T4C0.0394
T5C0.0433
T6C0.0433
T7C0.1260
%
G90
G05
T1
X3.9628Y-3.2328
X3.9894Y-3.1665
X3.9898Y-3.2721
X3.99Y-3.3114
X3.99Y-3.1272
X4.03Y-4.78
X4.07Y-4.78
X4.14Y-3.12
X4.14Y-3.32
X4.14Y-3.81
X4.185Y-5.32
X4.2Y-3.12
X4.2Y-3.32
X4.2Y-3.455
X4.2Y-4.43
X4.2Y-4.47
X4.22Y-3.04
X4.23Y-5.23
X4.2694Y-2.8694
X4.275Y-5.32
X4.32Y-5.23
X4.365Y-5.32
X4.4Y-3.8
X4.4Y-4.1
X4.41Y-5.23
X4.455Y-5.32
X4.49Y-3.2
X4.49Y-3.5
X4.5Y-5.23
X4.52Y-2.15
X4.55Y-2.25
X4.55Y-5.325
X4.57Y-2.35
X4.58Y-2.1
X4.59Y-2.45
X4.59Y-3.35
X4.59Y-5.23
X4.61Y-2.2
X4.61Y-2.55
X4.61Y-2.95
X4.63Y-1.93
X4.63Y-2.0
X4.63Y-2.4
X4.63Y-3.03
X4.635Y-5.32
X4.65Y-2.49
X4.65Y-3.08
X4.66Y-1.75
X4.67Y-2.62
X4.67Y-2.7
X4.67Y-2.83
X4.68Y-5.23
X4.69Y-1.93
X4.7Y-2.8
X4.71Y-2.95
X4.72Y-1.81
X4.725Y-5.32
X4.73Y-3.05
X4.74Y-2.92
X4.75Y-3.01
X4.75Y-3.15
X4.77Y-3.1
X4.77Y-3.25
X4.77Y-5.23
X4.78Y-2.15
X4.81Y-2.05
X4.815Y-5.32
X4.835Y-1.75
X4.85Y-2.74
X4.86Y-3.4
X4.86Y-5.23
X4.9Y-3.7
X4.9Y-3.8
X4.9Y-3.9
X4.93Y-2.87
X4.93Y-3.3
X4.93Y-3.47
X4.96Y-2.77
X4.97Y-2.65
X5.0Y-3.5
X5.08Y-3.66
X5.09Y-3.59
X5.09Y-4.38
X5.09Y-4.42
X5.09Y-4.46
X5.09Y-4.5
X5.09Y-4.54
X5.09Y-4.58
X5.09Y-4.62
X5.09Y-4.66
X5.1Y-4.21
X5.13Y-4.06
X5.15Y-4.78
X5.15Y-4.83
X5.15Y-4.88
X5.16Y-4.03
X5.18Y-4.395
X5.19Y-4.06
X5.2Y-4.93
X5.22Y-4.03
X5.225Y-4.755
X5.245Y-4.575
X5.25Y-4.06
X5.25Y-4.93
X5.28Y-4.03
X5.28Y-4.29
X5.28Y-4.44
X5.3Y-4.93
X5.31Y-4.06
X5.34Y-4.03
X5.37Y-4.06
X5.4Y-2.15
X5.4Y-4.49
X5.42Y-3.5
X5.43Y-1.8
X5.43Y-1.95
X5.43Y-2.05
X5.43Y-3.2
X5.45Y-3.79
X5.46Y-2.55
X5.46Y-2.65
X5.46Y-2.75
X5.46Y-2.85
X5.46Y-2.95
X5.46Y-3.05
X5.46Y-5.085
X5.47Y-1.9
X5.48Y-3.92
X5.49Y-1.72
X5.49Y-3.29
X5.51Y-3.89
X5.52Y-3.38
X5.54Y-1.82
X5.54Y-2.0
X5.54Y-2.1
X5.54Y-2.2
X5.54Y-3.3
X5.54Y-3.42
X5.54Y-3.92
X5.57Y-3.89
X5.57Y-4.16
X5.6Y-3.55
X5.6Y-3.6
X5.6Y-3.65
X5.6Y-3.92
X5.6Y-4.35
X5.6Y-4.45
X5.6Y-4.7
X5.6Y-4.78
X5.63Y-3.89
X5.64Y-2.32
X5.64Y-3.47
X5.65Y-3.35
X5.67Y-3.89
X5.67Y-4.91
X5.68Y-3.25
X5.695Y-4.225
X5.695Y-4.48
X5.7Y-3.15
X5.71Y-3.87
X5.73Y-2.3
X5.74Y-4.48
X5.75Y-3.79
X5.75Y-3.85
X5.76Y-3.5
X5.785Y-4.48
X5.79Y-3.82
X5.79Y-4.91
X5.83Y-4.48
X5.84Y-4.19
X5.85Y-3.0
X5.85Y-3.1
X5.86Y-3.66
X5.87Y-4.22
X5.875Y-4.48
X5.89Y-3.6
X5.9Y-4.91
X5.92Y-4.48
X5.925Y-4.19
X5.95Y-4.91
X5.965Y-4.48
X5.97Y-4.19
X6.0Y-1.9
X6.01Y-4.48
X6.01Y-4.91
X6.03Y-2.0
X6.03Y-4.19
X6.05Y-2.1
X6.05Y-4.91
X6.065Y-4.535
X6.065Y-4.58
X6.065Y-4.625
X6.065Y-4.67
X6.065Y-4.715
X6.065Y-4.76
X6.065Y-4.805
X6.065Y-4.85
X6.07Y-2.2
X6.1Y-1.85
X6.11Y-3.71
X6.13Y-2.65
X6.13Y-3.75
X6.15Y-3.79
X6.16Y-1.95
X6.165Y-4.38
X6.17Y-2.75
X6.17Y-3.83
X6.18Y-5.06
X6.185Y-4.91
X6.2Y-2.05
X6.2Y-3.86
X6.21Y-2.85
X6.21Y-5.09
X6.24Y-2.15
X6.24Y-3.87
X6.24Y-3.98
X6.24Y-5.12
X6.2464Y-4.9106
X6.25Y-2.95
X6.27Y-4.01
X6.27Y-5.15
X6.28Y-2.25
X6.28Y-3.88
X6.29Y-3.05
X6.3Y-4.04
X6.3Y-4.91
X6.3187Y-4.5512
X6.32Y-2.35
X6.32Y-3.89
X6.32Y-4.2
X6.32Y-4.3
X6.32Y-4.36
X6.32Y-4.48
X6.32Y-4.62
X6.33Y-3.15
X6.33Y-4.07
X6.35Y-4.16
X6.36Y-2.45
X6.36Y-3.9
X6.37Y-3.25
X6.4Y-2.55
X6.4Y-3.91
X6.41Y-3.35
X6.44Y-1.75
X6.44Y-3.92
X6.45Y-3.45
X6.48Y-1.85
X6.48Y-3.93
X6.51Y-3.6
X6.52Y-3.95
X6.56Y-3.97
X6.58Y-4.32
X6.6Y-3.99
X6.61Y-4.35
X6.64Y-4.01
X6.64Y-4.38
X6.68Y-4.03
X6.72Y-4.05
X6.73Y-4.28
X6.76Y-4.07
X6.7675Y-4.5325
X6.77Y-4.41
X6.77Y-5.01
X6.8Y-4.09
X6.81Y-4.25
X6.82Y-2.35
X6.82Y-2.65
X6.83Y-1.73
X6.83Y-1.95
X6.86Y-2.35
X6.86Y-4.45
X6.89Y-2.85
X6.9Y-3.35
X6.92Y-2.45
X6.92Y-2.55
X6.92Y-3.05
X6.92Y-3.65
X6.93Y-1.85
X6.94Y-4.74
X6.95Y-2.85
X6.95Y-3.25
X6.95Y-4.68
X6.96Y-2.15
X6.96Y-2.26
X6.96Y-4.22
X6.96Y-4.8
X6.97Y-3.55
X6.98Y-2.55
X6.99Y-4.19
X7.0Y-2.24
X7.0Y-2.45
X7.0Y-3.15
X7.0Y-4.87
X7.02Y-4.99
X7.03Y-1.95
X7.05Y-2.95
X7.05Y-4.6
X7.05Y-4.87
X7.06Y-4.83
X7.06Y-5.05
X7.07Y-2.15
X7.07Y-4.79
X7.08Y-2.75
X7.08Y-4.39
X7.08Y-4.75
X7.12Y-3.4
X7.13Y-4.63
X7.14Y-4.22
X7.16Y-1.8
X7.17Y-2.75
X7.17Y-2.95
X7.17Y-4.63
X7.2Y-3.3
X7.21Y-4.54
X7.23Y-3.47
X7.24Y-4.57
X7.26Y-4.4
X7.27Y-4.89
X7.29Y-4.48
X7.34Y-5.09
X7.42Y-4.85
T2
X4.0125Y-2.61
X4.0913Y-2.61
X4.2313Y-2.61
X4.31Y-2.61
X4.35Y-3.55
X4.35Y-3.65
X4.35Y-3.75
X4.35Y-3.85
X4.35Y-3.95
X4.35Y-4.05
X4.35Y-4.15
X4.35Y-4.25
X4.35Y-4.35
X4.35Y-4.45
X4.35Y-4.55
X4.35Y-4.65
X4.35Y-4.75
X4.35Y-4.85
X4.45Y-1.75
X4.45Y-1.85
X4.45Y-1.95
X4.45Y-2.05
X4.45Y-2.15
X4.45Y-2.25
X4.45Y-2.35
X4.45Y-2.45
X4.45Y-2.55
X4.45Y-2.65
X4.45Y-2.75
X4.45Y-2.85
X4.45Y-2.95
X4.45Y-3.05
X4.45Y-3.15
X4.45Y-3.25
X4.95Y-3.55
X4.95Y-3.65
X4.95Y-3.75
X4.95Y-3.85
X4.95Y-3.95
X4.95Y-4.05
X4.95Y-4.15
X4.95Y-4.25
X4.95Y-4.35
X4.95Y-4.45
X4.95Y-4.55
X4.95Y-4.65
X4.95Y-4.75
X4.95Y-4.85
X5.05Y-1.75
X5.05Y-1.85
X5.05Y-1.95
X5.05Y-2.05
X5.05Y-2.15
X5.05Y-2.25
X5.05Y-2.35
X5.05Y-2.45
X5.05Y-2.55
X5.05Y-2.65
X5.05Y-2.75
X5.05Y-2.85
X5.05Y-2.95
X5.05Y-3.05
X5.05Y-3.15
X5.05Y-3.25
X5.2Y-1.75
X5.2Y-1.85
X5.2Y-1.95
X5.2Y-2.05
X5.2Y-2.15
X5.2Y-2.25
X5.2Y-2.35
X5.2Y-2.45
X5.2Y-2.55
X5.2Y-2.65
X5.2Y-2.75
X5.2Y-2.85
X5.2Y-2.95
X5.2Y-3.05
X5.2Y-3.15
X5.2Y-3.25
X5.2Y-3.35
X5.2Y-3.45
X5.2Y-3.55
X5.2Y-3.65
X5.8Y-1.75
X5.8Y-1.85
X5.8Y-1.95
X5.8Y-2.05
X5.8Y-2.15
X5.8Y-2.25
X5.8Y-2.35
X5.8Y-2.45
X5.8Y-2.55
X5.8Y-2.65
X5.8Y-2.75
X5.8Y-2.85
X5.8Y-2.95
X5.8Y-3.05
X5.8Y-3.15
X5.8Y-3.25
X5.8Y-3.35
X5.8Y-3.45
X5.8Y-3.55
X5.8Y-3.65
X5.95Y-1.75
X5.95Y-1.85
X5.95Y-1.95
X5.95Y-2.05
X5.95Y-2.15
X5.95Y-2.25
X5.95Y-2.35
X5.95Y-2.45
X5.95Y-2.55
X5.95Y-2.65
X5.95Y-2.75
X5.95Y-2.85
X5.95Y-2.95
X5.95Y-3.05
X5.95Y-3.15
X5.95Y-3.25
X5.95Y-3.35
X5.95Y-3.45
X5.95Y-3.55
X5.95Y-3.65
X6.55Y-1.75
X6.55Y-1.85
X6.55Y-1.95
X6.55Y-2.05
X6.55Y-2.15
X6.55Y-2.25
X6.55Y-2.35
X6.55Y-2.45
X6.55Y-2.55
X6.55Y-2.65
X6.55Y-2.75
X6.55Y-2.85
X6.55Y-2.95
X6.55Y-3.05
X6.55Y-3.15
X6.55Y-3.25
X6.55Y-3.35
X6.55Y-3.45
X6.55Y-3.55
X6.55Y-3.65
X6.7Y-1.75
X6.7Y-1.85
X6.7Y-1.95
X6.7Y-2.05
X6.7Y-2.15
X6.7Y-2.25
X6.7Y-2.35
X6.7Y-2.45
X6.7Y-2.55
X6.7Y-2.65
X6.7Y-2.75
X6.7Y-2.85
X6.7Y-2.95
X6.7Y-3.05
X6.7Y-3.15
X6.7Y-3.25
X6.7Y-3.35
X6.7Y-3.45
X6.7Y-3.55
X6.7Y-3.65
X7.3Y-1.75
X7.3Y-1.85
X7.3Y-1.95
X7.3Y-2.05
X7.3Y-2.15
X7.3Y-2.25
X7.3Y-2.35
X7.3Y-2.45
X7.3Y-2.55
X7.3Y-2.65
X7.3Y-2.75
X7.3Y-2.85
X7.3Y-2.95
X7.3Y-3.05
X7.3Y-3.15
X7.3Y-3.25
X7.3Y-3.35
X7.3Y-3.45
X7.3Y-3.55
X7.3Y-3.65
T3
X4.0Y-2.82
X4.1Y-2.82
T4
X4.0Y-4.15
X4.0Y-4.35
X4.0Y-4.45
X4.0Y-4.55
X4.0Y-4.65
X4.0Y-4.9
X4.0Y-5.0
X4.0Y-5.1
X4.1Y-4.15
X4.1Y-4.35
X4.1Y-4.45
X4.1Y-4.55
X4.1Y-4.65
X4.1Y-4.9
X4.1Y-5.0
X4.1Y-5.1
X5.05Y-5.25
X5.05Y-5.35
X5.15Y-5.25
X5.15Y-5.35
X5.25Y-5.25
X5.25Y-5.35
X5.35Y-5.25
X5.35Y-5.35
X5.55Y-5.25
X5.55Y-5.35
X5.65Y-5.25
X5.65Y-5.35
X5.75Y-5.25
X5.75Y-5.35
X5.85Y-5.25
X5.85Y-5.35
X5.95Y-5.25
X5.95Y-5.35
X6.05Y-5.25
X6.05Y-5.35
X6.15Y-5.25
X6.15Y-5.35
X6.25Y-5.25
X6.25Y-5.35
X6.45Y-5.25
X6.45Y-5.35
X6.55Y-5.25
X6.55Y-5.35
X6.65Y-5.25
X6.65Y-5.35
X6.75Y-5.25
X6.75Y-5.35
X6.85Y-5.25
X6.85Y-5.35
X6.95Y-5.25
X6.95Y-5.35
X7.05Y-5.25
X7.05Y-5.35
X7.15Y-5.25
X7.15Y-5.35
X7.25Y-5.25
X7.25Y-5.35
X7.35Y-5.25
X7.35Y-5.35
X7.5Y-2.0
X7.5Y-2.1
X7.5Y-2.2
X7.5Y-2.3
X7.5Y-2.4
X7.5Y-2.5
X7.5Y-2.6
X7.5Y-2.7
X7.5Y-2.8
X7.5Y-2.9
X7.5Y-3.0
X7.5Y-3.1
X7.5Y-3.3
X7.5Y-3.4
X7.5Y-3.5
X7.5Y-3.6
X7.5Y-3.7
X7.5Y-3.8
X7.5Y-3.9
X7.5Y-4.0
X7.5Y-4.1
X7.5Y-4.2
X7.5Y-4.3
X7.5Y-4.4
X7.5Y-4.6
X7.5Y-4.7
X7.5Y-4.8
X7.5Y-4.9
X7.5Y-5.0
X7.5Y-5.1
X7.6Y-2.0
X7.6Y-2.1
X7.6Y-2.2
X7.6Y-2.3
X7.6Y-2.4
X7.6Y-2.5
X7.6Y-2.6
X7.6Y-2.7
X7.6Y-2.8
X7.6Y-2.9
X7.6Y-3.0
X7.6Y-3.1
X7.6Y-3.3
X7.6Y-3.4
X7.6Y-3.5
X7.6Y-3.6
X7.6Y-3.7
X7.6Y-3.8
X7.6Y-3.9
X7.6Y-4.0
X7.6Y-4.1
X7.6Y-4.2
X7.6Y-4.3
X7.6Y-4.4
X7.6Y-4.6
X7.6Y-4.7
X7.6Y-4.8
X7.6Y-4.9
X7.6Y-5.0
X7.6Y-5.1
T5
X4.0028Y-3.62
X4.0028Y-3.8759
X4.08Y-1.96
X4.08Y-2.06
X4.18Y-3.62
X4.18Y-3.8759
X4.29Y-2.04
X4.29Y-2.44
T6
X3.98Y-1.96
X3.98Y-2.06
T7
X4.0157Y-1.7323
X4.0157Y-5.3543
X7.6378Y-1.7323
X7.6378Y-5.3543
T0
M30
